<svg width="302" height="132" viewBox="0 0 302 132" fill="none" xmlns="http://www.w3.org/2000/svg">
<path d="M25.8937 67.036C25.7746 67.0513 25.6953 67.0615 25.5712 67.037C25.382 66.8193 25.267 66.5518 25.2314 66.274C25.1551 65.6789 25.3067 64.9739 25.4543 64.5517L25.0881 61.6951C24.5734 60.5109 23.6436 59.8639 23.3018 58.4559C22.3456 57.288 20.5918 56.5046 20.2266 55.5432C19.9031 55.2218 19.2388 55.3876 19.1523 54.7131C19.0384 54.768 18.959 54.7782 18.8797 54.7883C18.3242 54.8595 18.1147 54.4831 17.5541 54.5146C16.5378 54.7659 16.372 55.6743 15.848 56.3061C15.2641 56.7842 14.8693 57.48 14.559 58.2054C13.6333 58.8483 12.8469 59.6346 12.5528 60.8015C12.9892 62.3183 13.7715 63.3875 14.7613 64.1882C15.0604 64.6338 16.2791 64.0743 16.391 64.9472C16.4062 65.0662 16.0359 65.6379 15.9169 65.6532C15.2424 65.7396 14.5608 65.1414 13.926 65.2228C13.8864 65.2279 13.8121 65.2777 13.7327 65.2879C13.4337 64.8423 12.9616 64.6205 12.4601 64.4831C12.0359 63.6906 11.4042 63.1667 11.0146 62.3294C9.94334 62.4667 10.0359 63.5034 9.28305 63.9225C9.14978 64.1412 8.77029 64.9561 8.61159 64.9764C8.53224 64.9866 8.40813 64.9621 8.32877 64.9723C8.1304 64.9977 8.23618 65.5084 7.99405 65.8218C7.53929 66.364 6.526 67.5827 6.2086 67.6234C6.01022 67.6488 5.76708 67.6396 5.56871 67.6651C5.29098 67.7007 5.43543 67.8838 5.19738 67.9143C4.60225 67.9906 4.25232 67.1482 4.23198 66.9895C4.1201 66.1167 4.54536 65.6589 5.01537 65.2357C5.62984 64.9956 5.63598 63.785 6.35014 63.6935C6.91174 62.4117 8.4184 61.896 8.84064 60.4707C9.71758 60.076 10.0971 59.2612 10.7502 58.6935C10.6953 58.5796 10.68 58.4606 10.6648 58.3415C10.5325 57.31 11.2905 56.9305 11.1633 55.9387C12.0362 55.8268 12.2743 54.2235 13.022 53.7647C14.1075 53.424 14.8298 52.7668 16.1788 52.5939C17.067 51.0283 18.7262 50.1301 19.7039 48.6336C20.9949 47.3793 22.2015 46.0955 23.4976 44.8809C23.931 43.8575 25.0308 43.3132 25.5039 42.2848C26.9902 41.6103 27.5416 40.2492 29.4064 40.0102C29.5254 39.9949 29.6892 40.0143 29.8875 39.9888C30.443 39.9176 30.6831 38.9593 31.1196 38.9034C31.1989 38.8932 31.323 38.9176 31.4573 39.0214L31.5763 39.0062C32.2111 38.9248 32.6424 40.402 32.6373 40.3623C32.8357 41.9096 31.798 43.2524 32.0064 44.8791L32.037 45.1172C31.1559 47.3675 30.8964 50.0623 29.8363 52.1742L29.9837 53.3248C29.2563 53.9423 29.1474 55.6097 28.7404 57.1539C28.3284 58.6585 27.4972 60.9831 27.6955 62.5304C27.7921 63.2842 27.6354 63.9496 27.6913 64.386C27.732 64.7034 27.8571 65.0503 27.8978 65.3677C27.9334 65.6454 27.8846 65.8937 27.7361 65.9934C27.7859 66.0676 27.7961 66.147 27.8012 66.1866C27.8215 66.3453 27.7076 66.4003 27.5489 66.4206C27.4298 66.4359 27.266 66.4165 27.147 66.4318C26.8296 66.4725 26.4888 66.9598 25.8937 67.036ZM30.1632 42.4538C29.8874 43.1344 29.0543 43.2412 28.455 43.6002C28.3533 44.3795 27.5506 44.7243 27.0806 45.1475C26.5363 45.6206 26.1162 46.118 25.5169 46.4771C24.9574 46.8311 25.0001 47.7935 24.0825 47.8708L23.8841 47.8962C23.5941 48.7802 22.5432 49.0762 22.2034 49.886C21.4404 50.2258 21.2095 50.9409 20.4414 51.241L20.4617 51.3997C20.5278 51.9155 19.0303 52.1881 19.1575 53.18C20.8259 53.6114 21.7587 55.2259 23.3782 55.9055C23.6285 56.5993 24.3335 56.7509 24.6875 57.3105C25.0964 57.9839 25.7261 59.4357 26.3263 59.3991C26.2713 59.2851 26.2612 59.2058 26.251 59.1264C26.1493 58.3329 26.8482 58.1224 26.836 57.398C26.9317 56.2566 27.48 55.5008 27.3967 54.221C27.8321 53.8425 27.7253 53.0094 28.1556 52.5913C28.0977 51.5099 28.3083 50.636 28.7926 50.0093C28.6604 48.9778 28.9808 48.3318 29.2515 47.6115C29.2932 46.6787 29.9158 45.873 29.8192 45.1191C29.7684 44.7224 30.0848 44.3592 30.1631 44.0266C30.2262 43.5749 30.036 43.0347 30.387 42.6267C30.3371 42.5525 30.3219 42.4335 30.2028 42.4487L30.1632 42.4538ZM58.3416 54.8924C57.6345 55.6686 56.2336 56.695 55.4116 57.2036C54.7676 57.5281 54.6496 57.8659 53.6394 58.4793C53.0412 59.1609 52.6638 59.0479 52.0208 59.6949C50.685 60.9146 48.8752 61.2676 47.4499 62.4181C46.3441 62.6002 44.9371 63.2644 43.9473 62.4638C43.7856 61.5166 44.0064 60.7221 44.2526 60.126C44.2821 60.0416 44.1275 59.7791 44.2017 59.7292C44.3798 59.5451 44.2007 59.4067 44.3289 59.1484C44.3533 59.0242 44.6016 59.0731 44.6606 58.9042C44.8183 58.5614 44.7928 58.363 44.9607 58.0995C45.0543 57.8859 45.3117 57.6916 45.4399 57.4332C45.4745 57.3884 45.3595 57.1209 45.3941 57.0761C45.5722 56.892 45.6067 56.8472 45.74 56.6285C46.0656 56.0222 46.9955 53.5237 47.3597 52.5898C45.8439 53.3487 42.7227 56.37 41.6697 57.5938C41.3584 57.9967 40.8141 58.4697 40.632 58.9366C39.8303 59.604 39.6848 60.6711 38.9279 61.373C38.2982 61.4941 38.4792 62.2774 37.8994 62.4727C37.5382 62.8013 37.2717 63.2387 36.8708 63.5724C35.8637 63.5805 35.707 64.2458 35.0997 63.5978C34.8983 62.6557 35.3683 62.2325 35.6094 61.5967C36.0794 61.1735 36.2758 60.5031 36.5668 59.9416C37.0144 58.7147 38.3564 56.2844 38.6596 54.8744C38.7318 54.1796 39.0188 50.7553 39.1562 50.2538C39.3475 49.5437 39.7941 49.5671 40.7666 49.6038C41.5225 50.1521 41.2955 53.73 40.9211 54.5846C41.2141 54.668 40.9465 54.7829 40.9719 54.9813L40.7735 55.0067C40.9638 55.5469 41.0554 54.6883 41.3432 54.7321C41.7003 54.6863 41.3962 54.2011 41.9323 54.2936C42.0646 53.7524 42.5997 53.5225 42.737 53.021C43.1887 53.0841 43.3067 52.7464 43.6384 52.5022C44.1186 52.1584 44.5245 51.8644 45.024 51.3568C45.2071 51.2123 45.3648 50.8695 45.5479 50.725C46.3791 49.9733 47.7861 49.309 48.5572 48.4036C49.191 47.9998 50.716 46.9978 51.7344 47.3915C52.4475 48.5503 51.8859 49.832 51.1483 50.3702C51.3242 51.1138 50.431 51.067 50.5673 51.8158C50.0221 51.9663 50.2377 52.7049 49.7372 52.89C49.5967 53.9969 48.4624 56.1586 47.914 56.9145C47.7421 57.4607 47.5599 57.9277 47.2934 58.3651C46.7481 58.5157 47.0533 59.3234 46.687 59.6123C47.0705 60.0874 47.3453 59.0844 47.7868 59.0681C48.1632 58.8586 48.8336 59.0549 49.1154 58.7365C49.6261 58.6307 49.6007 58.4323 50.0218 58.2574C51.9731 57.1201 52.6282 57.1974 54.1766 55.7488C54.9691 55.3246 54.9 55.4142 55.5134 54.8516C55.9488 54.4732 56.1513 54.1649 56.3934 53.8516C56.6956 53.6919 57.19 53.1446 57.4525 52.99C58.1555 52.4966 58.6692 51.7855 59.8147 51.5984C60.2521 53.4377 59.9123 54.2475 59.3223 54.3634C58.9652 54.4092 58.3609 54.7286 58.3416 54.8924ZM87.7207 48.062C88.273 48.5961 87.8468 48.7314 88.3391 49.1119C87.4286 49.8738 87.4856 50.6327 86.748 51.1709C86.105 51.8179 86.2241 51.8026 85.4468 52.3458C85.107 53.1556 84.2738 53.2624 83.6258 53.8697C82.7254 54.711 81.1363 55.8422 81.0519 55.8127C80.591 55.9927 79.2247 56.9744 79.0467 57.1585C78.1891 57.3894 77.4709 57.7638 76.5838 58.0791C76.1229 58.2592 76.1188 58.542 75.3253 58.6437C74.6824 59.2907 72.9865 59.5887 71.9152 59.726C70.844 59.8633 70.1197 59.8755 69.9264 58.3678C69.6976 56.5824 70.6112 55.2152 71.0182 53.6709C70.9633 53.557 70.9185 53.5224 70.8788 53.5275C70.6804 53.5529 70.3946 54.1541 70.2359 54.1744C70.1565 54.1846 70.2175 54.6607 70.1382 54.6709C69.8208 54.7116 69.6895 55.5753 69.1737 55.6414C69.1341 55.6465 69.0547 55.6566 69.0099 55.622C68.6254 56.3972 67.5694 56.6535 67.1401 57.3941C66.2733 57.8682 65.5906 58.5203 64.8134 59.0635C64.1653 59.6708 63.3525 59.9363 62.8835 60.682C61.7634 61.0675 60.563 61.1407 59.6667 61.6992L57.5639 61.9687C57.0512 61.4295 56.4093 60.8262 56.3381 60.2707C56.1703 58.9614 56.5396 58.0672 56.5112 56.9014C57.7564 55.29 58.4971 52.5738 60.132 51.7997C60.4769 51.0296 61.3141 50.64 61.6143 49.8353C61.6987 49.8648 61.778 49.8546 61.8574 49.8445C62.2938 49.7885 62.4363 49.3267 62.6937 49.1324C63.065 48.8831 63.6306 48.8913 63.7731 48.4294C64.709 47.8659 65.4822 47.6055 66.1109 47.162C66.5168 46.868 67.3154 46.8059 67.5819 46.3685C68.4396 46.1376 69.4264 45.9708 70.1944 45.6707C71.8069 45.6657 73.3308 45.914 74.5282 46.4461C76.3065 43.9598 77.8407 41.1419 79.3058 38.4135C79.9162 36.8835 81.198 35.8723 81.6742 34.2385C82.1534 33.5722 82.8564 33.0788 82.9775 32.1358C83.1352 31.7929 83.6957 31.7614 83.6245 31.206L83.6092 31.0869C84.0009 30.9964 83.8951 30.4857 84.3316 30.4298L84.4903 30.4094C84.6765 29.6597 85.0366 29.0086 85.3968 28.3576C86.1384 27.5366 87.288 27.0666 87.5871 25.9395L88.1426 25.8683C88.4997 25.8225 88.7825 25.8266 88.9615 25.965L88.9768 26.084C89.0022 26.2824 89.1955 26.2173 89.2209 26.4156C89.404 27.8439 88.1496 28.1257 88.2737 29.7229C87.8525 29.8979 87.8393 30.4238 87.4181 30.5988C87.4069 31.7697 86.7842 32.5754 86.4098 33.4299C86.0599 34.1603 85.6325 35.5459 84.9733 35.7514C84.8216 38.0291 83.2377 39.2 82.5539 41.1024C81.5305 42.2417 79.6891 45.1797 79.0939 45.256C79.0146 45.2661 78.9352 45.2763 78.8508 45.2468C78.9677 46.1593 77.396 46.4818 77.4143 47.5682C76.1568 48.4553 75.5738 50.8287 74.5819 50.9558C74.5026 50.966 74.4232 50.9762 74.3388 50.9466C73.8749 51.732 73.59 52.6557 72.8972 53.2284C73.0019 54.9894 71.8482 55.7422 71.9031 57.4289C72.0527 57.6517 72.3406 57.6954 72.6183 57.6598C73.6102 57.5327 73.8808 56.8125 74.7933 56.6955L75.0711 56.6599C75.9867 55.9376 76.7568 56.2825 77.648 55.6844C78.5788 55.0812 78.5544 55.2053 79.5453 54.7557C81.1679 53.2572 80.6583 53.6855 82.2972 52.6285C83.0938 51.9215 83.0999 52.2837 83.6777 51.4434C84.7825 50.9389 84.5384 50.6072 85.6534 50.182C86.4398 49.3957 87.1825 48.8972 87.7207 48.062ZM85.6103 31.5967C85.1118 32.4268 84.479 33.1531 83.9754 33.9436C83.7434 34.3363 83.6407 34.793 83.369 35.1908C83.2653 35.3251 82.43 36.3596 82.549 36.3444C82.1919 36.3902 82.3689 37.4563 81.8928 37.5173L81.7738 37.5326C81.7341 37.5377 81.6995 37.5824 81.7046 37.6221C81.7809 38.2172 81.1583 39.0229 80.5784 39.2182C80.6953 40.1308 79.9273 40.4309 79.8703 41.2447C79.6281 41.558 79.207 41.733 78.796 41.9873C78.8509 42.1013 78.8611 42.1806 78.8712 42.26C78.9323 42.7361 78.1398 43.1602 78.216 43.7554C78.2262 43.8347 78.3157 43.9039 78.4846 43.9629C79.2853 42.9731 80.2741 41.8785 80.7971 40.9243C81.3546 39.9253 82.9661 38.025 82.9508 37.906C82.9457 37.8663 82.8908 37.7524 82.8806 37.673C82.8654 37.554 83.2174 37.4685 83.1411 36.8734C83.0851 36.437 85.8025 32.7819 85.6754 31.79C85.6652 31.7106 85.655 31.6313 85.6103 31.5967ZM73.0866 48.7278C73.0459 48.4104 72.4141 47.8865 71.819 47.9628C71.7732 47.6057 70.8963 48.0004 70.8709 47.802C70.8302 47.4846 71.1527 47.4836 70.6369 47.5497L70.1608 47.6107C68.9309 47.7684 67.9695 48.1336 67.058 48.573C67.0183 48.5781 67.0386 48.7368 66.9247 48.7917C65.9735 49.2363 65.0314 49.4376 64.3742 50.2881C60.5378 53.0785 58.7828 56.6909 58.6394 56.8303C58.384 57.6695 57.8601 58.3013 58.0126 59.4915C58.0737 59.9676 58.3117 59.9371 58.5894 59.9015C58.9068 59.8608 59.2487 59.696 59.5264 59.6605C59.6851 59.6401 59.8489 59.6594 59.9781 59.7235C60.5722 59.3248 61.1216 58.8914 61.9843 58.7002C62.5285 58.2272 63.0677 57.7145 63.965 57.4785C65.7403 55.5975 68.4555 54.443 69.8727 52.2853C69.9124 52.2802 69.9572 52.3148 69.9968 52.3097C70.5523 52.2385 71.1393 51.1551 71.1648 51.3535C71.1597 51.3138 71.1495 51.2344 71.0997 51.1602C71.7141 50.9201 73.1679 49.3626 73.0866 48.7278ZM116.254 47.3891C116.264 47.4684 116.437 48.8174 116.344 49.031C115.871 50.0595 110.995 53.8702 108.045 54.45C105.566 54.929 103.189 54.6289 101.549 53.7905C100.621 53.7885 100.166 52.7579 100.154 52.0336C99.8935 51.2604 99.5284 50.299 99.6494 49.356C99.6494 49.356 99.798 49.2563 99.7827 49.1373C99.8509 48.7253 100.242 46.7395 100.692 46.4801C100.819 45.8992 100.942 45.2786 101.472 45.0091C101.771 43.8819 102.781 43.2685 103.219 42.2848C104.23 41.6714 105.2 41.063 105.852 40.1729C107.256 40.1139 107.72 39.3286 109.035 39.2005C109.646 39.5657 109.752 40.0764 109.809 40.8353C109.849 41.1527 109.76 41.0835 109.701 41.2524C109.578 41.5505 109.743 42.2148 109.472 42.6125C109.67 44.1599 108.421 46.0541 108.48 47.458C107.96 47.8069 107.67 48.6909 107.369 49.1731C107.068 49.6553 106.533 49.8852 106.361 50.4315C105.489 50.8659 105.104 51.6411 104.232 52.0754C104.894 52.5149 105.876 52.6309 106.452 52.7184L106.849 52.6676C108.936 52.2791 111.903 50.568 113.412 49.1245C113.733 48.801 114.476 48.3026 114.813 48.0981C115.154 47.9333 115.857 47.4399 116.254 47.3891ZM107.623 41.7203C107.153 42.1435 106.617 42.0509 106.32 42.2503C105.251 43.0326 104.769 44.3042 103.759 44.9176C103.212 46.3184 101.717 48.8087 101.936 50.8373C102.537 50.8007 103.21 50.3917 103.433 50.2422C103.873 49.9035 104.131 49.7092 104.487 49.3409C105.555 48.2361 106.751 45.3002 107.318 44.0581C107.604 43.4569 107.964 42.8058 107.868 42.052C107.813 41.938 107.782 41.7 107.623 41.7203ZM139.401 42.648C139.401 42.648 140.055 43.9756 140.169 43.9207C139.54 44.3642 138.913 45.4527 138.319 45.8515C137.685 46.2553 137.88 46.5127 137.251 46.9562C136.622 47.3998 136.173 47.9816 135.544 48.4252C135.207 48.6296 134.771 48.6856 134.439 48.9297C134.073 49.2186 134.019 49.4272 133.538 49.4485C132.95 50.2094 131.694 50.1687 131.241 51.0334C129.872 51.3701 128.91 51.4128 127.631 51.8187C127.58 51.4219 126.827 51.841 126.495 51.7627C126.394 51.2916 125.705 51.5816 125.605 51.1105C125.242 51.1166 125.458 50.2824 124.953 50.4279C124.387 50.4197 124.299 50.9955 123.873 51.1308C123.378 51.3556 122.675 51.849 122.091 52.3271C121.839 52.5611 120.832 52.8917 120.288 53.3647C120.031 53.559 118.539 54.1938 117.899 54.2355C117.979 54.2253 117.293 53.9099 116.922 54.1591C115.902 53.4429 115.264 52.2343 115.481 50.4723C115.891 49.8955 116.072 49.1061 116.164 48.2475C116.693 47.6554 116.948 46.8162 117.428 46.1498C118.227 44.8375 119.38 43.7623 120.269 42.5191C120.888 41.9963 121.467 41.4785 121.777 40.7531C122.764 40.5863 122.95 39.8366 123.539 39.3981C124.247 38.9444 125.184 38.7034 125.494 37.978C127.209 37.5162 128.208 36.501 129.884 36.0443C131.308 36.144 132.081 37.4564 131.809 39.1044C131.537 39.5022 131.355 39.9691 130.82 40.199C130.95 40.5856 130.459 40.5276 130.494 40.8053C130.49 41.0881 130.038 41.025 129.766 41.1003C128.925 40.1999 130.099 39.6059 130.026 38.7279C129.013 38.3739 128.45 39.3332 127.195 39.2924C126.691 39.7604 125.947 39.9364 125.387 40.2904C124.873 40.679 124.621 41.2354 124.002 41.4358C123.012 42.2079 122.43 43.331 121.216 43.9302C120.797 44.7501 120.288 45.5009 119.78 46.2516C119.324 46.4714 119.271 47.0024 118.95 47.3259C118.628 47.6494 118.665 48.2496 118.119 48.4002C117.96 49.6708 117.342 50.5161 117.406 51.9597C118.643 52.4867 119.548 51.3626 120.614 51.1856C120.568 50.8286 120.901 50.9069 121.118 50.7177C121.341 50.5682 121.445 50.4339 121.628 50.2894C121.96 50.0453 122.793 49.9385 122.677 49.3484C123.158 49.3271 123.595 49.2712 123.802 49.0026C124.233 48.907 124.078 48.322 124.683 48.3251C124.74 47.5112 125.2 47.0087 125.167 46.1257C125.508 45.6384 126.028 45.2895 125.926 44.496C127.408 43.7819 127.193 41.793 129.44 41.7066C129.942 41.844 130.023 42.4788 130.342 42.7606C130.613 43.9356 129.587 44.1075 129.684 45.1838C129.13 45.5775 128.854 46.2581 128.568 46.8593C128.078 47.1238 127.851 47.5561 127.54 47.959C127.298 48.2723 126.559 48.4879 126.933 49.2062C126.821 49.9061 127.792 49.2978 127.957 49.6396C128.254 49.4402 128.74 49.4585 129.087 49.3334C129.696 49.0537 130.193 49.1513 130.747 48.7577C131.307 48.4037 131.996 48.1137 132.555 47.7597C133.64 47.0965 134.689 46.478 135.774 45.8147C136.179 45.1983 136.699 44.8493 137.213 44.4607C137.951 43.9226 138.554 43.2807 139.401 42.648ZM159.291 40.5826C159.914 40.0994 160.549 40.018 160.252 41.7902C160.091 42.7383 158.172 44.4361 157.245 44.7566C156.73 45.1452 156.101 45.5887 155.542 45.9427C155.468 45.9925 155.28 46.4198 155.241 46.4249C154.859 46.5948 154.229 46.7158 154.182 47.2865C153.358 47.1502 153.479 47.7799 152.878 47.8165C152.3 48.3343 151.318 48.5408 150.834 49.1674C150.531 49.3271 149.692 49.0717 149.748 49.5082C149.67 49.8408 148.83 49.5855 148.842 49.9873C147.403 50.091 146.447 50.4959 145.456 50.9455C143.864 51.1092 142.213 51.4418 140.868 51.3319C140.217 50.9718 139.675 50.517 138.816 50.4254C138.626 49.8852 138.43 49.3053 137.889 49.1731C137.766 47.8984 137.509 48.0927 137.455 46.7284C137.433 45.9248 137.965 44.7274 138.022 43.9136C138.945 42.6257 139.511 41.0611 140.574 39.9166C142.447 37.5392 144.83 34.7335 149.251 34.9331C150.287 36.0908 150.873 37.8305 151.567 39.4755C151.166 39.4867 151.575 40.1601 151.491 40.4531C151.036 40.9953 150.221 42.1886 148.904 41.3493C148.903 41.0268 148.743 40.7246 148.782 40.3971C148.82 39.747 149.483 39.2587 149.266 38.1977C149.215 37.8009 148.987 37.5883 148.767 37.1325C147.818 36.6492 146.845 36.6126 145.885 37.3003C146.134 37.6716 146.134 37.6716 145.712 37.5241C145.29 37.3765 145.475 37.8771 145.361 37.932C145.252 38.0266 144.959 37.9432 144.805 38.0032C144.588 38.1924 144.4 38.6197 143.904 38.522C143.821 38.815 143.434 38.9452 143.221 39.1741C143.083 39.3531 143.219 40.1019 142.544 39.8658C142.625 40.5006 142.214 40.7549 141.898 41.1181C141.821 42.0957 140.676 42.2829 140.655 43.3745C140.194 43.5545 140.041 43.937 139.799 44.2503C139.601 45.8485 138.674 46.169 139.473 48.0022C140.007 49.0226 141.095 49.3268 142.177 49.5913C144.265 49.2028 146.576 48.9872 147.992 48.0798C148.557 47.7655 149.345 47.6241 149.825 47.2803C151.134 46.79 151.914 45.6414 153.222 45.1511C154.217 44.4187 155.331 43.671 156.466 43.082C157.466 42.3893 158.156 41.1716 159.291 40.5826ZM168.489 35.6532C169.067 34.8129 170.282 32.9634 170.226 32.527C168.576 33.1821 168.319 34.9492 166.534 35.5005C166.239 36.3449 164.747 38.2299 164.752 38.2696C164.608 38.4089 164.291 38.4496 164.044 38.7233C163.554 39.3102 163.16 40.0061 162.536 40.4893C162.132 41.4282 161.101 41.8829 161.145 43.1678C160.035 43.6327 159.707 44.8443 159.139 45.7639C158.907 46.1566 158.283 46.6398 158.334 47.0366C158.37 47.3143 157.391 48.4882 157.312 48.4984C156.677 48.5798 156.714 49.18 156.039 49.2664C155.682 49.3122 155.422 48.539 155.371 48.1423C155.198 46.7933 156.45 45.8666 156.863 44.6845C157.53 43.5909 157.945 41.481 158.574 41.36C158.598 40.9134 158.671 40.541 159.048 40.3315C160.187 38.2094 161.277 36.013 162.68 34.0588C163.393 33.6448 163.255 32.5736 163.969 32.1596C164.981 30.6184 165.84 29.1372 167.193 27.1087C167.331 26.9297 167.638 26.8096 167.737 26.6357C167.836 26.4617 167.726 26.2338 167.824 26.0599C168.269 25.4383 168.927 24.9103 169.377 24.3285C169.856 23.6621 170.161 22.8971 170.64 22.2308C171.905 20.4556 173.532 18.6744 175.208 16.9674C175.382 17.066 175.506 17.0905 175.625 17.0752C175.864 17.0447 176.086 16.8952 176.285 16.8697C176.443 16.8494 176.726 16.8535 176.762 17.1312C176.869 17.9644 176.214 18.2095 176.008 18.8006C175.072 19.3642 175.508 20.881 173.818 21.2187C173.398 22.0386 171.747 23.944 171.768 24.1027C171.728 24.1078 171.643 24.0783 171.604 24.0834C171.524 24.0935 171.252 24.1688 171.277 24.3672C171.287 24.4465 171.342 24.5605 171.347 24.6001C171.353 24.6398 169.432 27.5879 168.876 27.6591C168.718 27.6795 168.779 28.1556 168.714 28.2848C168.611 28.419 168.155 28.6388 168.17 28.7578C168.18 28.8371 168.235 28.9511 168.245 29.0304C168.271 29.2288 167.284 29.3956 167.365 30.0304C167.376 30.1098 167.42 30.1444 167.425 30.184C166.89 30.4139 166.669 30.886 166.581 31.4618C165.53 31.7578 165.738 33.062 164.737 33.4322C164.829 34.4689 163.604 36.239 163.371 36.3092C163.035 36.5136 162.812 36.6632 162.873 37.1393C162.957 37.1688 163.081 37.1932 163.121 37.1881C163.161 37.183 165.15 35.3957 165.785 34.064C165.87 34.0935 165.91 34.0884 165.989 34.0783C166.544 34.0071 166.621 33.0294 167.171 32.9186C167.721 32.8077 168.075 31.7945 168.73 31.5493C169.764 30.8118 170.391 29.7233 171.739 29.2279C172.073 29.6288 172.47 29.9004 172.839 30.2565C172.911 31.1344 172.258 31.702 172.324 32.2178C172.41 32.8923 171.037 34.7621 170.898 34.9411C170.77 35.1995 170.148 36.0052 170.032 36.9879C169.215 37.5362 169.244 39.0246 168.295 40.1141C167.837 41.2616 167.335 42.3745 166.782 43.4132C166.753 43.4976 166.723 43.5821 166.728 43.6217C166.759 43.8598 167.017 43.988 167.027 44.0673C167.032 44.107 166.998 44.1518 166.879 44.167C166.701 44.3511 166.647 44.5597 166.558 44.813C166.902 45.2932 167.433 45.3461 167.909 45.2851C168.465 45.2139 168.92 44.9942 169.555 44.9128C169.758 44.6046 170.843 44.2638 171.586 43.7653C172.463 43.3707 173.105 42.4012 174.08 41.8325C174.68 41.4734 175.219 40.9607 175.772 40.2446C176.004 39.8519 177.186 38.6922 177.623 38.6362C177.94 38.5956 178.422 38.8967 178.488 39.4125C178.636 40.5631 177.116 41.6048 176.374 42.4257C176.177 42.7736 175.306 43.5305 174.667 43.8946C172.528 45.1367 170.256 46.92 167.479 47.276C166.249 47.4336 164.899 47.284 164.736 46.0144C164.629 45.1812 164.806 44.6746 164.679 43.6827C165.219 43.4925 164.859 42.5708 165.484 42.4101C165.439 42.3755 165.429 42.2961 165.424 42.2565C165.332 41.5423 166.134 40.875 166.391 40.3582C166.706 39.6725 166.274 39.4456 167.297 38.3063C167.443 37.2391 168.254 36.6511 168.489 35.6532ZM193.015 34.768C193.118 34.3112 193.195 33.6561 193.204 33.0905C193.352 32.9908 193.653 32.5086 194.059 32.2146C195.189 31.9084 195.559 31.0142 196.55 30.5646C197.123 30.0071 197.389 29.2472 197.873 28.6205C198.924 28.3245 199.522 27.643 200.792 27.4802C201.488 27.875 202.903 28.2179 203.005 29.3339C203.409 29.9677 203.546 30.7164 203.746 31.336C203.796 31.4102 204.004 31.4641 204.312 31.3441C204.852 31.1539 204.356 31.3787 204.886 31.1091C205.525 30.745 206.498 30.7816 206.503 30.8213C206.583 31.1336 205.942 32.4256 205.764 32.6097C205.69 32.6596 205.536 32.7196 205.234 32.8793C204.63 33.1987 205.001 32.9495 204.437 33.2638C203.832 33.5832 203.763 33.6727 203.768 33.7124C203.491 35.3208 202.55 36.1671 201.904 37.4194C201.697 37.688 200.776 38.3706 200.941 38.7124C200.475 38.8528 200.68 39.1895 200.27 39.7663C199.063 41.0501 197.677 42.1956 196.073 43.2078C194.76 43.6584 192.83 43.7041 191.842 43.5484C191.219 42.7813 191.15 41.2981 190.982 39.9888C191.125 39.5269 191.218 38.9908 191.405 38.5636C191.464 38.3947 191.85 38.2645 191.909 38.0956C192.038 37.8372 191.923 37.5697 192.011 37.3163C192.38 36.4221 192.422 35.4893 193.015 34.768ZM200.001 30.1222C199.992 30.3653 199.754 30.3958 199.874 30.7031C199.697 31.2097 199.162 31.4396 198.622 31.6298C198.554 32.0418 197.673 32.7193 198.239 33.0499C198.238 32.7275 198.517 33.0143 198.483 33.3816C199.644 33.3135 201.201 32.872 201.864 32.3837C201.688 31.6401 201.789 30.5383 201.371 30.108C201.133 30.1385 200.269 30.0072 200.001 30.1222ZM195.728 34.5412C195.719 34.7844 195.481 34.8149 195.601 35.1221C195.13 35.2228 195.107 35.6694 194.944 35.9726C194.278 37.0662 193.88 38.3673 193.233 39.2971C193.34 40.1303 192.82 40.4792 193.106 41.4508L195.05 41.2016C195.441 41.111 196.728 40.1396 196.832 40.0053C196.97 39.8262 196.981 39.9056 197.203 39.756C197.753 39.3227 198.023 38.6024 198.762 38.3868C199.063 37.9046 199.359 37.3827 199.745 36.93C200.086 36.4428 200.431 35.9951 200.907 35.6116C201.123 35.0999 201.441 35.0593 201.359 34.4244C200.775 34.9026 199.516 35.1446 198.727 35.286C198.419 35.0836 197.874 35.2341 197.358 35.3002C196.802 35.0489 196.384 34.6186 195.728 34.5412ZM223.202 35.335C223.858 35.7348 223.15 36.1885 223.563 36.5792C222.666 37.1377 222.296 37.7094 221.702 38.1082C221.331 38.3574 220.732 39.039 220.123 39.3187C220.004 39.334 219.445 39.688 219.336 39.7826C219.108 39.8924 219.088 40.0562 218.628 40.2363C218.4 40.3461 217.716 40.6757 217.369 40.8008C216.794 41.0358 217.394 40.6767 216.586 40.9819C216.199 41.1121 215.852 41.2372 215.486 41.5261C214.607 41.2758 213.204 41.6573 212.049 41.7651C211.76 41.3988 211.159 41.4354 210.623 41.3428C210.046 40.6103 208.922 40.0284 208.551 38.7049C208.265 37.7333 208.416 36.7058 208.561 35.6387C208.91 34.5858 208.964 32.8045 209.454 32.2175C210.208 30.5481 210.603 28.602 211.541 27.1106C211.223 26.8288 210.554 26.955 209.969 27.1106C209.542 27.2459 208.616 27.5663 207.758 27.7972C206.543 28.0739 204.993 28.8775 204.428 27.619C204.252 26.8754 205.369 27.0952 205.681 26.6923C205.997 26.3291 206.89 26.376 207.117 25.9436C209.086 25.5703 210.875 25.0587 212.754 24.6162C213.067 24.5359 213.304 24.1829 213.437 23.9641C213.536 23.7902 213.465 23.5572 213.564 23.3833C213.796 22.9906 214.548 22.249 214.873 21.6427C215.545 20.5888 216.003 19.4413 216.585 18.3182C217.198 17.7556 216.966 16.5755 218.296 16.5664C219.089 16.4647 218.627 17.895 219.11 18.1962C218.396 20.183 216.872 21.5075 216.517 23.771C216.647 24.1575 217.48 23.7283 217.892 23.7964C222.245 22.8352 226.901 22.0368 231.259 21.1153C231.766 21.2923 232.481 21.5232 232.081 22.1794C231.1 22.3859 230.282 22.6117 230.316 22.5669C229.2 22.6696 228.532 23.1183 227.287 23.1569C226.514 23.7398 225.72 23.519 224.7 24.053C223.951 24.1893 223.271 24.2361 222.775 24.1384C221.542 24.9014 221.381 24.2767 220.123 24.8413C219.587 25.0712 219.587 25.0712 219.012 24.9837C218.675 25.1882 218.338 25.3926 217.912 25.5279C217.446 25.6683 216.382 24.9175 215.809 25.7974C215.9 26.1891 215.145 25.9632 214.882 26.1179C214.588 27.2847 213.628 27.9724 213.344 29.2186C212.478 30.0151 212.705 31.1555 211.755 31.9225C211.861 32.4332 211.336 32.7425 211.149 33.1697C210.922 33.6021 211.003 34.2369 210.563 34.5757C210.518 36.1138 210.041 37.4251 210.903 38.8067C211.38 39.0681 211.699 39.35 212.15 39.413C212.314 39.4324 212.29 39.5565 212.335 39.5911C213.68 40.0235 215.35 39.2046 216.713 38.8282C217.288 38.5933 218.22 38.3125 218.783 37.6757C218.818 37.6309 219.783 36.9829 219.823 36.9779C220.12 36.7785 220.323 36.4702 220.659 36.2658C220.961 36.1061 221.477 36.0399 221.785 35.9199C221.927 35.4581 222.656 35.4856 223.202 35.335ZM232.303 27.4741C232.881 26.6338 234.096 24.7844 234.04 24.348C232.39 25.0031 232.132 26.7701 230.348 27.3215C230.053 28.1658 228.561 30.0509 228.566 30.0905C228.422 30.2299 228.105 30.2706 227.858 30.5442C227.368 31.1312 226.973 31.827 226.35 32.3102C225.946 33.2492 224.915 33.7039 224.959 34.9888C223.849 35.4537 223.521 36.6653 222.953 37.5849C222.721 37.9776 222.097 38.4608 222.148 38.8575C222.184 39.1353 221.205 40.3092 221.126 40.3194C220.491 40.4007 220.527 41.001 219.853 41.0874C219.496 41.1332 219.235 40.36 219.185 39.9632C219.012 38.6143 220.264 37.6876 220.677 36.5054C221.344 35.4119 221.759 33.302 222.388 33.1809C222.412 32.7343 222.485 32.362 222.861 32.1524C224.001 30.0304 225.091 27.834 226.493 25.8798C227.207 25.4658 227.069 24.3945 227.783 23.9805C228.795 22.4393 229.653 20.9581 231.007 18.9297C231.145 18.7506 231.452 18.6306 231.551 18.4566C231.65 18.2827 231.54 18.0548 231.638 17.8808C232.083 17.2593 232.741 16.7313 233.191 16.1494C233.67 15.4831 233.975 14.7181 234.454 14.0518C235.719 12.2766 237.346 10.4953 239.022 8.78832C239.196 8.88701 239.32 8.91143 239.439 8.89617C239.677 8.86566 239.9 8.71612 240.099 8.6907C240.257 8.67036 240.54 8.67444 240.576 8.95216C240.683 9.78535 240.028 10.0305 239.822 10.6216C238.886 11.1851 239.322 12.7019 237.632 13.0396C237.212 13.8596 235.561 15.7649 235.582 15.9236C235.542 15.9287 235.457 15.8992 235.418 15.9043C235.338 15.9145 235.066 15.9898 235.091 16.1881C235.101 16.2675 235.156 16.3814 235.161 16.4211C235.166 16.4608 233.246 19.4089 232.69 19.4801C232.531 19.5004 232.593 19.9765 232.528 20.1057C232.425 20.24 231.969 20.4597 231.984 20.5788C231.994 20.6581 232.049 20.772 232.059 20.8514C232.085 21.0498 231.098 21.2166 231.179 21.8514C231.19 21.9307 231.234 21.9653 231.239 22.005C230.704 22.2349 230.482 22.7069 230.395 23.2827C229.344 23.5787 229.552 24.8829 228.551 25.2532C228.643 26.2898 227.418 28.0599 227.185 28.1301C226.848 28.3346 226.626 28.4841 226.687 28.9602C226.771 28.9897 226.895 29.0142 226.935 29.0091C226.975 29.004 228.963 27.2166 229.599 25.885C229.684 25.9145 229.723 25.9094 229.803 25.8992C230.358 25.828 230.435 24.8504 230.985 24.7395C231.535 24.6287 231.889 23.6154 232.544 23.3703C233.578 22.6328 234.205 21.5443 235.553 21.0489C235.887 21.4497 236.284 21.7213 236.653 22.0774C236.725 22.9554 236.072 23.523 236.138 24.0388C236.224 24.7133 234.851 26.583 234.712 26.7621C234.584 27.0205 233.962 27.8262 233.846 28.8089C233.029 29.3572 233.058 30.8455 232.109 31.935C231.651 33.0826 231.148 34.1955 230.596 35.2341C230.567 35.3186 230.537 35.403 230.542 35.4427C230.573 35.6807 230.831 35.8089 230.841 35.8883C230.846 35.928 230.812 35.9727 230.693 35.988C230.515 36.1721 230.461 36.3807 230.372 36.634C230.716 37.1141 231.247 37.1671 231.723 37.106C232.279 37.0348 232.734 36.8151 233.369 36.7338C233.572 36.4255 234.657 36.0848 235.4 35.5863C236.277 35.1916 236.919 34.2221 237.894 33.6535C238.493 33.2944 239.033 32.7817 239.586 32.0655C239.818 31.6728 241 30.5131 241.437 30.4572C241.754 30.4165 242.236 30.7177 242.302 31.2334C242.45 32.384 240.93 33.4257 240.188 34.2467C239.991 34.5946 239.12 35.3514 238.481 35.7156C236.342 36.9577 234.07 38.7409 231.293 39.0969C230.063 39.2546 228.713 39.105 228.55 37.8353C228.443 37.0022 228.62 36.4955 228.493 35.5037C229.033 35.3134 228.673 34.3917 229.298 34.231C229.253 34.1964 229.243 34.1171 229.238 34.0774C229.146 33.3633 229.948 32.6959 230.204 32.1791C230.52 31.4935 230.087 31.2666 231.111 30.1272C231.256 29.0601 232.068 28.4721 232.303 27.4741ZM257.21 29.3227C257.221 29.402 257.393 30.751 257.3 30.9646C256.827 31.9931 251.952 35.8038 249.001 36.3836C246.522 36.8626 244.145 36.5625 242.505 35.7241C241.577 35.7221 241.122 34.6915 241.11 33.9672C240.85 33.194 240.485 32.2326 240.606 31.2896C240.606 31.2896 240.754 31.1899 240.739 31.0709C240.807 30.6589 241.198 28.6731 241.649 28.4137C241.776 27.8328 241.898 27.2122 242.428 26.9427C242.727 25.8155 243.737 25.2021 244.176 24.2184C245.186 23.605 246.157 22.9966 246.809 22.1065C248.213 22.0476 248.676 21.2622 249.991 21.1341C250.602 21.4993 250.708 22.01 250.765 22.7689C250.806 23.0863 250.716 23.0171 250.657 23.186C250.534 23.4841 250.7 24.1484 250.428 24.5462C250.626 26.0935 249.377 27.9877 249.436 29.3916C248.916 29.7405 248.626 30.6245 248.325 31.1067C248.024 31.5889 247.489 31.8188 247.317 32.3651C246.445 32.7995 246.061 33.5747 245.189 34.009C245.85 34.4485 246.833 34.5645 247.408 34.6521L247.805 34.6012C249.893 34.2127 252.859 32.5016 254.368 31.0581C254.689 30.7346 255.432 30.2362 255.769 30.0317C256.111 29.8669 256.814 29.3735 257.21 29.3227ZM248.58 23.6539C248.11 24.0771 247.574 23.9845 247.277 24.1839C246.207 24.9662 245.725 26.2378 244.715 26.8512C244.168 28.252 242.673 30.7424 242.893 32.7709C243.493 32.7343 244.166 32.3253 244.389 32.1758C244.83 31.8371 245.087 31.6428 245.443 31.2745C246.511 30.1697 247.708 27.2338 248.274 25.9917C248.56 25.3905 248.92 24.7394 248.824 23.9856C248.769 23.8716 248.738 23.6336 248.58 23.6539ZM271.72 27.9872C272.249 27.3952 273.56 26.2996 273.555 26.2599C273.55 26.2202 274.264 27.7015 274.264 27.7015C274.264 27.7015 273.064 29.3474 273.014 29.2732C271.119 30.8469 269.393 32.8021 266.811 33.738C265.557 34.0197 264.103 34.0044 263.175 34.0023C262.773 34.0135 262.66 34.0684 262.198 33.926C262.113 33.8965 262.177 33.7673 261.974 33.7531C261.458 33.8192 261.089 33.1406 260.676 32.7499C260.485 31.8872 260.781 31.3654 260.808 30.636C261.717 29.229 262.134 27.7641 263.177 26.461C262.99 25.638 262.684 24.5077 262.261 24.0377C261.146 24.4629 258.458 29.6064 257.388 30.0661C257.388 30.0661 255.827 29.2177 255.872 29.2522C256.401 28.6602 257.294 27.1342 257.759 26.6714C258.199 26.0101 259.802 23.1027 260.471 22.6541C260.454 22.2126 261.622 21.2563 261.904 20.9379C262.072 20.6745 261.817 19.941 262.725 20.1068C263.668 20.2279 263.707 21.4731 263.998 22.4843C264.376 22.9198 264.587 23.6187 264.97 24.0938C264.928 25.0266 265.733 25.3268 265.835 26.1203C265.478 26.166 265.628 26.7113 265.535 26.925C265.407 27.1834 265.149 27.3776 265.05 27.5516C264.756 28.7185 264.138 29.2413 263.665 30.2698C263.538 30.8507 262.784 30.9473 263.104 31.8741C263.914 32.2139 265.114 32.1407 266.369 31.859C268.56 31.3361 270.355 29.2914 271.72 27.9872ZM288.681 5.69002C289.762 5.30958 290.086 5.95355 290.549 6.41848C290.245 7.50598 289.398 8.13872 288.736 8.9495C288.645 9.80811 287.926 10.1825 287.83 11.0014C286.909 11.684 286.436 12.7125 285.823 13.5975C285.517 14.04 285.166 14.448 284.86 14.8905C284.549 15.2933 284.482 16.0278 283.857 16.1885C283.464 17.5293 282.51 18.5792 281.769 19.7226C281.029 20.8661 280.417 22.0736 279.726 23.2913C279.281 23.5904 280.027 24.3819 279.675 24.4673C279.488 24.8946 278.318 25.2058 277.791 24.8701C277.267 23.9291 277.857 23.4906 278.122 22.7307C278.448 22.1244 278.684 21.4489 278.83 20.7042C279.256 20.5689 279.151 20.0582 279.482 19.8141C279.958 19.7531 279.669 19.0643 279.916 18.7907C281.359 17.1539 282.137 15.0379 283.491 13.3319C285.264 10.806 286.813 8.10709 288.681 5.69002ZM274.842 30.4907C276.061 29.9312 277.856 29.7817 277.693 31.6576C277.098 31.7339 277.125 32.2548 276.435 32.2222C275.796 32.5864 275.65 33.331 275.279 33.9027L274.327 34.0248C273.143 32.9667 274.349 31.3604 274.842 30.4907ZM83.7039 73.7007C84.3235 73.5003 84.6317 73.7027 85.0783 73.7262C85.0742 74.009 85.1098 74.2867 85.3479 74.2562C85.6734 75.2227 84.8799 75.3244 84.7527 75.9052C84.2573 76.13 84.2145 76.7404 83.948 77.1779C83.4993 78.0822 82.0068 79.9673 81.4737 80.8422C81.6782 81.1789 81.8359 80.8361 82.0688 80.7659L83.0211 80.6438C84.2968 80.8433 85.6417 80.9532 86.9519 81.1079C86.8797 81.8027 87.7068 81.3337 87.8024 81.7651C87.5694 83.408 84.8227 82.4293 83.6222 82.5025C82.0647 82.6215 80.8154 82.9429 79.7055 83.4078C79.1663 83.9205 78.7116 84.4627 78.3514 85.1137C78.7248 85.5095 79.8296 85.0049 80.4797 85.0426C81.4278 85.2034 83.436 84.825 84.7361 84.9003C85.1827 84.9237 85.9559 84.6633 85.9182 85.3134C86.258 86.0764 85.2803 86.0001 84.9039 86.2096C83.8489 86.7884 81.0157 86.708 79.2161 87.1403C77.9271 87.4668 77.2099 88.1636 76.2577 88.2857C75.1885 89.0679 73.6308 92.3325 72.5565 93.0751C72.5382 93.5613 72.4649 93.9337 72.0834 94.1035C71.9176 95.012 72.0651 96.1626 70.8199 96.2012C70.1698 96.1635 69.9002 95.6335 69.8728 94.7902C70.0997 94.3578 70.2818 93.8909 70.4537 93.3446C70.939 93.0404 72.2708 90.5307 72.6217 90.1228C73.0673 89.8237 73.2891 89.3517 73.4265 88.8502C71.9239 89.0831 70.9534 89.6914 69.4905 89.9192C68.9757 90.3078 68.8088 90.8938 68.1048 91.0647C68.1811 91.6598 68.0336 92.082 67.6572 92.2916C68.002 93.0942 66.0782 95.0749 66.1148 95.6751C66.2806 96.3394 65.9937 96.6181 65.8859 97.0352C65.3355 97.1461 65.1381 97.494 64.5878 97.6049C64.3131 97.0352 63.7048 96.0646 64.1341 95.324C64.246 94.6241 66.1393 92.4054 66.0275 91.5326C65.4262 91.2467 64.5951 91.9985 63.7771 92.2243C62.8005 92.4704 61.888 92.5874 61.1189 92.565C60.649 89.8426 64.2574 90.3077 65.7122 89.0727L67.0215 88.9049C67.9228 88.3861 68.4213 87.556 68.8802 86.731C68.9331 86.1999 69.6127 86.1531 69.4865 85.4837C66.575 85.7359 64.1741 87.4551 60.6816 87.5801C60.1211 87.6116 59.353 87.9117 59.0631 87.223C58.6755 85.4579 61.292 86.0501 62.1181 85.2587C65.2871 84.8122 67.9586 83.9455 70.9882 83.3556C71.9435 82.6282 73.3708 80.5499 74.2112 79.555C74.4584 79.2814 74.8002 79.1166 74.8684 78.7045C76.2458 78.1247 77.4535 75.5906 79.2836 76.9692C79.425 77.7576 78.8105 77.9976 78.9519 78.7861C78.3618 78.902 78.3486 79.428 77.4503 79.3415C77.1146 79.8684 75.5163 81.2428 75.2304 81.844C75.3657 82.2703 76.1928 81.8013 76.6048 81.8695C76.6282 81.4229 77.5072 81.6732 77.8887 81.5033C78.964 81.0832 79.8695 78.7088 80.8054 78.1452C80.8116 76.9346 81.9418 76.6285 81.9978 75.4921C82.7852 75.0282 83.3143 74.4362 83.7039 73.7007ZM76.6505 83.7993L74.151 84.1197C73.8793 84.5175 73.5629 84.8806 72.7145 84.8684C72.1814 85.7433 71.1508 86.198 71.105 87.4136C72.6473 87.1757 73.8314 86.6609 75.2343 86.2795C75.6037 85.3853 76.3758 84.8024 76.6505 83.7993ZM103.516 70.4758C104.508 70.3487 105.235 71.304 105.758 71.9225L105.778 72.0812C105.839 72.5573 105.518 72.8808 105.733 73.2969C105.678 74.7557 104.722 75.4831 104.662 76.9022C103.753 77.9867 102.421 80.4963 102.446 80.6947C101.99 80.5919 101.598 82.2552 100.919 82.6245C100.324 84.2735 98.8846 85.6275 97.97 86.6723C97.619 87.0802 97.4471 87.6265 96.9669 87.9703C96.3097 88.8208 95.389 89.5034 94.7765 90.3884C95.2689 90.7689 96.1001 90.0171 96.7013 90.303C100.102 89.4639 103.742 88.9167 106.636 87.9005C108.856 86.9707 111.995 86.2862 114.637 85.504C115.881 85.1429 117.115 84.7024 118.374 84.4603C118.429 84.5743 118.439 84.6536 118.45 84.733C118.536 85.4075 117.46 85.5051 117.009 85.7645C116.861 85.8642 116.891 86.1022 116.703 86.207C115.831 86.6414 115.172 86.8468 114.524 87.4542C112.56 87.8671 110.608 88.6819 108.734 89.1641C108.03 89.3349 107.088 89.5363 106.544 90.0094C104.625 90.4569 102.746 90.8994 101.091 91.5148C99.3452 91.7386 97.5151 91.9328 96.4011 92.6805L95.925 92.7415C94.576 92.9144 93.0989 93.3457 91.5119 93.5491C90.877 93.6305 89.5922 93.6742 89.5108 93.0394C89.46 92.6426 89.9676 91.5694 90.1263 91.549C90.8802 91.4524 90.7886 90.7382 91.4977 90.607C92.0654 89.6874 93.0756 89.074 93.9119 88.3619C94.2873 87.8299 94.6627 87.2978 95.0879 86.84C95.5529 86.3772 96.0839 86.4301 96.2894 85.5166C96.8785 85.0781 97.1542 84.3975 97.6039 83.8157C98.0881 83.189 98.8603 82.6061 99.2896 81.8655C99.3883 81.6916 99.313 81.4189 99.4117 81.245C99.545 81.0262 99.9265 80.8564 100.094 80.5929C100.297 80.2846 100.365 79.8726 100.528 79.5695C100.626 79.3955 101.526 78.2317 101.521 78.1921L101.511 78.1127C101.807 77.5908 101.963 76.9255 102.488 76.6163C102.534 75.4006 103.425 74.8024 103.247 73.4138C103.034 73.3202 102.83 73.306 102.592 73.3365C101.005 73.5399 99.9236 75.1706 98.3336 75.9793C97.6499 76.3089 96.6275 77.7707 95.3578 77.9335C94.4453 78.0504 94.1066 77.6099 93.6233 76.9863C94.0303 75.442 95.6957 74.9059 96.9134 74.024C97.9969 73.0382 99.5728 72.433 100.651 71.4076C101.638 71.2408 102.643 70.5877 103.516 70.4758ZM134.496 60.8593C135.131 60.7779 135.138 61.4626 135.531 61.6945C135.623 62.7312 134.713 63.4931 134.338 64.3476C134.181 64.6905 134.226 65.0476 134.063 65.3507C133.556 66.424 132.631 67.3894 132.352 68.6752C131.783 68.9499 131.964 69.7332 131.771 70.1208C131.702 70.2103 131.464 70.2408 131.395 70.3304C131.272 70.6284 131.283 71.0303 131.16 71.3283C131.066 71.542 130.735 71.7861 130.641 71.9998C130.513 72.2581 130.489 72.7048 130.406 72.9977C130.13 73.6783 129.652 74.6671 129.372 75.6305C129.989 76.0354 130.773 76.1769 131.118 76.9795C131.03 77.5553 130.801 78.593 130.245 78.6642C129.452 78.7659 129.696 77.5248 128.863 77.6315C127.872 78.0812 127.955 79.361 127.228 79.9784C127.319 80.6926 126.963 81.0609 126.647 81.424C126.501 82.4912 126.003 83.3213 125.638 84.2552C125.309 85.1443 125.009 85.949 124.644 86.8829C124.516 87.1413 124.234 87.4597 124.222 88.3081C124.362 88.4516 124.486 88.476 124.644 88.4556C124.962 88.4149 125.328 88.126 125.764 88.0701C125.963 88.0447 126.116 87.9847 126.162 88.3417C126.376 90.0081 124.857 89.7995 124.934 90.7171C124.186 90.8534 123.596 91.2919 122.922 91.3783C122.049 91.4902 121.854 90.9103 121.783 90.3549C121.645 89.2836 122.248 88.3192 122.145 87.2032C122.229 87.2327 122.269 87.2277 122.309 87.2226C122.745 87.1666 122.52 86.6712 122.828 86.5512C123.229 83.3944 124.948 80.7546 126.006 77.9977C125.787 77.8644 125.544 77.8552 125.346 77.8807L124.433 77.9976C121.973 78.3129 116.01 79.9241 116.076 80.4399C115.867 80.386 115.624 80.3768 115.386 80.4073C114.87 80.4734 114.251 80.6738 113.695 80.745C113.14 80.8162 112.569 80.7684 112.478 80.0542C112.315 78.7846 113.679 78.7307 113.78 77.629C114.239 76.804 115.095 76.2506 115.415 75.2821C116.411 74.8722 116.467 73.7358 117.458 73.2862C118.026 72.6891 118.707 71.392 119.54 71.2852C120.068 70.3707 120.589 68.7715 121.779 68.6189C122.255 68.5579 122.371 69.1479 122.412 69.4653C122.656 71.3698 119.864 73.1795 119.025 74.8194C118.252 75.0798 117.071 76.5619 116.795 77.2425C116.86 77.4358 117.024 77.4551 117.222 77.4297C117.461 77.3992 117.728 77.2843 117.926 77.2588C118.006 77.2487 118.09 77.2782 118.17 77.268C120.157 76.7309 122.553 76.5448 124.367 75.9091C124.928 75.8776 125.305 75.9905 125.861 75.9193C126.218 75.8735 126.391 75.6497 126.748 75.604L126.867 75.5887C127.361 75.0414 127.637 74.3608 127.773 73.5368C128.34 72.2947 128.643 70.8847 129 70.8389L129.159 70.8186C129.327 70.5551 129.226 70.0841 129.618 69.9936C130.144 68.4341 131.289 65.1014 132.261 64.8155C132.395 63.3465 133.33 62.4605 133.947 61.2926C134.224 61.257 133.742 60.9559 134.496 60.8593ZM167.958 77.7019C169.096 76.5076 169.841 75.0813 170.665 73.6449C170.69 73.8433 171.192 75.5534 170.353 77.1933C169.283 79.2258 166.884 81.59 166.691 81.6551L166.701 81.7344C166.712 82.1363 165.932 81.712 165.978 82.0691C166.023 82.4262 163.055 83.4922 162.862 83.8798C162.785 84.535 161.673 84.3549 161.636 85.0049C159.93 85.2236 159.972 86.186 158.703 86.3487C158.004 86.5593 157.509 87.1066 156.795 87.1981C156.2 87.2744 156.326 87.9438 155.82 88.0892C153.025 88.9315 150.291 90.5723 146.205 91.0961C144.697 91.2893 142.966 91.3096 141.328 91.1163C140.751 90.7063 140.184 90.3756 139.474 90.1843C138.161 89.0622 137.09 87.6267 136.364 85.7437C136.114 83.4771 135.717 81.6327 135.978 79.5828C135.968 79.5034 136.294 79.2196 136.289 79.1799C136.832 76.4892 137.445 72.7811 139.02 70.2806C139.383 69.0242 140.328 68.2175 140.736 66.9957C141.583 66.363 141.763 65.2511 142.794 64.7964C142.976 64.3294 143.143 63.7434 143.573 63.3253C143.682 63.2307 144.158 63.1697 144.132 62.9713C144.122 62.892 144.067 62.778 144.062 62.7384C144.047 62.6193 144.592 62.4688 144.76 62.2053C145.22 61.7028 145.501 61.0619 146.114 60.4993C146.797 59.8473 147.718 59.1647 148.33 58.2796C149.949 57.064 151.478 55.7792 153.096 54.5635C154.132 54.1485 154.68 53.3927 155.805 53.0468C155.756 52.9726 155.75 52.9329 155.74 52.8535C155.72 52.6948 155.839 52.6796 155.998 52.6592L156.315 52.6185C156.672 52.5728 156.716 52.2849 157.018 52.1252C157.816 51.7407 158.456 51.699 159.665 51.3826C159.977 51.3023 160.24 51.1476 160.518 51.112C161.47 50.99 162.498 51.4631 163.352 51.515C164.669 52.3543 164.446 54.0766 165.271 54.5355L165.394 55.4877C165.551 56.7176 165.569 57.8041 165.453 58.7868C164.891 59.7461 164.413 60.735 163.89 61.6892C163.812 62.3443 163.238 62.5793 163.11 63.1602C161.932 65.6098 160.783 66.0798 160.779 66.3626C160.73 66.6108 160.626 66.7451 160.348 66.7807L160.269 66.7909C160.078 67.501 159.271 68.1286 158.358 68.2456C158.001 68.2914 157.322 68.3381 157.261 67.862C157.113 66.7114 158.075 66.3462 158.772 65.8132C159.472 64.3524 160.575 63.2028 161.589 61.9841C161.541 60.9821 162.617 60.8844 162.47 59.7339C163.138 59.2852 163.185 58.392 163.759 57.8346C163.806 57.2639 163.794 56.5395 163.713 55.9047C163.321 52.8497 161.493 53.6889 160.022 52.9096C159.373 53.1945 158.5 53.3063 157.806 53.5566C157.216 53.6725 157.124 54.2086 156.758 54.4975C156.554 54.4833 156.43 54.4589 156.271 54.4792C155.676 54.5555 155.534 55.0173 154.899 55.0987C154.478 55.2737 154.578 55.7447 154.063 55.8108C154.023 55.8159 153.904 55.8311 153.82 55.8016C153.197 56.6073 152.599 57.2889 151.782 57.8372C151.535 58.1109 150.84 58.0386 150.901 58.5147C149.757 59.3468 148.818 60.5157 147.764 61.417C147.165 61.7761 147.187 62.5798 146.404 62.7608C145.54 64.2023 144.15 65.3081 143.236 66.6753C142.326 67.7598 141.379 69.4943 140.644 70.6774C140.705 71.1535 140.621 71.4465 140.264 71.4922L140.145 71.5075C140.107 71.8351 140.202 72.2664 139.805 72.3173C139.21 72.3935 139.245 75.4943 138.596 75.7791C138.96 76.418 138.058 76.6143 138.124 77.1301C138.22 77.884 138.108 78.5839 137.659 79.1657C137.698 80.7334 137.648 82.2319 137.469 83.6663C138.421 86.6898 139.298 87.8679 142.439 89.4011C143.153 89.3096 143.798 89.3076 144.235 89.5741C146.57 88.9119 149.357 88.6353 151.558 87.8694C151.845 87.5906 152.444 87.2315 152.92 87.1705C153.119 87.1451 153.282 87.1644 153.412 87.2285C153.87 86.4035 154.652 87.1502 155.551 85.9864C156.354 85.6416 157.172 85.4158 157.979 85.1106C159.534 84.0242 161.267 83.0761 163.001 82.128C164.639 80.7486 166.648 79.1199 167.958 77.7019ZM183.747 53.1353C184.446 52.9247 184.799 53.1617 185.147 53.3591C185.647 54.4243 185.016 55.7956 184.388 56.5616C184.447 57.9655 183.521 58.6084 183.451 59.9482C183.09 60.2768 182.779 60.6796 182.462 61.0428C182.682 61.4986 182.157 61.8078 181.989 62.0713C181.535 62.936 181.186 63.9889 180.405 64.8149C180.299 65.877 179.513 66.6634 179.04 67.6919C178.976 67.8211 178.876 67.6725 178.867 67.9157C178.887 68.0744 178.562 68.6807 178.433 68.9391C178.108 69.5454 177.614 70.4152 176.972 71.0621C177.142 71.7661 176.687 71.9859 176.325 72.3144C176.259 73.3714 175.393 73.8455 175.331 74.9421C174.185 76.3796 173.312 78.0642 172.663 79.9218C173.264 80.2077 174.241 79.9615 174.664 80.4315C175.398 80.4987 176.261 80.3075 176.818 80.5588C179.026 80.8 181.322 80.4653 183.753 80.2345C185.871 80.084 188.147 79.9132 190.22 79.4056C191.509 79.0791 192.657 78.2866 193.957 78.362C195.499 77.8015 196.602 76.9744 198.373 76.6266C198.963 76.5106 199.06 76.0142 199.427 75.7253C200.156 75.7528 200.09 75.237 200.725 75.1556C201.723 75.3907 201.095 77.7294 199.543 78.2106C197.828 78.6724 196.105 79.6998 194.201 80.2664C194.082 80.2816 193.919 80.2623 193.805 80.3172C189.925 81.8227 183.715 82.4573 178.641 82.8254C177.991 83.1102 178.064 82.4154 177.484 82.6107C175.172 82.8263 173.454 82.3206 171.079 82.6654C170.499 82.8607 170.332 83.4467 170.071 83.9238C169.675 84.2972 169.324 84.7051 169.107 85.2168C168.146 85.582 167.403 86.0804 166.347 86.3368C165.859 85.6735 165.948 84.1699 165.737 83.1485C166.234 81.9959 167.264 81.2187 168.075 80.3082C168.784 80.177 169.31 80.1902 169.806 80.2879C170.617 79.3775 171.333 78.3581 171.741 77.1364C172.642 76.2951 172.602 74.7274 173.637 73.9899C173.995 72.6938 174.716 71.7142 175.348 70.6653C175.435 70.0895 175.91 69.706 176.132 69.234C176.162 69.1496 176.047 68.882 176.081 68.8372C176.265 68.6928 176.754 68.1058 176.912 67.763C176.941 67.6786 176.831 67.4507 176.866 67.4059C177.078 67.177 177.499 66.6796 177.696 66.3317C177.765 66.2421 177.611 65.9797 177.645 65.9349C178.214 65.3378 178.574 64.6867 178.923 63.6338C178.952 63.5493 179.087 63.6531 179.056 63.4151C179.05 63.0529 179.593 62.2574 179.815 61.7854C180.298 60.8362 180.861 59.8769 181.22 58.9033C181.452 58.5107 181.644 58.1231 181.827 57.6561C182.107 57.0152 182.175 56.2807 182.535 55.6297C182.564 55.5452 182.877 55.4649 182.866 55.3855C182.936 55.296 182.791 55.1129 182.821 55.0285C182.89 54.9389 183.157 54.824 183.192 54.7792C183.27 54.4466 183.1 54.0651 183.467 53.7762C183.471 53.4933 183.743 53.4181 183.747 53.1353ZM209.217 74.9946C208.778 75.6559 207.057 75.7555 206.727 76.6446C206.612 76.3771 205.458 77.1298 205.449 77.373C204.563 78.0108 203.319 78.3719 202.343 78.9405C202.201 79.4024 201.798 79.0911 201.417 79.261C201.342 79.3108 200.986 79.6791 200.912 79.7289C199.94 80.0147 198.883 79.9486 198.076 80.2538C197.891 79.7532 197.221 79.8794 197.179 79.2395C196.929 78.5456 196.962 77.8559 197.075 77.4785C197.335 76.6789 198.119 74.9251 198.692 74.3676C199.79 73.1784 200.869 70.5802 202.056 69.4602C202.119 69.0085 202.535 68.7939 202.911 68.5843C202.88 68.0238 203.435 67.9526 203.543 67.5355C203.87 67.2517 204.112 66.9383 204.394 66.6199C204.73 66.4155 204.535 65.8356 205.275 65.9424C206.058 65.7614 205.902 66.7492 206.374 66.971C206.329 68.1867 205.164 68.5376 204.984 69.6495C204.037 70.1337 203.992 71.3494 203.309 72.0015C202.368 72.5254 201.705 74.5864 200.903 75.2537C200.534 76.148 199.498 76.563 199.492 77.7736C200.351 78.1877 201.455 77.3606 201.915 76.8581C203.328 76.556 204.358 75.7788 205.358 75.086C206.318 74.3984 207.214 73.8399 208.17 73.1126C208.923 72.6934 208.851 72.138 209.475 71.6548C210.278 71.3099 210.98 70.4941 211.961 70.2876C212.555 71.4616 211.994 72.7434 210.325 73.8848C210.098 74.3171 209.489 74.5969 209.217 74.9946ZM210.306 56.4256C210.057 54.804 209.854 53.217 211.844 53.3249C212.337 54.0279 212.589 55.0442 212.805 56.1052C212.376 56.8458 210.981 56.6617 210.306 56.4256ZM232.301 66.3095C232.441 66.4529 231.299 67.93 231.176 68.2281C229.865 69.3237 222.234 75.5443 221.137 75.4833C221.149 76.2076 220.051 75.824 219.934 76.4843C220.255 77.411 220.699 78.3622 221.431 79.0347C221.501 79.2677 221.447 79.4762 221.478 79.7143C221.493 79.8333 221.553 79.9869 221.712 79.9666C221.692 80.1304 221.673 80.2942 221.698 80.4925C222.136 83.9046 221.166 86.4082 220.665 89.7389C220.116 90.1722 219.857 91.2943 219.367 91.8813L219.438 92.4368L219.107 92.6809L219.153 93.038C218.44 93.7745 218.126 94.7826 217.543 95.5832C217.029 96.2943 216.232 96.6788 215.857 97.5334C214.867 98.3055 214.325 99.4235 213.514 100.334L212.945 100.609C212.663 100.927 211.001 102.753 210.953 103.001C209.051 104.213 205.744 106.411 203.522 106.696C202.729 106.798 201.965 106.815 201.151 106.758C200.752 106.164 200.249 105.704 199.781 105.199L199.756 105.001C199.629 104.009 199.219 103.013 199.087 101.982C198.955 100.95 199.134 99.5155 199.324 98.483L199.502 98.2988C199.613 97.2765 199.949 96.7495 200.358 95.8502L200.281 95.2551L200.618 95.0506C200.819 94.4199 201.056 93.7444 200.969 93.0699C201.772 92.7251 201.59 91.6192 202.258 91.1706C202.444 90.4209 202.744 89.6162 203.363 89.0933C203.513 87.7433 204.403 86.8227 204.652 85.6213C204.944 85.3822 204.878 84.8664 205.309 84.7708C205.234 84.4982 205.402 84.2347 205.63 84.1248L205.584 83.7677L205.941 83.722C206.45 82.9712 207.229 81.5002 207.479 80.6212C208.632 79.546 208.889 77.7789 210.316 76.9509C210.657 74.8908 214.076 71.9926 214.517 70.4036C214.993 70.0201 218.479 64.8146 218.903 64.0343C220.027 63.366 221.066 60.7729 222.3 60.3324C222.702 58.7485 224.312 57.776 224.669 56.1575C225.119 55.8981 226.083 54.6051 226.202 54.5898L226.08 53.6376C227.006 52.9947 227.533 50.1849 228.525 50.0578C229.205 50.3335 229.311 50.8442 229.67 51.4434C229.415 52.2827 229.323 53.1413 229.231 53.9999C228.465 54.9449 227.878 56.0284 227.117 57.0131L226.741 57.2227C226.652 57.476 226.485 57.7394 226.262 57.889C225.904 59.185 224.191 60.6143 223.471 61.9164C222.679 62.3406 222.354 63.2694 221.562 63.6936C221.182 64.5085 218.164 68.6458 217.563 68.6824C217.476 69.2582 217.612 70.0069 216.759 69.955C216.915 70.8625 216.073 71.2124 215.668 71.8289L215.541 72.4098L215.144 72.4606L215.195 72.8574C214.992 73.1656 214.656 73.3701 214.538 73.7078C214.906 74.0639 215.659 73.6448 216.096 73.9113C216.702 74.2369 217.363 74.3539 217.964 74.6398C221.12 73.1465 224.796 71.6267 227.155 68.9452C227.645 68.6807 227.922 68.3226 228.412 68.0581C228.684 67.6604 229.134 67.401 229.272 66.8994C230.327 66.3206 230.651 65.3918 231.96 65.224L232.159 65.1986C232.12 65.5262 232.299 65.6645 232.335 65.9423C232.345 66.0216 232.331 66.2251 232.301 66.3095ZM214.291 75.8767C214.014 75.9123 213.701 75.9927 213.702 76.3152C213.97 76.2002 214.263 76.2837 214.541 76.2481C214.739 76.2226 214.893 76.1626 214.862 75.9246L214.807 75.8106L214.291 75.8767ZM201.66 104.757C202.42 105.022 203.258 104.633 204.012 104.859C205.626 103.603 207.444 102.685 209.212 101.692C210.111 100.528 211.813 99.0195 213.026 98.0979C213.959 96.5669 215.469 95.4458 216.372 93.9992C216.969 92.9952 219.098 88.2057 219.271 87.9819C219.235 87.7042 219.368 87.4855 219.596 87.3756C219.427 85.7438 220.504 84.0734 220.275 82.288C220.173 81.4945 219.455 78.7234 218.784 78.2045C218.638 77.6989 218.235 77.3876 218.055 76.9267L217.659 76.9776C216.476 77.8148 214.764 77.9938 213.416 78.4892C212.766 78.4515 212.136 78.25 211.461 78.3365L211.069 78.427C210.65 79.247 210.186 80.0323 209.628 80.7088C209.53 81.2053 207.846 83.8004 207.534 83.8807L207.61 84.4759C207.378 84.8685 206.938 85.2073 206.964 85.7281C206.409 85.7993 206.579 86.1808 206.506 86.5532L206.134 86.8024L206.18 87.1595L205.848 87.4036C205.557 87.9652 204.06 91.3833 204.061 91.7058L203.724 91.9103C203.374 92.6407 202.272 95.6855 201.911 96.014C201.755 97.0019 201.575 98.1138 200.908 98.8849C200.986 100.125 200.821 101.356 200.815 102.567C201.373 103.14 201.212 104.088 201.66 104.757ZM244.731 68.2249C244.741 68.3042 244.914 69.6532 244.82 69.8668C244.347 70.8953 239.472 74.706 236.522 75.2858C234.042 75.7649 231.665 75.4647 230.025 74.6264C229.097 74.6243 228.643 73.5937 228.63 72.8694C228.37 72.0962 228.005 71.1349 228.126 70.1918C228.126 70.1918 228.274 70.0921 228.259 69.9731C228.327 69.5611 228.718 67.5753 229.169 67.3159C229.296 66.735 229.418 66.1145 229.948 65.8449C230.247 64.7177 231.257 64.1043 231.696 63.1206C232.706 62.5072 233.677 61.8989 234.329 61.0087C235.733 60.9498 236.197 60.1644 237.511 60.0363C238.122 60.4015 238.228 60.9122 238.285 61.6711C238.326 61.9885 238.236 61.9194 238.177 62.0882C238.054 62.3863 238.22 63.0506 237.948 63.4484C238.147 64.9957 236.897 66.8899 236.956 68.2938C236.436 68.6427 236.146 69.5268 235.845 70.009C235.544 70.4912 235.009 70.7211 234.837 71.2673C233.965 71.7017 233.581 72.4769 232.709 72.9113C233.37 73.3508 234.353 73.4668 234.929 73.5543L235.325 73.5034C237.413 73.1149 240.379 71.4039 241.888 69.9603C242.21 69.6368 242.952 69.1384 243.289 68.9339C243.631 68.7691 244.334 68.2757 244.731 68.2249ZM236.1 62.5561C235.63 62.9793 235.094 62.8867 234.797 63.0861C233.727 63.8684 233.245 65.14 232.235 65.7534C231.689 67.1542 230.193 69.6446 230.413 71.6731C231.013 71.6365 231.686 71.2276 231.909 71.078C232.35 70.7393 232.607 70.545 232.963 70.1767C234.031 69.072 235.228 66.136 235.795 64.8939C236.081 64.2927 236.441 63.6416 236.344 62.8878C236.289 62.7738 236.259 62.5358 236.1 62.5561Z" fill="#C15627"/>
</svg>
