<svg width="22" height="24" viewBox="0 0 22 24" fill="none" xmlns="http://www.w3.org/2000/svg">
<path id="Vector" d="M13.6904 19.528V16.6091H7.43336L8.03934 15.9714C9.58118 14.3487 13.6885 9.89433 14.1729 8.78479C14.5012 8.033 14.3944 7.11492 13.9013 6.44567C13.5387 5.95383 12.807 5.36735 11.3796 5.36735C10.5864 5.36735 8.69463 5.64619 8.26084 8.22906L7.43204 8.11191C7.98001 4.85107 10.5922 4.59765 11.3796 4.59765C12.7801 4.59765 13.9224 5.10086 14.5956 6.01434C15.2504 6.90241 15.3865 8.07366 14.9511 9.07089C14.4329 10.2574 10.7465 14.2623 9.27133 15.8392H13.6901V12.9397H14.5284V15.8392H16.7168V16.6087H14.5284V19.5275H13.6901L13.6904 19.528ZM21.3953 19.7608C19.5948 21.3269 16.62 23.1933 12.6728 23.1933C9.37444 23.1933 6.36671 22.0586 4.20281 19.9978C2.05921 17.9566 0.878903 15.1489 0.878903 12.0919C0.878903 5.44747 5.70799 0.806737 12.6224 0.806737C15.8582 0.806737 18.7302 1.8865 21.4027 4.10775L21.9926 3.50966C19.1908 1.18094 16.0383 0 12.6224 0C5.19062 0 0 4.97234 0 12.0919C0 19.2114 5.44825 24 12.6728 24C16.9093 24 20.0832 22.0131 22 20.3463L21.3953 19.7608Z" fill="#647B4E"/>
</svg>
