<svg width="918" height="1177" viewBox="0 0 918 1177" fill="none" xmlns="http://www.w3.org/2000/svg">
<path opacity="0.2" d="M663.361 957.684V814.54H360.18L389.543 783.262C464.252 703.683 663.271 485.234 686.743 430.821C702.651 393.952 697.476 348.928 673.583 316.106C656.014 291.986 620.557 263.224 551.393 263.224C512.959 263.224 421.294 276.899 400.275 403.567L360.116 397.821C386.668 237.905 513.24 225.476 551.393 225.476C619.253 225.476 674.605 250.155 707.225 294.953C738.951 338.505 745.544 395.946 724.449 444.852C699.342 503.04 520.715 699.446 449.238 776.781H663.348V634.586H703.967V776.781H810.006V814.517H703.967V957.661H663.348L663.361 957.684ZM1036.7 969.104C949.458 1045.9 805.317 1137.44 614.053 1137.44C454.234 1137.44 308.496 1081.79 203.645 980.725C99.7782 880.622 42.5868 742.927 42.5868 593.005C42.5868 267.153 276.578 39.5637 611.613 39.5637C768.403 39.5637 907.561 92.5172 1037.06 201.451L1065.64 172.119C929.883 57.9152 777.13 0 611.613 0C251.509 0 0 243.852 0 593.005C0 942.158 263.992 1177 614.053 1177C819.334 1177 973.122 1079.56 1066 997.818L1036.7 969.104Z" fill="#E9E4E0"/>
</svg>
