<svg width="624" height="1337" viewBox="0 0 624 1337" fill="none" xmlns="http://www.w3.org/2000/svg">
<path opacity="0.4" d="M221.361 1087.84V925.245H-81.8198L-52.4575 889.715C22.2516 799.321 221.271 551.183 244.743 489.374C260.651 447.494 255.476 396.35 231.583 359.068C214.014 331.67 178.557 298.999 109.393 298.999C70.9588 298.999 -20.7058 314.532 -41.7245 458.415L-81.8837 451.889C-55.3324 270.238 71.2399 256.121 109.393 256.121C177.253 256.121 232.605 284.153 265.225 335.04C296.951 384.512 303.544 449.759 282.449 505.311C257.342 571.408 78.7146 794.508 7.23822 882.353H221.348V720.833H261.967V882.353H368.006V925.218H261.967V1087.82H221.348L221.361 1087.84ZM594.702 1100.81C507.458 1188.05 363.317 1292.03 172.053 1292.03C12.2341 1292.03 -133.504 1228.81 -238.355 1114.01C-342.222 1000.31 -399.413 843.898 -399.413 673.6C-399.413 303.462 -165.422 44.9408 169.613 44.9408C326.403 44.9408 465.561 105.091 595.059 228.83L623.642 195.512C487.883 65.7865 335.13 0 169.613 0C-190.491 0 -442 276.994 -442 673.6C-442 1070.21 -178.008 1336.97 172.053 1336.97C377.334 1336.97 531.122 1226.28 624 1133.43L594.702 1100.81Z" fill="#E9E4E0"/>
</svg>
