<svg width="36" height="37" viewBox="0 0 36 37" fill="none" xmlns="http://www.w3.org/2000/svg">
<g clip-path="url(#clip0_1404_8578)">
<path d="M18.0004 0.775391C11.1119 0.775391 5.50781 6.38031 5.50781 13.269C5.50781 19.8999 16.8426 35.3922 17.3252 36.0482L17.7756 36.6612C17.8283 36.7333 17.9122 36.7754 18.0004 36.7754C18.09 36.7754 18.1734 36.7333 18.2266 36.6612L18.6767 36.0482C19.1596 35.3922 30.4941 19.8999 30.4941 13.269C30.4941 6.38031 24.8891 0.775391 18.0004 0.775391ZM18.0004 8.79381C20.4686 8.79381 22.4756 10.8009 22.4756 13.269C22.4756 15.7358 20.4685 17.7442 18.0004 17.7442C15.5337 17.7442 13.5252 15.7358 13.5252 13.269C13.5252 10.8009 15.5336 8.79381 18.0004 8.79381Z" fill="#1A4122"/>
</g>
<defs>
<clipPath id="clip0_1404_8578">
<rect width="36" height="36" fill="white" transform="translate(0 0.775391)"/>
</clipPath>
</defs>
</svg>
