<svg width="564" height="1218" viewBox="0 0 564 1218" fill="none" xmlns="http://www.w3.org/2000/svg">
<path d="M559.602 1217.34C559.343 1217.48 559.06 1217.6 558.761 1217.68C557.697 1217.96 556.567 1217.75 555.681 1217.11C516.196 1188.87 478.218 1157.87 442.804 1124.98C430.962 1113.98 419.367 1102.73 408.038 1091.27C404.951 1088.58 402.242 1085.8 399.918 1082.96C391.83 1074.6 383.873 1066.13 376.074 1057.55C370.833 1057.44 366.007 1056.59 361.701 1055.01C321.546 1040.25 296.602 1021.3 287.567 998.705C280.236 980.369 285.672 965.426 287.721 959.794C287.919 959.239 288.132 958.667 288.186 958.458C288.413 957.597 288.692 956.754 289.01 955.936C271.627 952.028 255.889 938.049 246.835 923.928C235.578 906.364 232.563 886.205 238.039 867.933C231.35 856.194 224.904 844.352 218.717 832.423C211.818 819.13 204.319 803.285 200.952 786.577C197.232 768.09 199.018 751.236 206.419 735.055C210.445 726.252 216.329 717.706 223.578 709.85C221.788 709.964 220.153 708.787 219.83 707.061C214.904 680.94 196.902 648.096 167.991 611.818C167.858 618.519 166.302 625.29 162.103 631.445C156.311 639.926 146.614 645.602 134.07 647.846C123.585 649.726 111.676 649.121 100.535 646.145C94.3013 644.48 88.1621 642.332 82.2221 640.256C68.8374 635.575 56.1972 631.158 42.3195 631.675C34.5913 631.968 26.9973 633.786 18.9603 635.714C12.1811 637.342 5.16269 639.023 -1.94788 639.697C-18.7102 641.292 -37.8343 634.729 -40.2502 619.426C-41.2678 612.997 -39.0359 606.623 -36.8772 600.454C-34.5215 593.714 -32.2922 587.349 -34.9927 582.379C-38.2788 576.32 -47.0589 575.217 -56.3536 574.053C-65.3556 572.924 -74.6635 571.751 -81.1212 566.065C-86.1832 561.61 -88.2091 555.188 -86.8276 547.981C-84.7772 537.304 -75.6906 526.902 -64.7241 522.681C-48.0362 516.255 -30.3393 519.568 -12.1598 523.853L3.81341 527.621C-20.3231 499.192 -35.6028 465.885 -40.5254 430.745C-40.7064 429.442 -40.0823 428.151 -38.9174 427.44C-37.7488 426.735 -36.259 426.723 -35.0911 427.428C22.0058 461.753 82.9847 510.434 132.208 560.988C140.818 569.83 148.907 578.574 156.462 587.182C145.493 550.102 124.084 515.709 94.2548 487.362C62.6907 457.361 23.1936 435.553 -19.9574 424.301C-28.8004 421.995 -40.6221 420.34 -53.1396 418.582C-91.1167 413.259 -138.375 406.631 -148.741 375.934C-150.777 369.901 -151.83 363.578 -152.85 357.457C-154.363 348.394 -155.792 339.834 -160.136 332.438C-168.012 319.024 -184.574 311.382 -201.304 305.132L-203.83 304.194C-215.521 299.851 -227.614 295.36 -236.555 286.935C-246.236 277.82 -251.528 261.952 -242.914 249.264C-234.203 236.436 -216.218 231.702 -187.917 234.785L-118.29 242.376C-111.094 243.159 -104.197 243.597 -99.0717 240.34C-92.8379 236.388 -91.8867 228.43 -91.7682 225.192C-90.7959 199.017 -117.597 180.577 -139.124 165.762C-153.778 155.676 -164.37 145.98 -171.511 136.127C-181.136 122.829 -184.165 109.391 -180.512 96.1871C-178.801 90.0129 -175.677 84.7154 -171.469 80.8818C-163.314 73.4361 -154.179 70.0896 -144.311 70.9232C-117.953 73.1478 -93.6639 104.909 -81.9881 120.166L-81.6644 120.591C-72.1934 132.971 -62.0217 142.638 -51.2492 152.877C-48.3326 155.652 -45.3078 158.525 -42.2577 161.493C-41.4997 162.228 -40.753 162.985 -40.0161 163.739C-38.1551 153.957 -37.1903 144.339 -37.1122 134.833C-36.84 103.825 -45.9896 72.067 -65.0738 37.7499C-67.7337 32.9687 -70.7465 27.5511 -70.3478 21.2605C-69.9367 14.6105 -66.2391 9.10691 -59.6589 5.33207C-48.5221 -1.0501 -30.1897 -1.53362 -17.0069 4.19878C21.5353 20.9307 43.8371 61.9395 36.0179 101.696C35.5154 104.26 34.8993 106.894 34.3031 109.439C31.7093 120.509 29.262 130.965 34.3127 139.093C40.4041 148.897 54.2055 150.615 68.8141 152.43C81.962 154.061 95.5547 155.76 105.182 163.526C124.431 179.061 116.314 208.366 102.301 230.603C100.737 233.085 98.802 235.919 96.7569 238.924C87.7801 252.085 74.2093 271.972 78.3115 284.249C81.7765 294.619 98.9628 304.269 117.402 311.208C137.149 274.545 170.438 240.432 212.523 241.553C223.419 241.844 233.772 244.307 243.807 246.991C246.503 243.065 249.28 239.219 252.132 235.441C260.71 224.105 271.524 211.68 286.672 205.482C301.589 199.379 322.476 201.345 330.209 215.159C333.352 220.779 333.707 227.376 331.235 234.25C327.788 243.831 319.337 252.473 309.179 256.805C295.549 262.615 279.472 262.979 258.589 257.939C254.677 256.996 250.748 255.929 246.941 254.888C219.311 296.584 200.971 346.277 193.595 399.805C183.729 471.388 186.914 533.312 203.341 589.099C211.823 617.91 221.725 637.651 234.509 651.234C240.471 657.567 247.032 662.569 254.671 666.485C255.579 666.096 256.444 665.745 257.264 665.428C269.107 660.835 289.388 669.7 299.502 675.662C340.841 700.022 366.125 742.462 388.469 783.839C426.165 853.634 459.959 923.561 489.619 993.075C494.192 992.652 498.778 992.387 503.368 992.291C504.927 992.257 506.327 993.195 506.821 994.607C507.315 996.02 506.79 997.57 505.524 998.439C502.014 1000.85 498.46 1003.21 494.884 1005.52C519.039 1063.03 540.344 1120.24 558.673 1176.83C562.849 1189.73 566.478 1203.36 561.113 1215.69C560.813 1216.39 560.271 1216.96 559.605 1217.33L559.602 1217.34ZM435.737 1108.76C439.718 1112.57 443.739 1116.35 447.781 1120.12C481.774 1151.7 518.146 1181.51 555.953 1208.81C558.109 1199.61 555.278 1189.38 551.863 1178.85C547.065 1164.02 542.06 1149.17 536.851 1134.27C507.32 1131.75 474.88 1124.49 449.627 1114.72C444.713 1112.82 440.078 1110.83 435.735 1108.77L435.737 1108.76ZM413.423 1086.81C424.503 1096.25 439.333 1103.41 452.311 1108.43C476.063 1117.62 506.365 1124.53 534.38 1127.22C520.573 1088.16 505.371 1048.83 488.829 1009.37C461.93 1026.18 433.246 1040.35 403.32 1051.62C400.988 1052.5 398.607 1053.37 396.177 1054.17C396.303 1057.13 396.779 1060.28 397.596 1063.62C398.889 1068.9 401.513 1073.77 405.054 1078.24C407.829 1081.11 410.624 1083.97 413.433 1086.81L413.423 1086.81ZM384.991 1056.97C386.667 1058.79 388.355 1060.62 390.049 1062.43C389.62 1060.27 389.316 1058.18 389.152 1056.15C387.781 1056.47 386.394 1056.74 384.997 1056.96L384.991 1056.97ZM396.639 1046.8C398.007 1046.32 399.363 1045.81 400.698 1045.31C430.624 1034.04 459.283 1019.83 486.126 1002.95C485.77 1002.1 485.41 1001.25 485.047 1000.41C463.524 1003.04 442.464 1009.43 423.266 1019.23C416.352 1022.77 407.68 1027.75 401.966 1034.99C399.217 1038.47 397.441 1042.4 396.639 1046.8ZM379.312 1050.74C382.595 1050.6 385.883 1050 389.13 1049.15C389.699 1042.27 392.07 1036.24 396.271 1030.91C402.821 1022.61 412.341 1017.12 419.896 1013.25C439.297 1003.34 460.544 996.778 482.276 993.908C452.871 925.156 419.41 855.994 382.128 786.95C360.239 746.419 335.536 704.882 295.748 681.44C286.241 675.84 273.554 670.995 265.074 670.942C269.464 672.484 274.186 673.773 279.293 674.843C280.846 675.164 281.982 676.428 282.083 677.939C282.185 679.45 281.225 680.839 279.725 681.35C263.711 686.811 248.671 695.833 236.495 706.813C234.378 718.913 232.971 734.07 232.642 750.139C231.982 782.23 235.796 809.095 242.119 817.001C248.067 824.424 253.924 829.703 260.113 832.936C268.576 823.989 278.349 815.819 288.429 807.667C295.032 802.329 303.756 796.647 312.646 800.117C316.288 801.538 319.142 804.427 320.672 808.254C322.546 812.919 322.296 818.368 320.019 822.824C315.97 830.746 307.524 835.053 301.518 837.604C286.347 844.049 273.566 845.343 262.018 841.195C257.151 846.738 252.87 852.594 249.428 858.913C247.963 861.599 246.739 864.371 245.739 867.201C261.14 894.057 277.833 920.358 295.708 945.923C298.134 943.383 300.89 941.076 303.686 938.889C336.368 913.304 375.736 896.467 417.536 890.209C419.186 889.959 420.8 890.843 421.41 892.325C422.014 893.81 421.456 895.495 420.066 896.377C391.083 914.766 360.754 931.897 329.91 947.298C321.214 951.641 312.616 955.616 303.361 956.702C310.412 966.527 317.644 976.244 325.037 985.834C342.146 1008.01 360.281 1029.68 379.309 1050.73L379.312 1050.74ZM295.759 958.14C295.496 958.778 295.282 959.429 295.104 960.098C294.973 960.601 294.755 961.191 294.462 962.011C278.282 1006.47 323.498 1033.68 364.277 1048.68C365.868 1049.27 367.56 1049.72 369.34 1050.07C351.851 1030.49 335.14 1010.38 319.299 989.858C311.256 979.428 303.405 968.852 295.759 958.14ZM301.372 950.095C309.842 949.37 317.838 945.678 326.602 941.298C351.816 928.703 376.689 914.948 400.753 900.291C366.908 908.027 335.21 922.996 308.219 944.128C305.813 946.008 303.447 947.982 301.378 950.092L301.372 950.095ZM243.261 876.954C240.916 891.42 244.185 906.747 252.928 920.382C260.931 932.864 274.509 945.233 289.335 949.036C272.968 925.579 257.574 901.501 243.261 876.954ZM267.142 835.683C276.284 838.13 286.386 836.609 298.625 831.407C306.55 828.045 311.317 824.374 313.621 819.856C315.03 817.091 315.185 813.574 314.026 810.671C313.44 809.215 312.265 807.291 309.958 806.39C304.624 804.309 298.12 808.739 293.051 812.835C283.863 820.26 274.95 827.692 267.148 835.679L267.142 835.683ZM228.022 715.295C221.689 722.341 216.541 729.943 212.966 737.753C197.664 771.205 211.218 802.601 225.121 829.403C230.338 839.46 235.735 849.45 241.314 859.371C241.873 858.163 242.481 856.967 243.125 855.79C246.558 849.484 250.727 843.659 255.43 838.158C248.837 834.435 242.602 828.776 236.47 821.118C225.259 807.117 225.261 763.151 225.532 750.013C225.754 739.198 226.54 726.842 228.026 715.301L228.022 715.295ZM166.845 599.342C200.438 639.815 221.361 676.732 226.86 705.859C226.893 706.037 226.911 706.215 226.915 706.385C227.873 705.427 228.857 704.471 229.854 703.539C231.862 692.791 234.624 683.682 238.284 678.59C240.822 675.056 244.077 672.35 247.405 670.254C223.867 656.505 208.542 631.904 196.479 590.944C179.791 534.252 176.532 471.444 186.527 398.936C193.936 345.162 212.243 295.143 239.798 252.972C230.646 250.562 221.737 248.582 212.321 248.331C191.593 247.781 171.775 256.508 153.411 274.283C140.315 286.96 130.68 301.627 124.144 313.604C126.717 314.469 129.283 315.282 131.817 316.028C132.51 316.235 133.205 316.432 133.904 316.635C139.297 318.19 144.869 319.795 149.363 323.341C154.852 327.671 158.165 335.932 153.494 342.707C150.795 346.628 146.156 348.787 142.77 350.367C137.355 352.889 120.88 360.562 111.219 352.008C105.317 346.777 104.954 338.077 110.149 326.141C111.423 323.207 112.795 320.26 114.247 317.322C97.3331 310.931 76.2208 300.369 71.5272 286.303C66.4026 270.969 80.4992 250.307 90.7882 235.226C92.8017 232.277 94.7012 229.494 96.1951 227.113C108.708 207.26 116.429 181.494 100.58 168.705C92.5562 162.227 80.0192 160.668 67.8907 159.158C52.2299 157.209 36.0351 155.193 28.1782 142.545C21.6923 132.104 24.5678 119.829 27.3505 107.958C27.9588 105.352 28.5351 102.896 29.0222 100.443C36.2464 63.7082 15.6478 25.821 -19.9574 10.3649C-31.0132 5.56249 -46.8357 5.91152 -55.9798 11.1431C-60.5241 13.7437 -62.9635 17.2786 -63.2403 21.6533C-63.516 26.0432 -61.1084 30.3676 -58.7826 34.557C-39.1298 69.8933 -29.7094 102.709 -29.9887 134.872C-30.0887 146.514 -31.4623 158.307 -34.1232 170.338C-21.1 186.108 -11.7657 205.441 -2.69449 224.245C-0.190939 229.433 2.17964 234.335 4.60358 239.12C14.1201 257.899 23.9638 277.312 26.6689 298.982C29.4382 321.165 21.845 348.796 -1.18811 361.461C-1.70023 361.742 -2.21949 362.012 -2.7449 362.285C-15.666 368.818 -32.2224 370.033 -49.37 365.713C-68.0065 361.013 -82.5411 351.3 -90.3109 338.361C-98.7132 324.352 -99.6583 305.49 -92.9756 285.246C-88.1797 270.725 -80.2589 257.016 -72.594 243.753C-71.0914 241.156 -69.5949 238.563 -68.1215 235.959C-55.4307 213.602 -46.7108 192.458 -41.8245 172.074C-43.5995 170.042 -45.4395 168.092 -47.3603 166.226C-50.3829 163.29 -53.3847 160.428 -56.2942 157.664C-67.2673 147.23 -77.6325 137.379 -87.4307 124.568L-87.7543 124.143C-98.8114 109.69 -121.813 79.6182 -144.946 77.6651C-152.776 77.0036 -159.842 79.6511 -166.543 85.7643C-169.8 88.738 -172.249 92.9361 -173.625 97.8996C-179.215 118.099 -166.561 138.497 -134.955 160.25C-112.05 176.007 -83.5468 195.626 -84.6517 225.423C-84.9881 234.477 -88.8029 241.972 -95.1257 245.981C-102.256 250.505 -110.883 250.008 -119.101 249.113L-188.728 241.522C-214.073 238.756 -229.838 242.497 -236.93 252.946C-243.479 262.594 -239.176 274.917 -231.541 282.11C-223.652 289.546 -212.258 293.779 -201.238 297.872L-198.698 298.818C-180.739 305.536 -162.88 313.852 -153.913 329.133C-148.953 337.585 -147.358 347.151 -145.815 356.401C-144.836 362.263 -143.826 368.327 -141.957 373.865C-132.952 400.539 -88.1224 406.826 -52.1031 411.878C-39.3636 413.663 -27.3324 415.351 -18.077 417.767C26.2649 429.328 66.8499 451.737 99.2864 482.566C131.747 513.422 154.525 551.254 165.166 591.985C165.776 594.321 166.362 596.795 166.839 599.346L166.845 599.342ZM253.157 674.83C249.153 677.032 246.275 679.477 244.158 682.419C242.213 685.126 240.408 689.776 238.829 695.87C247.485 689.128 257.164 683.313 267.384 678.837C262.91 677.482 258.679 675.891 254.668 674.039C254.145 674.303 253.645 674.562 253.157 674.83ZM-65.2864 530.48C-72.5424 534.47 -78.4148 541.882 -79.8214 549.197C-80.4772 552.621 -80.3992 557.458 -76.2866 561.08C-71.4882 565.305 -63.3129 566.332 -55.4143 567.324C-44.7102 568.669 -33.6489 570.061 -28.6552 579.262C-24.575 586.78 -27.3913 594.823 -30.1125 602.602C-32.0897 608.256 -33.9587 613.601 -33.2022 618.418C-31.5 629.178 -16.3285 634.256 -2.64708 632.953C3.94321 632.33 10.7003 630.706 17.2279 629.138C25.265 627.21 33.5757 625.218 42.0461 624.9C57.3374 624.326 71.2407 629.184 84.6874 633.886C90.4937 635.919 96.5054 638.019 102.466 639.614C121.026 644.568 145.733 642.969 156.134 627.747C161.386 620.057 161.511 610.736 160.106 602.163C150.154 590.266 139.091 578.042 126.976 565.603C80.0566 517.41 22.3805 470.948 -32.2765 437.201C-25.9944 471.271 -9.56457 503.327 15.5311 530.312C15.5587 530.344 15.5924 530.372 15.6199 530.404L62.3921 541.428C74.9373 544.385 105.314 553.292 116.342 572.109C120.555 579.303 121.328 587.01 118.637 595.015C118.047 596.757 116.111 597.743 114.27 597.244C74.765 586.51 39.3764 565.521 11.7863 536.484L-13.8712 530.435C-31.5128 526.277 -47.3215 523.297 -62.0555 528.97C-63.1555 529.394 -64.2313 529.9 -65.2864 530.48ZM24.6526 539.523C49.2579 562.876 79.411 580.101 112.706 589.737C113.673 584.724 112.815 580.01 110.122 575.419C103.417 563.979 84.9325 553.735 60.6843 548.015L24.6526 539.523ZM120.933 319.733C119.231 323.128 117.834 326.184 116.712 328.744C112.775 337.787 112.556 343.94 116.058 347.044C120.091 350.616 128.015 349.682 139.622 344.279C142.419 342.976 145.895 341.355 147.524 338.994C149.835 335.64 147.953 331.057 144.799 328.569C141.411 325.896 136.755 324.555 131.824 323.138C131.109 322.935 130.397 322.724 129.688 322.518C127.232 321.792 124.25 320.863 120.933 319.733ZM250.975 248.949C254.067 249.787 257.216 250.626 260.327 251.375C279.579 256.018 294.17 255.782 306.256 250.625C314.542 247.087 321.693 239.802 324.481 232.065C325.743 228.543 326.674 223.307 323.905 218.359C318.259 208.271 301.539 206.787 289.468 211.724C275.919 217.262 265.904 228.832 257.898 239.416C255.532 242.542 253.223 245.723 250.975 248.949ZM-36.2484 178.965C-41.4641 198.277 -49.9587 218.232 -61.8536 239.187C-63.3359 241.804 -64.8473 244.413 -66.3587 247.022C-73.8535 259.996 -81.6016 273.406 -86.1857 287.286C-92.2714 305.705 -91.5428 322.649 -84.1327 334.995C-77.3246 346.348 -64.3328 354.927 -47.5515 359.159C-38.6292 361.405 -21.3844 364.027 -6.09339 356.3C15.1767 345.545 22.1238 320.173 19.5864 299.798C17.019 279.251 7.44102 260.357 -1.8204 242.08C-4.27379 237.233 -6.65861 232.308 -9.17026 227.093C-17.2198 210.422 -25.4755 193.316 -36.251 178.974L-36.2484 178.965Z" fill="#F5F3F1"/>
</svg>
