<svg width="705" height="1114" viewBox="0 0 705 1114" fill="none" xmlns="http://www.w3.org/2000/svg">
<path opacity="0.25" d="M2.32124 1265.98C2.0409 1265.85 1.77095 1265.68 1.52809 1265.47C0.659752 1264.73 0.206485 1263.67 0.286483 1262.56C3.86824 1213.21 10.8644 1163.54 21.0787 1114.96C24.4939 1098.71 28.2773 1082.53 32.4217 1066.45C33.148 1062.31 34.1668 1058.45 35.4714 1054.87C38.5915 1043.29 41.8888 1031.75 45.3731 1020.29C42.4761 1015.82 40.5012 1011.28 39.5015 1006.75C30.2054 964.555 33.4876 932.748 49.2597 912.221C62.0557 895.567 79.0149 891.586 85.4056 890.085C86.0336 889.934 86.6851 889.786 86.9103 889.711C87.8379 889.409 88.7785 889.161 89.7186 888.961C83.3932 872.114 87.341 850.886 95.2456 835.195C105.08 815.684 122.036 801.614 142.102 795.76C149.153 783.421 156.438 771.226 163.952 759.2C172.323 745.795 182.715 730.424 196.271 718.034C211.274 704.328 227.914 696.184 247.144 693.146C257.604 691.493 268.892 691.548 280.319 693.146C279.189 691.707 279.344 689.659 280.759 688.4C302.146 669.313 322.281 635.387 339.355 590.328C333.069 594.05 325.905 596.616 317.798 596.609C306.624 596.593 295.815 591.691 286.558 582.432C278.816 574.695 272.562 564.339 268.945 553.271C266.921 547.079 265.397 540.69 263.923 534.509C260.602 520.58 257.462 507.428 249.041 496.06C244.347 489.732 238.317 484.389 231.931 478.737C226.543 473.97 220.969 469.033 216.276 463.443C205.206 450.266 200.344 430.436 213.143 419.648C218.518 415.115 225.702 413.343 232.654 411.627C240.248 409.75 247.422 407.982 250.483 402.868C254.217 396.639 250.214 388.628 245.974 380.15C241.87 371.937 237.63 363.442 239.204 354.761C240.436 347.957 245.228 342.579 252.697 339.616C263.765 335.23 278.603 336.915 288.79 343.718C304.294 354.067 311.351 370.837 317.782 388.57L323.432 404.151C335.965 367.596 358.086 335.694 387.832 311.449C388.936 310.551 390.489 310.337 391.815 310.909C393.137 311.488 394.001 312.733 394.016 314.118C394.88 381.751 384.663 460.862 365.982 531.164C362.715 543.46 359.241 555.264 355.588 566.539C383.672 536.102 403.293 498.425 412.492 457.133C422.231 413.435 419.839 367.757 405.574 325.049C402.65 316.297 397.419 305.413 391.886 293.886C375.087 258.919 354.186 215.405 376.701 189.126C381.126 183.962 386.383 179.459 391.472 175.099C399.005 168.642 406.119 162.542 410.487 154.658C418.41 140.363 416.015 122.069 412.233 104.431L411.656 101.771C408.992 89.4587 406.233 76.7247 408.924 64.3884C411.832 51.0357 423.508 37.5072 440.195 37.487C457.066 37.4682 471.745 49.8759 485.083 75.4286L517.891 138.296C521.283 144.792 524.823 150.84 530.774 153.284C538.004 156.262 545.923 152.508 548.991 150.755C573.804 136.593 575.555 103.514 576.966 76.9428C577.927 58.8543 580.851 44.4038 585.895 32.7629C592.71 17.0636 603.43 6.82753 617.756 2.34266C624.457 0.248136 631.153 -0.158075 637.114 1.1852C648.68 3.77957 657.009 9.54289 661.883 18.3139C674.904 41.7416 659.371 80.3315 651.914 98.8757L651.705 99.3911C645.653 114.436 642.514 128.517 639.191 143.431C638.288 147.47 637.357 151.657 636.351 155.919C636.104 156.977 635.83 158.037 635.553 159.088C645.682 155.055 655.147 150.362 664.001 144.988C692.892 127.473 717.085 101.61 737.966 65.932C740.874 60.9604 744.171 55.328 750.228 52.0634C756.626 48.6037 763.842 48.5622 771.105 51.933C783.392 57.6417 794.331 72.7739 796.562 87.1346C803.112 129.105 777.872 171.316 736.556 187.494C733.893 188.539 731.099 189.528 728.4 190.483C716.657 194.638 705.567 198.564 700.925 207.46C695.325 218.191 701.631 230.774 708.309 244.091C714.321 256.076 720.524 268.473 718.837 281.009C715.456 306.078 683.655 316.024 655.029 316.971C651.834 317.076 648.101 317.072 644.146 317.072C626.813 317.059 600.619 317.032 591.589 327.505C583.962 336.352 584.855 356.319 588.976 375.788C634.251 371.406 684.911 379.866 707.955 415.881C713.92 425.206 717.562 435.318 720.817 445.288C725.998 445.307 731.151 445.441 736.284 445.677C751.697 446.4 769.399 448.379 783.811 457.564C798.003 466.611 808.133 485.292 799.757 499.696C796.348 505.554 790.438 509.627 782.653 511.483C771.802 514.068 758.958 511.91 749.131 505.851C735.946 497.719 726.41 484.414 719.13 463.978C717.766 460.15 716.506 456.236 715.292 452.441C660.843 453.077 604.299 466.098 550.475 490.528C478.495 523.197 422.933 561.309 380.637 607.039C358.792 630.655 346.164 650.275 340.893 668.792C338.435 677.427 337.555 685.805 338.297 694.466C339.178 695.006 339.997 695.533 340.76 696.04C351.793 703.367 355.184 725.486 355.446 737.399C356.529 786.085 331.668 831.622 306.111 874.08C263.004 945.703 217.542 1014.12 170.098 1078.83C173.106 1082.43 175.976 1086.13 178.691 1089.94C179.615 1091.23 179.547 1092.94 178.521 1094.17C177.495 1095.39 175.758 1095.83 174.228 1095.27C169.989 1093.7 165.767 1092.06 161.579 1090.38C122.103 1143.59 81.2795 1194.23 39.3276 1242.02C29.762 1252.92 19.2115 1263.76 4.71129 1266.31C3.89229 1266.46 3.05219 1266.33 2.33132 1265.98L2.32124 1265.98ZM32.0626 1099.74C30.8081 1105.27 29.6037 1110.81 28.4295 1116.36C18.6175 1163 11.7998 1210.64 8.13785 1258.03C17.8969 1254.58 25.7604 1246.35 33.5659 1237.45C44.5565 1224.93 55.4549 1212.23 66.2847 1199.32C51.7193 1173.06 39.8866 1141.64 34.4855 1114.83C33.4382 1109.61 32.6272 1104.57 32.0525 1099.74L32.0626 1099.74ZM39.6336 1068.42C37.2236 1083.14 39.074 1099.7 41.8535 1113.48C46.9299 1138.7 57.8651 1168.13 71.4017 1193.21C99.6972 1159.26 127.441 1123.98 154.542 1087.49C123.577 1074.5 94.0292 1058.5 66.4619 1039.79C64.3163 1038.33 62.1408 1036.84 60.013 1035.25C57.3397 1037.05 54.6965 1039.25 52.0666 1041.85C47.9121 1045.96 44.8993 1050.95 42.7835 1056.49C41.7135 1060.46 40.6634 1064.44 39.6368 1068.43L39.6336 1068.42ZM51.0185 1027.45C50.2833 1029.9 49.5615 1032.36 48.8464 1034.83C50.603 1033.23 52.3651 1031.78 54.1559 1030.48C53.0785 1029.51 52.0282 1028.5 51.0252 1027.45L51.0185 1027.45ZM67.1042 1031.42C68.3367 1032.29 69.5794 1033.15 70.8055 1033.98C98.3728 1052.69 127.945 1068.64 158.951 1081.54C159.531 1080.76 160.114 1079.97 160.687 1079.18C145.934 1062.6 127.958 1048.55 107.887 1038.03C100.654 1034.24 91.0776 1029.8 81.0995 1029.14C76.2963 1028.82 71.6447 1029.57 67.1042 1031.42ZM53.544 1019.11C55.5484 1021.79 57.9873 1024.21 60.6289 1026.45C67.3282 1023 74.2783 1021.54 81.617 1022.02C93.0589 1022.78 103.597 1027.63 111.501 1031.77C131.792 1042.41 150.028 1056.51 165.123 1073.13C212.009 1009.08 256.952 941.375 299.6 870.53C324.634 828.939 348.989 784.407 347.944 737.549C347.693 726.355 344.924 712.918 340.12 705.76C341.203 710.332 342.71 715.039 344.642 719.944C345.232 721.433 344.712 723.111 343.369 724.061C342.027 725.011 340.191 724.999 338.859 724.031C324.634 713.695 307.667 706.216 290.526 702.266C278.101 707.41 263.25 714.901 248.171 723.819C218.055 741.627 195.342 760.206 191.634 770.045C188.159 779.292 186.619 787.236 187.164 794.288C200.298 796.282 213.462 799.821 226.784 803.629C235.51 806.124 245.766 810.205 247.638 819.664C248.406 823.538 247.362 827.589 244.691 831.066C241.44 835.31 236.247 838.218 230.815 838.855C221.157 839.984 212.333 835.35 206.532 831.761C191.878 822.698 183.365 812.695 180.601 800.615C172.68 799.697 164.803 799.449 156.977 800.172C153.65 800.477 150.381 801.035 147.187 801.814C131.113 830.126 116.292 859.207 102.83 888.861C106.572 889.446 110.287 890.443 113.914 891.541C156.325 904.371 194.455 927.827 224.173 959.379C225.349 960.623 225.453 962.485 224.429 963.846C223.399 965.204 221.518 965.7 219.905 965.036C186.279 951.197 153.049 935.507 121.127 918.395C112.127 913.571 103.524 908.619 97.2213 901.462C92.151 913.01 87.2843 924.649 82.6282 936.35C71.8734 963.419 62.1624 991.066 53.5474 1019.1L53.544 1019.11ZM91.5386 895.895C90.7967 896.039 90.0711 896.231 89.3486 896.465C88.8075 896.642 88.1358 896.797 87.2089 897.019C36.7479 908.863 37.4059 962.439 46.8471 1005.29C47.2112 1006.97 47.7564 1008.65 48.4555 1010.35C56.5929 984.441 65.6589 958.891 75.6154 933.831C80.6792 921.102 85.987 908.451 91.5386 895.895ZM102.205 896.009C107.724 902.714 115.72 907.322 124.794 912.182C150.894 926.168 177.874 939.203 205.226 951.042C178.69 927.021 146.68 908.944 111.653 898.35C108.534 897.403 105.351 896.544 102.212 896.012L102.205 896.009ZM136.731 805.311C121.983 811.619 109.651 823.138 102.019 838.288C95.0314 852.157 91.3387 870.648 96.2992 885.286C108.67 858.106 122.174 831.389 136.731 805.311ZM188.641 801.768C191.605 810.852 198.795 818.473 210.619 825.784C218.27 830.52 224.4 832.427 229.905 831.778C233.273 831.38 236.621 829.499 238.648 826.863C239.661 825.537 240.772 823.449 240.287 820.993C239.163 815.32 231.336 812.388 224.64 810.471C212.501 806.997 200.515 803.758 188.648 801.771L188.641 801.768ZM277.817 699.997C267.663 698.707 257.672 698.729 248.39 700.194C208.634 706.474 187.296 735.832 170.415 762.854C164.08 772.995 157.912 783.248 151.91 793.614C153.35 793.393 154.806 793.219 156.265 793.087C164.073 792.364 171.857 792.535 179.645 793.34C179.323 785.668 180.999 777.189 184.587 767.653C191.146 750.218 231.889 725.062 244.219 717.771C254.369 711.769 266.268 705.36 277.813 700.004L277.817 699.997ZM350.26 582.225C331.978 633.62 309.741 672.332 285.895 693.621C285.75 693.751 285.595 693.868 285.44 693.968C286.875 694.226 288.324 694.505 289.759 694.81C300.868 690.348 310.89 687.456 317.702 687.619C322.43 687.73 326.8 688.917 330.647 690.515C329.918 662.864 343.946 635.905 375 602.328C417.986 555.86 474.324 517.18 547.236 484.09C601.306 459.547 658.134 446.311 712.981 445.341C709.976 436.269 706.713 427.648 701.558 419.59C690.207 401.853 670.779 390.189 643.799 384.925C624.558 381.172 605.452 381.467 590.614 382.826C591.284 385.483 591.999 388.106 592.758 390.662C592.963 391.363 593.178 392.06 593.39 392.764C595.035 398.187 596.736 403.789 596.022 409.595C595.149 416.686 589.39 424.198 580.439 424.149C575.261 424.124 570.606 421.46 567.204 419.518C561.768 416.411 545.231 406.953 547.629 393.938C549.099 385.983 556.954 380.7 570.987 378.236C574.435 377.629 577.951 377.095 581.505 376.635C577.749 358.761 575.455 334.972 585.804 322.978C597.081 309.896 624.294 309.921 644.158 309.939C648.042 309.945 651.709 309.948 654.769 309.842C680.328 308.999 708.622 300.744 711.405 280.104C712.816 269.653 707.087 258.223 701.546 247.165C694.39 232.887 686.991 218.121 694.216 204.279C700.18 192.853 713.2 188.246 725.793 183.792C728.557 182.812 731.162 181.891 733.714 180.897C771.889 165.948 795.211 126.955 789.16 88.1831C787.284 76.1423 777.906 63.0428 767.825 58.3506C762.815 56.0191 758.144 55.9915 753.931 58.2622C749.705 60.5424 747.076 65.0407 744.525 69.3928C723.025 106.132 698.006 132.828 668.041 150.998C657.196 157.576 645.481 163.17 632.809 167.818C625.649 187.788 613.074 206.696 600.84 225.081C597.464 230.155 594.279 234.952 591.231 239.727C579.275 258.472 566.918 277.855 548.385 292.529C529.413 307.55 499.463 316.979 474.547 304.866C473.993 304.597 473.446 304.315 472.892 304.029C459.444 296.907 448.844 283.686 443.035 266.801C436.726 248.447 437.41 230.673 444.954 216.738C453.128 201.659 470.066 190.071 492.65 184.104C508.851 179.826 526.087 178.639 542.764 177.492C546.03 177.269 549.289 177.043 552.546 176.791C580.525 174.665 605.109 169.895 626.794 162.338C627.662 159.683 628.416 157.021 629.045 154.338C630.037 150.117 630.971 145.957 631.868 141.93C635.257 126.736 638.455 112.387 644.72 96.8205L644.928 96.3051C651.995 78.7408 666.699 42.1996 655.272 21.6379C651.404 14.6781 644.907 10.2539 635.408 8.11965C630.789 7.08388 625.497 7.42788 620.11 9.11159C598.193 15.9711 586.531 38.2798 584.46 77.293C582.964 105.562 581.094 140.746 552.849 156.868C544.267 161.766 535.139 162.849 527.805 159.829C519.533 156.424 515.058 148.888 511.184 141.469L478.376 78.6018C466.436 55.7157 453.948 44.6053 440.207 44.6234C427.518 44.6404 418.561 55.3086 416.264 65.8416C413.888 76.7283 416.485 88.7269 418.998 100.332L419.575 103.008C423.627 121.947 426.14 141.717 417.111 157.998C412.116 167.004 404.164 173.818 396.476 180.408C391.604 184.585 386.563 188.905 382.5 193.644C362.934 216.477 382.761 257.755 398.691 290.921C404.327 302.65 409.647 313.729 412.704 322.891C427.365 366.777 429.823 413.712 419.815 458.618C409.797 503.558 387.773 544.353 356.117 576.603C354.301 578.453 352.344 580.362 350.254 582.222L350.26 582.225ZM329.697 697.969C325.366 695.863 321.453 694.843 317.516 694.747C313.894 694.661 308.552 695.806 302.001 697.965C313.202 701.383 324.13 706.191 334.125 712.22C332.82 707.684 331.874 703.217 331.296 698.786C330.752 698.498 330.225 698.225 329.697 697.969ZM281.241 347.707C273.392 343.892 263.163 343.197 255.579 346.201C252.031 347.609 247.593 350.443 246.59 355.972C245.421 362.422 249.147 369.882 252.747 377.089C257.626 386.855 262.666 396.949 256.997 406.411C252.366 414.143 243.301 416.378 234.535 418.542C228.163 420.116 222.142 421.603 218.111 424.996C209.113 432.584 213.09 448.241 222.126 458.995C226.474 464.178 231.846 468.928 237.034 473.518C243.42 479.17 250.022 485.015 255.163 491.953C264.445 504.477 267.899 518.944 271.236 532.936C272.675 538.98 274.169 545.235 276.102 551.158C282.132 569.592 297.751 589.444 317.809 589.476C327.94 589.49 336.649 584.261 343.79 578.174C349.12 563.003 354.117 546.708 358.711 529.408C376.522 462.393 386.574 387.328 386.57 322.076C358.592 346.853 338.289 379.005 327.643 415.541C327.629 415.582 327.622 415.627 327.608 415.668L344.157 461.289C348.596 473.526 357.724 504.155 346.598 524.192C342.342 531.85 335.642 536.909 326.684 539.228C324.732 539.73 322.711 538.667 322.12 536.834C309.461 497.486 308.66 455.731 319.781 415.925L310.704 390.898C304.462 373.69 298.178 358.697 284.489 349.559C283.466 348.877 282.382 348.262 281.241 347.707ZM324.327 428.478C316.766 462.523 318.059 497.724 328.181 531.223C333.38 529.168 337.257 525.749 339.971 520.858C346.736 508.676 345.651 487.277 337.076 463.623L324.327 428.478ZM583.096 383.634C578.976 384.147 575.345 384.721 572.331 385.243C561.697 387.108 555.87 390.445 554.998 395.165C553.996 400.598 559.396 406.725 571.044 413.389C573.852 414.994 577.344 416.988 580.464 417.007C584.894 417.029 588.064 412.826 588.566 408.751C589.103 404.373 587.682 399.692 586.174 394.737C585.952 394.02 585.74 393.3 585.525 392.587C584.793 390.107 583.948 387.069 583.096 383.634ZM723.104 452.434C724.097 455.512 725.122 458.638 726.208 461.682C732.922 480.521 741.49 492.65 753.184 499.857C761.205 504.798 772.047 506.64 780.813 504.555C784.799 503.601 790.184 501.387 793.185 496.228C799.302 485.71 791.109 470.807 779.627 463.486C766.742 455.267 750.289 453.47 735.9 452.797C731.649 452.597 727.38 452.477 723.104 452.434ZM623.599 170.968C602.719 177.635 579.366 181.913 553.141 183.907C549.868 184.158 546.585 184.381 543.302 184.604C526.991 185.728 510.13 186.889 494.644 190.979C474.093 196.403 458.809 206.712 451.608 220.005C444.984 232.223 444.468 248.053 450.149 264.579C453.173 273.364 460.612 289.359 476.522 297.79C498.66 309.514 526.147 300.835 543.576 287.042C561.148 273.127 573.175 254.265 584.812 236.022C587.901 231.186 591.099 226.363 594.495 221.268C605.337 204.962 616.465 188.235 623.589 170.971L623.599 170.968Z" fill="#647B4E"/>
</svg>
