<svg width="714" height="1218" viewBox="0 0 714 1218" fill="none" xmlns="http://www.w3.org/2000/svg">
<path d="M807.052 1217.34C806.793 1217.48 806.51 1217.6 806.211 1217.68C805.147 1217.96 804.017 1217.75 803.131 1217.11C763.647 1188.87 725.668 1157.87 690.254 1124.98C678.412 1113.98 666.817 1102.73 655.488 1091.27C652.402 1088.58 649.693 1085.8 647.369 1082.96C639.281 1074.6 631.323 1066.13 623.524 1057.55C618.283 1057.44 613.458 1056.59 609.151 1055.01C568.996 1040.25 544.053 1021.3 535.017 998.705C527.686 980.369 533.122 965.426 535.171 959.794C535.369 959.239 535.582 958.667 535.636 958.458C535.863 957.597 536.142 956.754 536.461 955.936C519.077 952.028 503.339 938.049 494.285 923.928C483.029 906.364 480.013 886.205 485.489 867.933C478.8 856.194 472.354 844.352 466.167 832.423C459.268 819.13 451.769 803.285 448.403 786.577C444.682 768.09 446.468 751.236 453.869 735.055C457.895 726.252 463.779 717.706 471.028 709.85C469.238 709.964 467.603 708.787 467.281 707.061C462.355 680.94 444.352 648.096 415.441 611.818C415.308 618.519 413.752 625.29 409.553 631.445C403.761 639.926 394.064 645.602 381.52 647.846C371.035 649.726 359.127 649.121 347.985 646.145C341.751 644.48 335.612 642.332 329.672 640.256C316.288 635.575 303.647 631.158 289.77 631.675C282.041 631.968 274.448 633.786 266.41 635.714C259.631 637.342 252.613 639.023 245.502 639.697C228.74 641.292 209.616 634.729 207.2 619.426C206.182 612.997 208.414 606.623 210.573 600.454C212.929 593.714 215.158 587.349 212.457 582.379C209.171 576.32 200.391 575.217 191.097 574.053C182.095 572.924 172.787 571.751 166.329 566.065C161.267 561.61 159.241 555.188 160.623 547.981C162.673 537.304 171.76 526.902 182.726 522.681C199.414 516.255 217.111 519.568 235.29 523.853L251.264 527.621C227.127 499.192 211.847 465.885 206.925 430.745C206.744 429.442 207.368 428.151 208.533 427.44C209.701 426.735 211.191 426.723 212.359 427.428C269.456 461.753 330.435 510.434 379.658 560.988C388.268 569.83 396.358 578.574 403.912 587.182C392.943 550.102 371.534 515.709 341.705 487.362C310.141 457.361 270.644 435.553 227.493 424.301C218.65 421.995 206.828 420.34 194.311 418.582C156.334 413.259 109.075 406.631 98.7094 375.934C96.6729 369.901 95.6204 363.578 94.5998 357.457C93.0875 348.394 91.6579 339.834 87.3141 332.438C79.4377 319.024 62.8758 311.382 46.1462 305.132L43.6198 304.194C31.929 299.851 19.8362 295.36 10.8951 286.935C1.21469 277.82 -4.07759 261.952 4.53633 249.264C13.2468 236.436 31.2318 231.702 59.5337 234.785L129.161 242.376C136.357 243.159 143.253 243.597 148.378 240.34C154.612 236.388 155.564 228.43 155.682 225.192C156.654 199.017 129.853 180.577 108.326 165.762C93.672 155.676 83.0805 145.98 75.939 136.127C66.3144 122.829 63.285 109.391 66.9382 96.1871C68.6496 90.0129 71.7729 84.7154 75.981 80.8818C84.1366 73.4361 93.2717 70.0896 103.139 70.9232C129.497 73.1478 153.786 104.909 165.462 120.166L165.786 120.591C175.257 132.971 185.428 142.638 196.201 152.877C199.118 155.652 202.142 158.525 205.192 161.493C205.951 162.228 206.697 162.985 207.434 163.739C209.295 153.957 210.26 144.339 210.338 134.833C210.61 103.825 201.461 72.067 182.376 37.7499C179.716 32.9687 176.704 27.5511 177.102 21.2605C177.514 14.6105 181.211 9.10691 187.791 5.33207C198.928 -1.0501 217.261 -1.53362 230.443 4.19878C268.986 20.9307 291.287 61.9395 283.468 101.696C282.966 104.26 282.349 106.894 281.753 109.439C279.159 120.509 276.712 130.965 281.763 139.093C287.854 148.897 301.656 150.615 316.264 152.43C329.412 154.061 343.005 155.76 352.632 163.526C371.881 179.061 363.764 208.366 349.751 230.603C348.187 233.085 346.252 235.919 344.207 238.924C335.23 252.085 321.659 271.972 325.762 284.249C329.227 294.619 346.413 304.269 364.852 311.208C384.599 274.545 417.888 240.432 459.973 241.553C470.869 241.844 481.222 244.307 491.258 246.991C493.953 243.065 496.731 239.219 499.583 235.441C508.16 224.105 518.974 211.68 534.122 205.482C549.039 199.379 569.926 201.345 577.659 215.159C580.802 220.779 581.157 227.376 578.685 234.25C575.238 243.831 566.788 252.473 556.629 256.805C542.999 262.615 526.922 262.979 506.039 257.939C502.127 256.996 498.198 255.929 494.391 254.888C466.761 296.584 448.421 346.277 441.045 399.805C431.179 471.388 434.364 533.312 450.791 589.099C459.273 617.91 469.176 637.651 481.959 651.234C487.921 657.567 494.483 662.569 502.122 666.485C503.029 666.096 503.894 665.745 504.714 665.428C516.557 660.835 536.838 669.7 546.952 675.662C588.292 700.022 613.575 742.462 635.919 783.839C673.615 853.634 707.409 923.561 737.069 993.075C741.642 992.652 746.228 992.387 750.818 992.291C752.377 992.257 753.777 993.195 754.271 994.607C754.765 996.02 754.241 997.57 752.974 998.439C749.464 1000.85 745.91 1003.21 742.334 1005.52C766.489 1063.03 787.794 1120.24 806.123 1176.83C810.3 1189.73 813.928 1203.36 808.564 1215.69C808.263 1216.39 807.721 1216.96 807.055 1217.33L807.052 1217.34ZM683.188 1108.76C687.169 1112.57 691.189 1116.35 695.231 1120.12C729.224 1151.7 765.597 1181.51 803.403 1208.81C805.559 1199.61 802.728 1189.38 799.314 1178.85C794.515 1164.02 789.51 1149.17 784.301 1134.27C754.771 1131.75 722.331 1124.49 697.078 1114.72C692.163 1112.82 687.528 1110.83 683.185 1108.77L683.188 1108.76ZM660.873 1086.81C671.953 1096.25 686.784 1103.41 699.761 1108.43C723.513 1117.62 753.815 1124.53 781.83 1127.22C768.024 1088.16 752.821 1048.83 736.279 1009.37C709.38 1026.18 680.696 1040.35 650.77 1051.62C648.438 1052.5 646.058 1053.37 643.628 1054.17C643.754 1057.13 644.229 1060.28 645.046 1063.62C646.34 1068.9 648.964 1073.77 652.504 1078.24C655.28 1081.11 658.074 1083.97 660.883 1086.81L660.873 1086.81ZM632.441 1056.97C634.117 1058.79 635.805 1060.62 637.499 1062.43C637.07 1060.27 636.766 1058.18 636.603 1056.15C635.231 1056.47 633.844 1056.74 632.447 1056.96L632.441 1056.97ZM644.089 1046.8C645.457 1046.32 646.814 1045.81 648.148 1045.31C678.075 1034.04 706.733 1019.83 733.577 1002.95C733.22 1002.1 732.86 1001.25 732.497 1000.41C710.974 1003.04 689.915 1009.43 670.717 1019.23C663.802 1022.77 655.131 1027.75 649.417 1034.99C646.668 1038.47 644.891 1042.4 644.089 1046.8ZM626.763 1050.74C630.045 1050.6 633.333 1050 636.58 1049.15C637.149 1042.27 639.521 1036.24 643.721 1030.91C650.271 1022.61 659.792 1017.12 667.346 1013.25C686.748 1003.34 707.995 996.778 729.726 993.908C700.322 925.156 666.86 855.994 629.578 786.95C607.69 746.419 582.986 704.882 543.198 681.44C533.691 675.84 521.005 670.995 512.524 670.942C516.914 672.484 521.636 673.773 526.743 674.843C528.296 675.164 529.432 676.428 529.533 677.939C529.635 679.45 528.675 680.839 527.176 681.35C511.161 686.811 496.121 695.833 483.946 706.813C481.829 718.913 480.421 734.07 480.092 750.139C479.432 782.23 483.246 809.095 489.569 817.001C495.517 824.424 501.374 829.703 507.563 832.936C516.026 823.989 525.799 815.819 535.88 807.667C542.483 802.329 551.206 796.647 560.097 800.117C563.739 801.538 566.592 804.427 568.123 808.254C569.996 812.919 569.746 818.368 567.47 822.824C563.42 830.746 554.974 835.053 548.968 837.604C533.798 844.049 521.016 845.343 509.468 841.195C504.602 846.738 500.32 852.594 496.878 858.913C495.413 861.599 494.189 864.371 493.19 867.201C508.59 894.057 525.283 920.358 543.159 945.923C545.584 943.383 548.34 941.076 551.136 938.889C583.818 913.304 623.187 896.467 664.986 890.209C666.636 889.959 668.25 890.843 668.86 892.325C669.464 893.81 668.907 895.495 667.516 896.377C638.533 914.766 608.204 931.897 577.36 947.298C568.664 951.641 560.067 955.616 550.812 956.702C557.862 966.527 565.094 976.244 572.487 985.834C589.596 1008.01 607.732 1029.68 626.759 1050.73L626.763 1050.74ZM543.21 958.14C542.947 958.778 542.732 959.429 542.554 960.098C542.423 960.601 542.205 961.191 541.912 962.011C525.733 1006.47 570.948 1033.68 611.727 1048.68C613.319 1049.27 615.01 1049.72 616.791 1050.07C599.301 1030.49 582.59 1010.38 566.749 989.858C558.706 979.428 550.855 968.852 543.21 958.14ZM548.822 950.095C557.292 949.37 565.288 945.678 574.052 941.298C599.266 928.703 624.14 914.948 648.203 900.291C614.358 908.027 582.66 922.996 555.669 944.128C553.263 946.008 550.898 947.982 548.828 950.092L548.822 950.095ZM490.711 876.954C488.366 891.42 491.636 906.747 500.378 920.382C508.381 932.864 521.959 945.233 536.786 949.036C520.418 925.579 505.024 901.501 490.711 876.954ZM514.592 835.683C523.734 838.13 533.837 836.609 546.076 831.407C554 828.045 558.767 824.374 561.071 819.856C562.48 817.091 562.636 813.574 561.476 810.671C560.89 809.215 559.715 807.291 557.408 806.39C552.074 804.309 545.571 808.739 540.501 812.835C531.313 820.26 522.4 827.692 514.598 835.679L514.592 835.683ZM475.472 715.295C469.14 722.341 463.991 729.943 460.416 737.753C445.114 771.205 458.668 802.601 472.571 829.403C477.788 839.46 483.186 849.45 488.764 859.371C489.323 858.163 489.931 856.967 490.575 855.79C494.008 849.484 498.177 843.659 502.88 838.158C496.288 834.435 490.052 828.776 483.92 821.118C472.71 807.117 472.712 763.151 472.982 750.013C473.205 739.198 473.991 726.842 475.476 715.301L475.472 715.295ZM414.295 599.342C447.888 639.815 468.812 676.732 474.31 705.859C474.344 706.037 474.361 706.215 474.365 706.385C475.323 705.427 476.307 704.471 477.305 703.539C479.312 692.791 482.074 683.682 485.734 678.59C488.272 675.056 491.527 672.35 494.855 670.254C471.317 656.505 455.992 631.904 443.93 590.944C427.241 534.252 423.982 471.444 433.978 398.936C441.387 345.162 459.693 295.143 487.249 252.972C478.096 250.562 469.187 248.582 459.771 248.331C439.043 247.781 419.226 256.508 400.862 274.283C387.766 286.96 378.13 301.627 371.594 313.604C374.167 314.469 376.734 315.282 379.267 316.028C379.96 316.235 380.655 316.432 381.354 316.635C386.748 318.19 392.32 319.795 396.814 323.341C402.302 327.671 405.615 335.932 400.944 342.707C398.245 346.628 393.606 348.787 390.22 350.367C384.806 352.889 368.33 360.562 358.669 352.008C352.767 346.777 352.404 338.077 357.599 326.141C358.873 323.207 360.245 320.26 361.697 317.322C344.783 310.931 323.671 300.369 318.977 286.303C313.853 270.969 327.949 250.307 338.238 235.226C340.252 232.277 342.151 229.494 343.645 227.113C356.159 207.26 363.879 181.494 348.03 168.705C340.006 162.227 327.469 160.668 315.341 159.158C299.68 157.209 283.485 155.193 275.628 142.545C269.143 132.104 272.018 119.829 274.801 107.958C275.409 105.352 275.985 102.896 276.472 100.443C283.697 63.7082 263.098 25.821 227.493 10.3649C216.437 5.56249 200.614 5.91152 191.47 11.1431C186.926 13.7437 184.487 17.2786 184.21 21.6533C183.934 26.0432 186.342 30.3676 188.668 34.557C208.32 69.8933 217.741 102.709 217.462 134.872C217.361 146.514 215.988 158.307 213.327 170.338C226.35 186.108 235.684 205.441 244.756 224.245C247.259 229.433 249.63 234.335 252.054 239.12C261.57 257.899 271.414 277.312 274.119 298.982C276.888 321.165 269.295 348.796 246.262 361.461C245.75 361.742 245.231 362.012 244.705 362.285C231.784 368.818 215.228 370.033 198.08 365.713C179.444 361.013 164.909 351.3 157.139 338.361C148.737 324.352 147.792 305.49 154.475 285.246C159.27 270.725 167.191 257.016 174.856 243.753C176.359 241.156 177.855 238.563 179.329 235.959C192.02 213.602 200.739 192.458 205.626 172.074C203.851 170.042 202.011 168.092 200.09 166.226C197.067 163.29 194.066 160.428 191.156 157.664C180.183 147.23 169.818 137.379 160.02 124.568L159.696 124.143C148.639 109.69 125.637 79.6182 102.504 77.6651C94.6742 77.0036 87.6081 79.6511 80.9071 85.7643C77.6503 88.738 75.2015 92.9361 73.8255 97.8996C68.2349 118.099 80.8889 138.497 112.495 160.25C135.4 176.007 163.903 195.626 162.798 225.423C162.462 234.477 158.647 241.972 152.325 245.981C145.195 250.505 136.568 250.008 128.35 249.113L58.7226 241.522C33.3772 238.756 17.6119 242.497 10.52 252.946C3.97132 262.594 8.27431 274.917 15.909 282.11C23.7984 289.546 35.1918 293.779 46.2126 297.872L48.7522 298.818C66.7114 305.536 84.5702 313.852 93.5376 329.133C98.497 337.585 100.092 347.151 101.635 356.401C102.614 362.263 103.625 368.327 105.493 373.865C114.498 400.539 159.328 406.826 195.347 411.878C208.087 413.663 220.118 415.351 229.373 417.767C273.715 429.328 314.3 451.737 346.737 482.566C379.197 513.422 401.976 551.254 412.616 591.985C413.226 594.321 413.812 596.795 414.289 599.346L414.295 599.342ZM500.608 674.83C496.603 677.032 493.725 679.477 491.609 682.419C489.663 685.126 487.859 689.776 486.279 695.87C494.936 689.128 504.614 683.313 514.834 678.837C510.36 677.482 506.129 675.891 502.118 674.039C501.596 674.303 501.095 674.562 500.608 674.83ZM182.164 530.48C174.908 534.47 169.035 541.882 167.629 549.197C166.973 552.621 167.051 557.458 171.164 561.08C175.962 565.305 184.137 566.332 192.036 567.324C202.74 568.669 213.801 570.061 218.795 579.262C222.875 586.78 220.059 594.823 217.338 602.602C215.361 608.256 213.491 613.601 214.248 618.418C215.95 629.178 231.122 634.256 244.803 632.953C251.393 632.33 258.151 630.706 264.678 629.138C272.715 627.21 281.026 625.218 289.496 624.9C304.788 624.326 318.691 629.184 332.138 633.886C337.944 635.919 343.956 638.019 349.916 639.614C368.476 644.568 393.183 642.969 403.584 627.747C408.836 620.057 408.961 610.736 407.556 602.163C397.605 590.266 386.541 578.042 374.427 565.603C327.507 517.41 269.831 470.948 215.174 437.201C221.456 471.271 237.886 503.327 262.981 530.312C263.009 530.344 263.043 530.372 263.07 530.404L309.842 541.428C322.387 544.385 352.764 553.292 363.792 572.109C368.005 579.303 368.778 587.01 366.087 595.015C365.498 596.757 363.562 597.743 361.72 597.244C322.215 586.51 286.827 565.521 259.236 536.484L233.579 530.435C215.937 526.277 200.129 523.297 185.395 528.97C184.295 529.394 183.219 529.9 182.164 530.48ZM272.103 539.523C296.708 562.876 326.861 580.101 360.156 589.737C361.124 584.724 360.265 580.01 357.572 575.419C350.867 563.979 332.383 553.735 308.135 548.015L272.103 539.523ZM368.383 319.733C366.682 323.128 365.284 326.184 364.163 328.744C360.225 337.787 360.006 343.94 363.508 347.044C367.541 350.616 375.465 349.682 387.072 344.279C389.869 342.976 393.345 341.355 394.974 338.994C397.285 335.64 395.404 331.057 392.25 328.569C388.861 325.896 384.206 324.555 379.274 323.138C378.559 322.935 377.847 322.724 377.138 322.518C374.683 321.792 371.7 320.863 368.383 319.733ZM498.425 248.949C501.517 249.787 504.666 250.626 507.777 251.375C527.029 256.018 541.621 255.782 553.706 250.625C561.993 247.087 569.143 239.802 571.931 232.065C573.193 228.543 574.125 223.307 571.355 218.359C565.709 208.271 548.989 206.787 536.918 211.724C523.37 217.262 513.354 228.832 505.348 239.416C502.982 242.542 500.674 245.723 498.425 248.949ZM211.202 178.965C205.986 198.277 197.491 218.232 185.597 239.187C184.114 241.804 182.603 244.413 181.091 247.022C173.597 259.996 165.849 273.406 161.265 287.286C155.179 305.705 155.907 322.649 163.317 334.995C170.126 346.348 183.117 354.927 199.899 359.159C208.821 361.405 226.066 364.027 241.357 356.3C262.627 345.545 269.574 320.173 267.037 299.798C264.469 279.251 254.891 260.357 245.63 242.08C243.176 237.233 240.792 232.308 238.28 227.093C230.23 210.422 221.975 193.316 211.199 178.974L211.202 178.965Z" fill="#F5F3F1"/>
</svg>
