<svg width="545" height="1100" viewBox="0 0 545 1100" fill="none" xmlns="http://www.w3.org/2000/svg">
<path d="M-123.718 1098.77C-123.962 1098.65 -124.198 1098.5 -124.412 1098.31C-125.175 1097.66 -125.589 1096.71 -125.547 1095.75C-123.664 1052.6 -118.858 1009.23 -111.264 966.851C-108.725 952.68 -105.868 938.573 -102.699 924.555C-102.175 920.948 -101.394 917.581 -100.361 914.467C-97.9625 904.374 -95.4109 894.324 -92.6969 884.343C-95.2913 880.387 -97.0958 876.383 -98.063 872.407C-107.06 835.328 -105.011 807.534 -91.969 789.801C-81.3883 775.414 -66.9287 772.182 -61.4798 770.964C-60.9444 770.841 -60.3889 770.721 -60.1974 770.659C-59.4086 770.409 -58.6073 770.206 -57.8052 770.045C-63.6408 755.202 -60.7647 736.679 -54.3589 723.062C-46.3888 706.129 -32.1752 694.066 -15.0947 689.242C-9.3406 678.545 -3.38273 667.98 2.77643 657.564C9.63746 645.955 18.1858 632.655 29.5223 622.012C42.0679 610.238 56.1532 603.358 72.5846 600.986C81.5229 599.695 91.2118 599.912 101.059 601.481C100.054 600.205 100.138 598.414 101.322 597.334C119.217 580.944 135.679 551.548 149.247 512.359C143.941 515.523 137.854 517.663 130.896 517.535C121.306 517.355 111.91 512.902 103.741 504.658C96.9102 497.77 91.2923 488.611 87.9205 478.868C86.0337 473.418 84.5723 467.802 83.1575 462.369C79.971 450.127 76.9584 438.567 69.4568 428.489C65.2752 422.88 59.9711 418.113 54.3539 413.07C49.6145 408.817 44.7112 404.412 40.5477 399.447C30.7291 387.747 26.0777 370.316 36.8024 361.064C41.306 357.176 47.4292 355.733 53.3548 354.334C59.8272 352.805 65.9418 351.364 68.4453 346.933C71.4997 341.536 67.8711 334.464 64.0276 326.979C60.3065 319.728 56.4627 312.229 57.6036 304.653C58.4968 298.715 62.4802 294.079 68.8193 291.597C78.2126 287.923 90.9891 289.62 99.896 295.727C113.453 305.018 119.914 319.804 125.862 335.423L131.087 349.147C140.962 317.335 159.178 289.739 184.124 268.96C185.049 268.19 186.378 268.026 187.529 268.547C188.678 269.073 189.449 270.176 189.496 271.389C191.87 330.606 185.009 399.705 170.673 460.966C168.165 471.682 165.469 481.962 162.605 491.778C185.974 465.553 201.905 432.865 208.804 396.856C216.109 358.75 212.954 318.729 199.679 281.13C196.959 273.425 192.207 263.82 187.179 253.646C171.917 222.786 152.928 184.382 171.618 161.715C175.291 157.261 179.695 153.398 183.957 149.657C190.267 144.117 196.225 138.884 199.784 132.048C206.239 119.652 203.742 103.602 200.071 88.1058L199.512 85.7687C196.927 74.9513 194.253 63.7631 196.264 53.0044C198.438 41.3593 208.133 29.6912 222.454 29.9229C236.934 30.1586 249.832 41.2394 261.897 63.8069L291.572 119.33C294.641 125.067 297.825 130.414 302.992 132.642C309.269 135.357 315.975 132.189 318.566 130.701C339.52 118.675 340.225 89.7444 340.795 66.5056C341.183 50.6857 343.344 38.0798 347.392 27.965C352.863 14.3241 361.816 5.5239 374.004 1.81205C379.705 0.0786978 385.442 -0.176822 390.59 1.08813C400.58 3.53204 407.868 8.70157 412.263 16.4523C424.004 37.155 411.603 70.7035 405.651 86.8252L405.484 87.2732C400.652 100.353 398.298 112.632 395.806 125.637C395.128 129.16 394.43 132.811 393.67 136.527C393.483 137.449 393.274 138.373 393.061 139.289C401.658 135.91 409.668 131.944 417.138 127.371C441.511 112.471 461.652 90.1927 478.712 59.2731C481.089 54.9645 483.782 50.0833 488.902 47.3161C494.31 44.3832 500.502 44.4548 506.818 47.514C517.501 52.6948 527.255 66.1047 529.516 78.709C536.151 115.547 515.506 152.12 480.436 165.664C478.175 166.539 475.801 167.363 473.508 168.159C463.529 171.62 454.106 174.892 450.336 182.61C445.789 191.919 451.505 203.029 457.558 214.786C463.007 225.367 468.63 236.312 467.485 247.261C465.188 269.154 438.134 277.386 413.588 277.787C410.848 277.831 407.644 277.772 404.249 277.713C389.372 277.442 366.889 277.027 359.393 286.06C353.06 293.69 354.307 311.182 358.314 328.287C397.068 325.128 440.753 333.29 461.4 365.161C466.744 373.414 470.115 382.319 473.149 391.096C477.596 391.19 482.022 391.384 486.433 391.667C499.68 392.53 514.92 394.528 527.512 402.783C539.91 410.914 549.056 427.419 542.214 439.902C539.43 444.98 534.455 448.457 527.819 449.965C518.568 452.066 507.492 449.985 498.911 444.534C487.399 437.219 478.893 425.429 472.152 407.431C470.889 404.06 469.713 400.615 468.579 397.275C421.862 397.017 373.646 407.571 328.039 428.152C267.048 455.674 220.28 488.206 185.081 527.604C166.902 547.951 156.538 564.937 152.46 581.067C150.559 588.59 150.006 595.91 150.852 603.504C151.62 603.989 152.337 604.463 153.004 604.918C162.65 611.496 166.094 630.91 166.607 641.342C168.711 683.977 148.472 723.467 127.561 760.252C92.2917 822.305 54.9235 881.518 15.7645 937.452C18.4336 940.65 20.9864 943.934 23.4085 947.304C24.2326 948.448 24.2152 949.947 23.3641 951.002C22.5129 952.058 21.0333 952.423 19.7064 951.903C16.0299 950.463 12.3667 948.968 8.73155 947.432C-23.8652 993.425 -57.6815 1037.15 -92.5348 1078.35C-100.482 1087.75 -109.275 1097.08 -121.659 1099.1C-122.359 1099.21 -123.083 1099.09 -123.71 1098.77L-123.718 1098.77ZM-102.204 953.693C-103.147 958.512 -104.047 963.347 -104.921 968.188C-112.217 1008.87 -116.919 1050.47 -118.918 1091.9C-110.625 1089.03 -104.075 1081.94 -97.5902 1074.26C-88.4592 1063.47 -79.4119 1052.51 -70.4284 1041.38C-83.5633 1018.17 -94.4774 990.488 -99.7602 966.935C-100.785 962.35 -101.603 957.932 -102.212 953.695L-102.204 953.693ZM-96.4615 926.392C-98.1748 939.239 -96.1869 953.765 -93.4689 965.868C-88.5032 988.022 -78.4077 1013.94 -66.184 1036.11C-42.7178 1006.8 -19.757 976.335 2.62276 944.803C-24.2675 932.965 -50.0141 918.519 -74.1261 901.733C-76.0029 900.423 -77.9062 899.079 -79.7708 897.658C-82.0217 899.194 -84.2372 901.081 -86.4317 903.317C-89.8983 906.852 -92.3636 911.178 -94.046 915.99C-94.8685 919.453 -95.6736 922.926 -96.4585 926.401L-96.4615 926.392ZM-87.6789 890.694C-88.2506 892.832 -88.8107 894.976 -89.365 897.122C-87.8959 895.75 -86.4186 894.506 -84.9129 893.394C-85.8611 892.527 -86.7869 891.63 -87.6731 890.697L-87.6789 890.694ZM-73.7768 894.413C-72.698 895.194 -71.6108 895.959 -70.5383 896.71C-46.4264 913.496 -20.6604 927.904 6.26285 939.661C6.74166 938.983 7.22321 938.301 7.6962 937.62C-5.36643 922.881 -21.1336 910.32 -38.614 900.805C-44.9135 897.381 -53.2401 893.352 -61.82 892.625C-65.9502 892.276 -69.9244 892.864 -73.7768 894.413ZM-85.7125 883.432C-83.9275 885.809 -81.7758 887.964 -79.4544 889.969C-73.788 887.042 -67.858 885.868 -61.5477 886.4C-51.7091 887.232 -42.547 891.643 -35.6637 895.384C-17.9916 904.995 -1.99896 917.615 11.3577 932.393C50.0529 877.019 86.993 818.426 121.887 757.047C142.37 721.014 162.199 682.395 160.172 641.362C159.686 631.558 156.985 619.755 152.689 613.417C153.729 617.436 155.136 621.579 156.912 625.901C157.455 627.213 157.048 628.674 155.919 629.486C154.79 630.297 153.214 630.26 152.047 629.392C139.589 620.132 124.846 613.331 110.039 609.617C99.4989 613.935 86.933 620.27 74.2068 627.851C48.7884 642.99 29.7428 658.914 26.7975 667.471C24.038 675.514 22.9078 682.445 23.5461 688.626C34.8666 690.568 46.2503 693.863 57.7765 697.396C65.3257 699.71 74.2274 703.436 76.0622 711.744C76.8143 715.146 76.0161 718.677 73.8075 721.681C71.1198 725.348 66.7328 727.815 62.0865 728.291C53.824 729.136 46.1384 724.947 41.0735 721.719C28.2773 713.566 20.7294 704.683 18.0656 694.067C11.2446 693.145 4.47788 692.81 -2.22084 693.326C-5.06919 693.543 -7.86156 693.983 -10.5841 694.617C-23.6971 719.16 -35.7158 744.396 -46.5541 770.153C-43.3285 770.721 -40.1161 771.649 -36.9768 772.665C-0.266244 784.53 33.0261 805.632 59.294 833.696C60.3331 834.803 60.4677 836.434 59.6217 837.61C58.7699 838.784 57.1674 839.189 55.767 838.584C26.573 825.968 -2.32685 811.737 -30.1372 796.28C-37.9784 791.923 -45.4823 787.459 -51.0641 781.099C-55.1372 791.133 -59.0333 801.249 -62.7472 811.422C-71.3247 834.956 -78.9922 859.013 -85.7097 883.427L-85.7125 883.432ZM-56.0758 776.142C-56.7091 776.257 -57.3272 776.414 -57.9417 776.608C-58.4019 776.755 -58.9746 776.88 -59.7648 777.061C-102.789 786.675 -100.931 833.583 -91.7937 871.239C-91.4407 872.71 -90.9323 874.192 -90.2913 875.685C-83.9323 853.13 -76.7677 830.9 -68.8269 809.112C-64.7879 798.045 -60.5376 787.05 -56.0758 776.142ZM-46.9181 776.401C-42.0198 782.352 -35.0452 786.506 -27.1401 790.896C-4.4013 803.529 19.0695 815.343 42.831 826.115C19.476 804.691 -8.4339 788.389 -38.7531 778.591C-41.4526 777.715 -44.2053 776.916 -46.9123 776.403L-46.9181 776.401ZM-19.4744 697.522C-31.9795 702.823 -42.2863 712.722 -48.471 725.87C-54.1334 737.906 -56.8566 754.038 -52.2459 766.926C-42.2838 743.318 -31.3389 720.132 -19.4744 697.522ZM24.9941 695.196C27.7575 703.193 34.1122 709.972 44.437 716.548C51.1175 720.808 56.4247 722.569 61.1342 722.083C64.0155 721.785 66.8433 720.188 68.5195 717.911C69.3574 716.765 70.2603 714.954 69.7849 712.798C68.6835 707.814 61.8951 705.131 56.1015 703.352C45.5991 700.13 35.2329 697.116 24.9999 695.199L24.9941 695.196ZM99.076 607.441C90.3302 606.16 81.7559 606.03 73.824 607.173C39.8543 612.077 22.2484 637.457 8.41198 660.86C3.2195 669.642 -1.8273 678.525 -6.72837 687.51C-5.49807 687.337 -4.25257 687.207 -3.00353 687.113C3.68082 686.597 10.3657 686.863 17.0697 687.685C16.608 680.964 17.8415 673.566 20.6911 665.272C25.9 650.108 60.2623 628.696 70.6685 622.498C79.2351 617.396 89.2935 611.963 99.0733 607.447L99.076 607.441ZM158.411 505.429C143.96 550.146 125.808 583.701 105.856 601.98C105.734 602.092 105.604 602.192 105.473 602.278C106.712 602.524 107.962 602.791 109.201 603.079C118.627 599.339 127.16 596.958 133.01 597.202C137.071 597.37 140.85 598.474 144.19 599.93C142.898 575.714 154.287 552.325 180.13 523.396C215.903 483.362 263.323 450.344 325.104 422.468C370.919 401.792 419.373 391.055 466.425 391.025C463.627 383.039 460.618 375.443 455.999 368.312C445.828 352.616 428.872 342.116 405.589 337.105C388.984 333.532 372.593 333.504 359.89 334.472C360.53 336.809 361.206 339.115 361.919 341.364C362.112 341.98 362.314 342.594 362.512 343.213C364.055 347.985 365.65 352.914 365.178 357.986C364.6 364.18 359.838 370.67 352.154 370.493C347.71 370.394 343.65 367.992 340.684 366.242C335.943 363.44 321.521 354.914 323.265 343.557C324.335 336.616 330.949 332.108 342.934 330.161C345.878 329.681 348.884 329.266 351.922 328.917C348.267 313.214 345.725 292.355 354.318 282.011C363.681 270.728 387.038 271.157 404.087 271.469C407.421 271.532 410.568 271.59 413.192 271.542C435.109 271.186 459.193 264.383 461.084 246.357C462.043 237.23 456.85 227.139 451.827 217.376C445.341 204.77 438.634 191.734 444.502 179.725C449.345 169.812 460.408 165.974 471.109 162.263C473.457 161.446 475.671 160.679 477.838 159.847C510.242 147.332 529.318 113.546 523.188 79.5162C521.287 68.948 512.923 57.3408 504.158 53.0828C499.801 50.967 495.791 50.873 492.23 52.7978C488.658 54.7307 486.51 58.6291 484.425 62.4007C466.859 94.2399 446.03 117.235 420.75 132.693C411.601 138.289 401.681 143.01 390.917 146.89C385.253 164.264 374.917 180.628 364.86 196.539C362.086 200.93 359.468 205.081 356.967 209.216C347.158 225.446 337.019 242.229 321.467 254.797C305.546 267.663 280.068 275.469 258.391 264.493C257.909 264.249 257.432 263.994 256.95 263.736C245.236 257.301 235.819 245.569 230.426 230.701C224.568 214.541 224.726 198.991 230.865 186.906C237.517 173.828 251.775 163.938 271.014 159.052C284.815 155.549 299.581 154.767 313.866 154.013C316.664 153.866 319.456 153.717 322.245 153.545C346.208 152.102 367.192 148.294 385.622 142.003C386.303 139.692 386.886 137.373 387.361 135.034C388.111 131.354 388.812 127.726 389.484 124.214C392.027 110.965 394.425 98.4514 399.426 84.9186L399.593 84.4705C405.234 69.2008 416.973 37.4333 406.669 19.2632C403.181 13.1131 397.498 9.14314 389.294 7.13288C385.304 6.15716 380.771 6.37921 376.188 7.77258C357.542 13.4497 348.071 32.8039 347.235 66.9241C346.634 91.6473 345.878 122.419 322.025 136.11C314.777 140.269 306.968 141.08 300.601 138.327C293.42 135.223 289.396 128.56 285.893 122.007L256.217 66.4844C245.416 46.272 234.43 36.3596 222.637 36.1701C211.747 35.9953 204.317 45.2002 202.6 54.3862C200.822 63.8806 203.341 74.4227 205.778 84.6194L206.338 86.9705C210.273 103.61 212.907 120.953 205.55 135.071C201.48 142.879 194.82 148.725 188.38 154.379C184.299 157.963 180.077 161.669 176.704 165.756C160.462 185.451 178.476 221.882 192.949 251.152C198.069 261.504 202.902 271.282 205.747 279.347C219.389 317.983 222.632 359.106 215.126 398.266C207.612 437.456 189.693 472.837 163.302 500.596C161.788 502.187 160.155 503.829 158.405 505.426L158.411 505.429ZM143.555 606.441C139.787 604.533 136.404 603.581 133.023 603.439C129.912 603.309 125.354 604.232 119.784 606.024C129.48 609.184 138.975 613.555 147.699 618.982C146.47 614.992 145.55 611.068 144.947 607.18C144.473 606.92 144.014 606.674 143.555 606.441ZM93.5136 299.107C86.6845 295.649 77.8882 294.889 71.4519 297.404C68.4407 298.584 64.6997 300.998 63.9722 305.823C63.1249 311.452 66.5026 318.038 69.7668 324.4C74.1899 333.023 78.7593 341.934 74.1221 350.132C70.3334 356.831 62.6071 358.652 55.1357 360.416C49.7053 361.698 44.5727 362.91 41.1948 365.819C33.6557 372.327 37.4464 386.093 45.4613 395.642C49.3188 400.244 54.0436 404.482 58.6074 408.577C64.2245 413.62 70.0318 418.836 74.6119 424.986C82.8807 436.088 86.1942 448.803 89.3962 461.102C90.777 466.414 92.2104 471.911 94.0121 477.125C99.6325 493.353 113.518 510.964 130.734 511.292C139.43 511.455 146.778 507.008 152.76 501.787C156.968 488.585 160.864 474.396 164.39 459.321C178.059 400.924 184.875 335.363 183.297 278.244C159.882 299.514 143.232 327.357 134.976 359.18C134.966 359.216 134.961 359.255 134.95 359.291L150.254 399.474C154.359 410.252 162.933 437.2 153.867 454.574C150.399 461.214 144.771 465.542 137.138 467.439C135.475 467.848 133.714 466.888 133.163 465.274C121.349 430.641 119.654 394.077 128.237 359.398L119.843 337.355C114.071 322.198 108.315 308.98 96.3461 300.776C95.4517 300.164 94.5066 299.61 93.5136 299.107ZM132.442 370.455C126.774 400.144 128.734 430.978 138.23 460.453C142.643 458.732 145.888 455.797 148.099 451.557C153.611 440.993 152.164 422.245 144.233 401.411L132.442 370.455ZM353.457 335.067C349.934 335.455 346.831 335.903 344.257 336.315C335.175 337.789 330.254 340.622 329.62 344.741C328.891 349.482 333.673 354.926 343.832 360.934C346.28 362.381 349.325 364.178 352.004 364.241C355.807 364.327 358.426 360.695 358.758 357.135C359.113 353.311 357.781 349.193 356.367 344.832C356.159 344.201 355.96 343.568 355.758 342.94C355.07 340.759 354.271 338.087 353.457 335.067ZM475.284 397.385C476.21 400.094 477.166 402.846 478.171 405.527C484.388 422.119 492.035 432.864 502.246 439.348C509.249 443.793 518.599 445.567 526.072 443.874C529.471 443.098 534.039 441.24 536.49 436.769C541.486 427.653 534.095 414.485 524.064 407.905C512.806 400.518 498.641 398.699 486.276 397.895C482.622 397.656 478.955 397.487 475.284 397.385ZM383.088 149.51C365.328 155.034 345.388 158.43 322.928 159.783C320.124 159.954 317.312 160.1 314.5 160.246C300.527 160.987 286.084 161.751 272.892 165.1C255.384 169.541 242.514 178.336 236.655 189.865C231.264 200.462 231.203 214.311 236.479 228.863C239.286 236.598 246.056 250.711 259.915 258.329C279.199 268.922 302.58 261.736 317.207 249.923C331.953 238.004 341.821 221.672 351.368 205.877C353.902 201.689 356.531 197.516 359.323 193.106C368.235 178.995 377.382 164.518 383.08 149.512L383.088 149.51Z" fill="#F5F3F1"/>
</svg>
