<svg width="448" height="793" viewBox="0 0 448 793" fill="none" xmlns="http://www.w3.org/2000/svg">
<path d="M-58.0412 791.877C-58.2258 791.788 -58.4044 791.677 -58.566 791.544C-59.1437 791.072 -59.4578 790.392 -59.4261 789.695C-58.0002 758.601 -54.3611 727.348 -48.6111 696.808C-46.6885 686.596 -44.5256 676.431 -42.1262 666.329C-41.7297 663.729 -41.1383 661.303 -40.3559 659.058C-38.5399 651.785 -36.6079 644.543 -34.553 637.35C-36.5174 634.5 -37.8837 631.614 -38.616 628.749C-45.4282 602.028 -43.8764 581.999 -34.0019 569.22C-25.9907 558.853 -15.0424 556.523 -10.9168 555.646C-10.5114 555.557 -10.0908 555.471 -9.9458 555.426C-9.34851 555.245 -8.7418 555.099 -8.1345 554.983C-12.553 544.287 -10.3753 530.939 -5.52515 521.126C0.509456 508.923 11.2714 500.23 24.204 496.754C28.5608 489.045 33.0718 481.431 37.7353 473.926C42.9302 465.56 49.4026 455.975 57.9861 448.305C67.4851 439.821 78.1499 434.863 90.591 433.153C97.3588 432.223 104.695 432.379 112.15 433.51C111.39 432.59 111.453 431.3 112.35 430.521C125.899 418.711 138.364 397.527 148.636 369.286C144.619 371.566 140.01 373.108 134.742 373.016C127.48 372.886 120.366 369.677 114.182 363.736C109.009 358.772 104.756 352.172 102.203 345.151C100.774 341.223 99.6676 337.177 98.5964 333.262C96.1837 324.439 93.9027 316.109 88.2228 308.846C85.0567 304.804 81.0406 301.369 76.7876 297.734C73.1991 294.67 69.4865 291.495 66.3341 287.918C58.8999 279.486 55.3781 266.925 63.4983 260.258C66.9083 257.455 71.5445 256.415 76.0311 255.408C80.9317 254.306 85.5614 253.267 87.4569 250.074C89.7696 246.185 87.0222 241.089 84.112 235.694C81.2946 230.469 78.3843 225.065 79.2481 219.606C79.9244 215.327 82.9404 211.986 87.7402 210.197C94.8523 207.549 104.526 208.772 111.27 213.173C121.535 219.869 126.427 230.524 130.931 241.779L134.887 251.669C142.363 228.744 156.156 208.858 175.044 193.884C175.745 193.329 176.75 193.211 177.622 193.586C178.492 193.965 179.076 194.76 179.111 195.634C180.909 238.308 175.714 288.103 164.859 332.25C162.961 339.972 160.919 347.381 158.75 354.454C176.445 335.556 188.507 312 193.731 286.051C199.262 258.59 196.872 229.749 186.822 202.654C184.762 197.102 181.164 190.18 177.357 182.848C165.801 160.61 151.424 132.934 165.575 116.6C168.356 113.39 171.69 110.606 174.917 107.91C179.695 103.918 184.207 100.146 186.901 95.2203C191.789 86.2875 189.898 74.7214 187.118 63.5542L186.695 61.87C184.738 54.0746 182.713 46.0119 184.236 38.2588C185.882 29.8669 193.222 21.4585 204.066 21.6255C215.03 21.7954 224.795 29.7806 233.93 46.0435L256.399 86.0551C258.722 90.1897 261.133 94.0428 265.045 95.6488C269.798 97.6052 274.876 95.3223 276.837 94.2494C292.703 85.5834 293.237 64.7349 293.668 47.9882C293.962 36.5879 295.598 27.5037 298.664 20.2146C302.806 10.3845 309.585 4.04274 318.813 1.36785C323.129 0.11874 327.473 -0.0653953 331.371 0.846173C338.935 2.60734 344.453 6.33269 347.781 11.9181C356.671 26.8372 347.281 51.0134 342.774 62.6313L342.648 62.9542C338.99 72.3795 337.207 81.2289 335.32 90.6007C334.807 93.1394 334.279 95.7701 333.703 98.4481C333.562 99.1126 333.403 99.7787 333.242 100.439C339.751 98.0036 345.816 95.1452 351.472 91.8503C369.926 81.1126 385.176 65.0581 398.093 42.7763C399.893 39.6714 401.932 36.1538 405.809 34.1597C409.903 32.0461 414.592 32.0977 419.374 34.3022C427.463 38.0358 434.848 47.6994 436.56 56.7825C441.583 83.329 425.952 109.685 399.399 119.446C397.687 120.076 395.89 120.67 394.153 121.243C386.598 123.738 379.462 126.095 376.608 131.657C373.166 138.366 377.493 146.372 382.076 154.844C386.202 162.469 390.46 170.357 389.593 178.247C387.853 194.024 367.369 199.956 348.784 200.245C346.71 200.277 344.283 200.234 341.713 200.192C330.449 199.996 313.426 199.697 307.75 206.207C302.955 211.705 303.899 224.311 306.933 236.637C336.276 234.361 369.352 240.242 384.985 263.21C389.032 269.157 391.584 275.575 393.881 281.9C397.248 281.967 400.6 282.107 403.939 282.311C413.969 282.933 425.509 284.372 435.042 290.322C444.43 296.181 451.355 308.075 446.174 317.071C444.066 320.73 440.3 323.236 435.275 324.323C428.271 325.836 419.884 324.337 413.387 320.409C404.671 315.137 398.23 306.641 393.126 293.671C392.17 291.242 391.279 288.759 390.421 286.352C355.049 286.167 318.541 293.772 284.01 308.603C237.83 328.437 202.419 351.88 175.769 380.272C162.004 394.934 154.157 407.175 151.069 418.799C149.63 424.221 149.211 429.496 149.852 434.968C150.434 435.318 150.976 435.659 151.481 435.987C158.785 440.728 161.393 454.717 161.78 462.235C163.373 492.96 148.05 521.418 132.217 547.926C105.512 592.644 77.2188 635.314 47.5693 675.623C49.5902 677.927 51.5231 680.294 53.3571 682.723C53.981 683.547 53.9678 684.627 53.3233 685.388C52.6789 686.148 51.5585 686.411 50.5539 686.036C47.7702 684.999 44.9967 683.922 42.2443 682.815C17.5634 715.958 -8.04081 747.466 -34.4303 777.161C-40.4475 783.929 -47.1055 790.658 -56.482 792.11C-57.0115 792.194 -57.5598 792.104 -58.0347 791.875L-58.0412 791.877ZM-41.7512 687.326C-42.4655 690.799 -43.1468 694.284 -43.8085 697.772C-49.3326 727.09 -52.8928 757.066 -54.4065 786.926C-48.1276 784.853 -43.1679 779.743 -38.258 774.215C-31.3444 766.438 -24.4942 758.54 -17.6922 750.515C-27.6374 733.792 -35.9012 713.842 -39.901 696.869C-40.677 693.565 -41.296 690.381 -41.7578 687.328L-41.7512 687.326ZM-37.4034 667.653C-38.7007 676.91 -37.1955 687.378 -35.1375 696.1C-31.3777 712.065 -23.7338 730.744 -14.4786 746.716C3.28896 725.601 20.6739 703.643 37.6189 680.92C17.2588 672.389 -2.23544 661.979 -20.492 649.882C-21.913 648.938 -23.3541 647.97 -24.7659 646.945C-26.4702 648.053 -28.1477 649.412 -29.8093 651.024C-32.4341 653.571 -34.3006 656.689 -35.5745 660.156C-36.1973 662.652 -36.8068 665.154 -37.4011 667.659L-37.4034 667.653ZM-30.7536 641.927C-31.1865 643.468 -31.6106 645.013 -32.0302 646.56C-30.9179 645.571 -29.7993 644.674 -28.6593 643.873C-29.3772 643.248 -30.0782 642.601 -30.7492 641.929L-30.7536 641.927ZM-20.2275 644.607C-19.4107 645.17 -18.5875 645.721 -17.7755 646.262C0.481049 658.359 19.99 668.742 40.3751 677.214C40.7376 676.726 41.1022 676.234 41.4603 675.744C31.5699 665.122 19.6316 656.07 6.3962 649.214C1.62657 646.746 -4.67798 643.842 -11.1744 643.318C-14.3015 643.067 -17.3107 643.491 -20.2275 644.607ZM-29.2647 636.694C-27.9132 638.407 -26.284 639.959 -24.5263 641.404C-20.236 639.296 -15.7461 638.449 -10.9682 638.833C-3.51881 639.432 3.41831 642.611 8.63013 645.307C22.0106 652.233 34.1196 661.327 44.2327 671.977C73.531 632.072 101.5 589.848 127.921 545.617C143.429 519.65 158.443 491.82 156.908 462.25C156.54 455.185 154.495 446.679 151.242 442.112C152.03 445.008 153.095 447.993 154.44 451.108C154.851 452.054 154.543 453.106 153.689 453.691C152.834 454.276 151.64 454.249 150.757 453.624C141.324 446.951 130.161 442.05 118.95 439.373C110.969 442.485 101.455 447.05 91.8193 452.513C72.5736 463.423 58.153 474.899 55.923 481.065C53.8336 486.861 52.9779 491.856 53.4612 496.31C62.0326 497.709 70.6518 500.084 79.379 502.629C85.0949 504.297 91.8349 506.982 93.2241 512.969C93.7936 515.421 93.1892 517.966 91.5169 520.13C89.4819 522.773 86.1603 524.551 82.6423 524.894C76.3863 525.503 70.5671 522.484 66.7322 520.158C57.0435 514.283 51.3285 507.881 49.3116 500.231C44.147 499.566 39.0235 499.325 33.9516 499.697C31.7949 499.853 29.6807 500.17 27.6193 500.627C17.6907 518.314 8.59066 536.5 0.384294 555.061C2.82663 555.471 5.2589 556.139 7.63581 556.871C35.4315 565.421 60.639 580.628 80.528 600.853C81.3147 601.65 81.4166 602.826 80.7761 603.673C80.1311 604.519 78.9178 604.811 77.8575 604.375C55.753 595.283 33.8713 585.028 12.8145 573.889C6.87749 570.749 1.19586 567.533 -3.03047 562.949C-6.11442 570.18 -9.06439 577.47 -11.8763 584.801C-18.3709 601.761 -24.1764 619.097 -29.2626 636.69L-29.2647 636.694ZM-6.82507 559.377C-7.30457 559.46 -7.77259 559.573 -8.23789 559.713C-8.58629 559.819 -9.01994 559.909 -9.61823 560.039C-42.1942 566.967 -40.7876 600.771 -33.8692 627.907C-33.6019 628.968 -33.2169 630.035 -32.7316 631.111C-27.9168 614.857 -22.4921 598.838 -16.4797 583.136C-13.4215 575.161 -10.2034 567.238 -6.82507 559.377ZM0.108715 559.563C3.81749 563.852 9.09842 566.846 15.0838 570.009C32.3006 579.113 50.0717 587.626 68.0629 595.389C50.3795 579.95 29.2473 568.202 6.29094 561.142C4.24696 560.511 2.16273 559.935 0.113106 559.565L0.108715 559.563ZM20.8879 502.721C11.4196 506.541 3.61571 513.674 -1.06707 523.149C-5.3544 531.823 -7.41629 543.448 -3.92525 552.735C3.61761 535.723 11.9046 519.014 20.8879 502.721ZM54.5575 501.044C56.6499 506.807 61.4614 511.692 69.2789 516.431C74.3371 519.502 78.3555 520.77 81.9213 520.42C84.1029 520.206 86.244 519.055 87.5131 517.414C88.1475 516.588 88.8312 515.283 88.4713 513.729C87.6373 510.137 82.4974 508.204 78.1108 506.922C70.1588 504.6 62.31 502.428 54.5619 501.047L54.5575 501.044ZM110.649 437.805C104.027 436.882 97.5351 436.789 91.5295 437.612C65.8091 441.146 52.4786 459.436 42.0023 476.301C38.0708 482.629 34.2495 489.031 30.5386 495.505C31.4702 495.381 32.4132 495.287 33.359 495.22C38.42 494.848 43.4815 495.039 48.5576 495.631C48.208 490.788 49.1419 485.457 51.2995 479.48C55.2435 468.553 81.2611 453.122 89.1402 448.656C95.6265 444.979 103.242 441.064 110.647 437.809L110.649 437.805ZM155.575 364.292C144.633 396.516 130.89 420.697 115.783 433.87C115.691 433.95 115.592 434.022 115.493 434.084C116.431 434.262 117.377 434.454 118.315 434.662C125.453 431.966 131.913 430.25 136.343 430.426C139.417 430.547 142.279 431.343 144.808 432.393C143.829 414.942 152.453 398.086 172.02 377.24C199.105 348.389 235.01 324.596 281.788 304.507C316.477 289.607 353.164 281.87 388.79 281.848C386.671 276.093 384.393 270.62 380.896 265.481C373.195 254.17 360.357 246.603 342.728 242.991C330.155 240.416 317.744 240.397 308.126 241.094C308.611 242.778 309.123 244.44 309.663 246.061C309.809 246.505 309.961 246.947 310.112 247.394C311.28 250.832 312.488 254.384 312.13 258.039C311.693 262.503 308.087 267.18 302.269 267.052C298.904 266.981 295.83 265.25 293.584 263.988C289.995 261.97 279.075 255.826 280.396 247.641C281.206 242.639 286.213 239.391 295.288 237.988C297.517 237.642 299.793 237.343 302.094 237.091C299.326 225.775 297.401 210.744 303.907 203.289C310.997 195.158 328.682 195.467 341.591 195.692C344.115 195.737 346.498 195.779 348.485 195.745C365.079 195.488 383.315 190.586 384.746 177.596C385.472 171.018 381.54 163.746 377.737 156.711C372.826 147.626 367.748 138.232 372.191 129.578C375.858 122.434 384.234 119.668 392.337 116.994C394.115 116.406 395.791 115.853 397.431 115.253C421.966 106.235 436.41 81.8874 431.769 57.3642C430.33 49.7483 423.996 41.3838 417.36 38.3153C414.061 36.7906 411.025 36.7229 408.329 38.1099C405.624 39.5029 403.997 42.3122 402.419 45.0301C389.119 67.9746 373.348 84.5456 354.207 95.6851C347.279 99.7176 339.769 103.12 331.619 105.916C327.33 118.436 319.504 130.229 311.889 141.695C309.789 144.859 307.806 147.851 305.913 150.831C298.486 162.526 290.81 174.621 279.034 183.678C266.979 192.949 247.689 198.575 231.275 190.665C230.91 190.489 230.55 190.306 230.184 190.12C221.315 185.482 214.185 177.028 210.102 166.314C205.667 154.667 205.786 143.462 210.434 134.753C215.471 125.329 226.266 118.201 240.833 114.68C251.283 112.156 262.463 111.593 273.279 111.049C275.397 110.943 277.512 110.836 279.623 110.712C297.767 109.672 313.655 106.928 327.61 102.394C328.125 100.729 328.566 99.0576 328.927 97.3723C329.494 94.7203 330.025 92.1057 330.534 89.575C332.459 80.027 334.275 71.0095 338.061 61.2573L338.188 60.9344C342.459 49.9305 351.347 27.0378 343.545 13.9438C340.905 9.51178 336.602 6.65089 330.39 5.20223C327.369 4.49909 323.936 4.65911 320.466 5.66322C306.349 9.75435 299.178 23.7016 298.545 48.2898C298.089 66.1063 297.517 88.2817 279.456 98.1477C273.969 101.145 268.056 101.73 263.236 99.7453C257.798 97.5087 254.751 92.7067 252.099 87.9846L229.63 47.973C221.452 33.4073 213.133 26.264 204.204 26.1275C195.959 26.0015 190.333 32.6349 189.033 39.2546C187.687 46.0966 189.594 53.6936 191.44 61.0417L191.863 62.736C194.842 74.7269 196.837 87.225 191.267 97.3987C188.185 103.026 183.142 107.239 178.267 111.313C175.177 113.896 171.98 116.566 169.426 119.512C157.128 133.705 170.767 159.958 181.725 181.051C185.602 188.511 189.262 195.557 191.416 201.37C201.745 229.212 204.2 258.847 198.517 287.066C192.828 315.308 179.261 340.805 159.278 360.809C158.132 361.956 156.895 363.139 155.571 364.29L155.575 364.292ZM144.327 437.085C141.473 435.71 138.912 435.024 136.352 434.921C133.997 434.828 130.546 435.492 126.329 436.784C133.67 439.061 140.859 442.211 147.465 446.122C146.534 443.247 145.837 440.419 145.381 437.617C145.022 437.43 144.674 437.252 144.327 437.085ZM106.438 215.609C101.267 213.117 94.6067 212.569 89.7334 214.382C87.4535 215.232 84.621 216.972 84.0701 220.449C83.4285 224.506 85.986 229.251 88.4576 233.836C91.8065 240.05 95.2662 246.471 91.7552 252.38C88.8865 257.207 83.0365 258.519 77.3795 259.79C73.2678 260.714 69.3816 261.588 66.824 263.684C61.1157 268.374 63.9859 278.294 70.0544 285.175C72.9752 288.492 76.5526 291.546 80.0081 294.497C84.2612 298.131 88.6582 301.89 92.126 306.322C98.3868 314.322 100.896 323.485 103.32 332.348C104.366 336.176 105.451 340.138 106.815 343.895C111.071 355.589 121.584 368.28 134.619 368.516C141.203 368.634 146.767 365.43 151.296 361.667C154.483 352.154 157.433 341.928 160.102 331.064C170.452 288.982 175.613 241.737 174.418 200.574C156.689 215.903 144.082 235.967 137.831 258.899C137.823 258.925 137.819 258.953 137.811 258.979L149.399 287.937C152.507 295.704 158.999 315.124 152.135 327.644C149.509 332.429 145.247 335.548 139.468 336.915C138.209 337.21 136.876 336.518 136.459 335.355C127.513 310.397 126.23 284.048 132.729 259.057L126.373 243.172C122.003 232.249 117.645 222.724 108.582 216.812C107.905 216.371 107.189 215.971 106.438 215.609ZM135.913 267.025C131.621 288.42 133.105 310.639 140.295 331.881C143.636 330.64 146.093 328.525 147.767 325.469C151.941 317.857 150.845 304.347 144.84 289.333L135.913 267.025ZM303.256 241.523C300.588 241.802 298.239 242.126 296.289 242.422C289.413 243.484 285.688 245.526 285.207 248.494C284.655 251.911 288.276 255.834 295.968 260.163C297.822 261.206 300.127 262.502 302.155 262.547C305.035 262.609 307.018 259.991 307.269 257.426C307.538 254.67 306.53 251.702 305.459 248.56C305.301 248.106 305.151 247.649 304.998 247.197C304.477 245.625 303.872 243.699 303.256 241.523ZM395.498 286.431C396.199 288.384 396.922 290.367 397.684 292.299C402.391 304.255 408.181 311.999 415.912 316.672C421.215 319.875 428.294 321.153 433.952 319.933C436.525 319.374 439.984 318.035 441.84 314.813C445.623 308.244 440.027 298.754 432.432 294.013C423.908 288.689 413.183 287.378 403.82 286.799C401.054 286.627 398.278 286.505 395.498 286.431ZM325.691 107.804C312.244 111.785 297.146 114.232 280.14 115.207C278.017 115.331 275.888 115.436 273.759 115.541C263.179 116.075 252.243 116.626 242.255 119.039C228.999 122.239 219.254 128.577 214.818 136.885C210.737 144.522 210.69 154.502 214.684 164.988C216.81 170.563 221.936 180.733 232.43 186.223C247.03 193.857 264.734 188.678 275.809 180.165C286.973 171.576 294.445 159.807 301.674 148.424C303.593 145.406 305.583 142.399 307.697 139.221C314.445 129.052 321.371 118.62 325.685 107.806L325.691 107.804Z" fill="#F5F3F1"/>
</svg>
