<svg width="338" height="612" viewBox="0 0 338 612" fill="none" xmlns="http://www.w3.org/2000/svg">
<path opacity="0.66" d="M335.591 611.225C335.461 611.296 335.319 611.355 335.169 611.394C334.635 611.534 334.067 611.429 333.623 611.111C313.805 596.934 294.743 581.374 276.969 564.866C271.025 559.346 265.206 553.703 259.52 547.947C257.97 546.597 256.611 545.206 255.444 543.779C251.385 539.582 247.391 535.33 243.477 531.026C240.846 530.97 238.424 530.544 236.262 529.751C216.108 522.341 203.589 512.832 199.054 501.489C195.374 492.287 198.103 484.786 199.131 481.96C199.231 481.681 199.338 481.394 199.365 481.289C199.478 480.857 199.618 480.434 199.778 480.023C191.054 478.062 183.154 471.046 178.61 463.958C172.96 455.143 171.447 445.024 174.195 435.854C170.838 429.962 167.603 424.018 164.497 418.031C161.035 411.359 157.271 403.406 155.581 395.02C153.714 385.741 154.61 377.282 158.325 369.161C160.346 364.743 163.299 360.453 166.937 356.51C166.039 356.568 165.218 355.977 165.056 355.111C162.584 342 153.548 325.516 139.038 307.307C138.971 310.671 138.19 314.069 136.082 317.158C133.175 321.415 128.308 324.264 122.012 325.39C116.75 326.333 110.773 326.03 105.181 324.536C102.052 323.7 98.9707 322.623 95.9894 321.58C89.2715 319.231 82.9272 317.014 75.9619 317.274C72.083 317.421 68.2715 318.333 64.2377 319.301C60.8351 320.118 57.3125 320.962 53.7437 321.3C45.3305 322.1 35.7319 318.806 34.5193 311.126C34.0086 307.899 35.1288 304.7 36.2123 301.603C37.3946 298.22 38.5136 295.026 37.1581 292.531C35.5088 289.49 31.102 288.937 26.4369 288.353C21.9187 287.786 17.247 287.197 14.0058 284.344C11.4651 282.107 10.4483 278.884 11.1417 275.267C12.1708 269.908 16.7315 264.687 22.2357 262.569C30.6115 259.343 39.4937 261.006 48.6182 263.157L56.6353 265.048C44.521 250.779 36.8519 234.062 34.3812 216.425C34.2904 215.771 34.6036 215.123 35.1883 214.766C35.7748 214.412 36.5226 214.406 37.1088 214.76C65.7662 231.988 96.3721 256.421 121.078 281.795C125.399 286.233 129.459 290.622 133.251 294.942C127.746 276.332 117 259.069 102.029 244.842C86.1864 229.784 66.3624 218.838 44.7045 213.19C40.2661 212.033 34.3327 211.202 28.05 210.32C8.98898 207.648 -14.7304 204.322 -19.9331 188.915C-20.9553 185.887 -21.4835 182.713 -21.9958 179.641C-22.7548 175.092 -23.4723 170.796 -25.6525 167.083C-29.6057 160.351 -37.9183 156.515 -46.3151 153.378L-47.5831 152.908C-53.4509 150.728 -59.5203 148.474 -64.008 144.245C-68.8667 139.67 -71.5229 131.706 -67.1995 125.338C-62.8276 118.899 -53.8008 116.523 -39.5958 118.071L-4.64935 121.881C-1.03765 122.274 2.42379 122.494 4.99626 120.859C8.12508 118.875 8.60251 114.881 8.66198 113.256C9.14999 100.118 -4.30196 90.863 -15.1065 83.4273C-22.4614 78.365 -27.7774 73.4988 -31.3618 68.5533C-36.1925 61.8789 -37.713 55.1341 -35.8794 48.5071C-35.0204 45.4082 -33.4528 42.7493 -31.3407 40.8252C-27.2474 37.0881 -22.6624 35.4085 -17.7097 35.8269C-4.4803 36.9434 7.71051 52.8845 13.5707 60.5421L13.7332 60.7555C18.4868 66.969 23.592 71.8214 28.9989 76.9601C30.4627 78.3531 31.9809 79.795 33.5118 81.2849C33.8922 81.6537 34.267 82.0335 34.6369 82.412C35.5709 77.5025 36.0551 72.6751 36.0943 67.9037C36.231 52.3405 31.6387 36.401 22.0601 19.1769C20.7251 16.7771 19.213 14.058 19.4131 10.9007C19.6195 7.563 21.4753 4.80067 24.7779 2.90605C30.3676 -0.297223 39.5688 -0.539912 46.1854 2.33723C65.5301 10.7351 76.7236 31.3178 72.7991 51.2719C72.5469 52.5588 72.2376 53.8809 71.9384 55.1582C70.6365 60.7143 69.4082 65.9626 71.9432 70.042C75.0005 74.9627 81.9276 75.825 89.2598 76.7359C95.8588 77.5544 102.681 78.4074 107.513 82.3051C117.174 90.1022 113.1 104.811 106.067 115.972C105.282 117.217 104.311 118.64 103.285 120.148C98.779 126.754 91.9677 136.735 94.0266 142.897C95.7658 148.102 104.392 152.945 113.646 156.428C123.558 138.026 140.266 120.905 161.389 121.468C166.858 121.614 172.054 122.85 177.091 124.197C178.444 122.226 179.838 120.296 181.269 118.4C185.574 112.71 191.002 106.474 198.605 103.363C206.092 100.3 216.575 101.287 220.456 108.22C222.034 111.041 222.212 114.352 220.971 117.802C219.241 122.611 215 126.948 209.901 129.123C203.06 132.039 194.991 132.221 184.51 129.692C182.546 129.219 180.574 128.683 178.663 128.161C164.796 149.088 155.591 174.029 151.888 200.896C146.937 236.824 148.535 267.904 156.78 295.904C161.037 310.365 166.007 320.273 172.423 327.09C175.416 330.269 178.709 332.78 182.543 334.745C182.999 334.55 183.433 334.374 183.844 334.214C189.789 331.909 199.968 336.358 205.044 339.351C225.793 351.577 238.483 372.879 249.698 393.646C268.618 428.677 285.579 463.774 300.466 498.664C302.761 498.451 305.063 498.318 307.367 498.27C308.149 498.253 308.851 498.724 309.1 499.433C309.348 500.142 309.084 500.92 308.449 501.356C306.687 502.564 304.903 503.749 303.108 504.909C315.232 533.776 325.925 562.49 335.124 590.893C337.221 597.369 339.042 604.208 336.349 610.399C336.199 610.749 335.927 611.036 335.592 611.22L335.591 611.225ZM273.422 556.727C275.42 558.64 277.438 560.538 279.467 562.427C296.528 578.277 314.784 593.242 333.759 606.943C334.841 602.326 333.421 597.189 331.707 591.904C329.298 584.463 326.786 577.009 324.172 569.529C309.35 568.266 293.068 564.621 280.394 559.719C277.927 558.763 275.601 557.766 273.421 556.731L273.422 556.727ZM262.222 545.71C267.783 550.449 275.227 554.043 281.741 556.56C293.662 561.172 308.871 564.641 322.932 565.992C316.002 546.388 308.372 526.649 300.069 506.844C286.568 515.278 272.172 522.392 257.152 528.048C255.981 528.487 254.786 528.928 253.567 529.327C253.63 530.814 253.869 532.393 254.279 534.071C254.928 536.722 256.245 539.167 258.022 541.41C259.415 542.85 260.817 544.285 262.227 545.711L262.222 545.71ZM247.952 530.732C248.793 531.649 249.64 532.563 250.491 533.476C250.275 532.391 250.123 531.343 250.041 530.322C249.352 530.481 248.656 530.62 247.955 530.73L247.952 530.732ZM253.798 525.629C254.485 525.386 255.166 525.133 255.836 524.883C270.856 519.227 285.24 512.092 298.713 503.618C298.534 503.194 298.353 502.766 298.171 502.343C287.368 503.663 276.798 506.872 267.163 511.793C263.692 513.568 259.34 516.067 256.472 519.7C255.092 521.45 254.201 523.419 253.798 525.629ZM245.102 527.604C246.749 527.535 248.4 527.234 250.029 526.809C250.315 523.357 251.505 520.328 253.613 517.655C256.901 513.488 261.679 510.731 265.471 508.791C275.209 503.814 285.873 500.522 296.78 499.082C282.022 464.574 265.227 429.861 246.515 395.207C235.529 374.865 223.13 354.017 203.16 342.251C198.388 339.441 192.021 337.008 187.764 336.982C189.968 337.756 192.338 338.403 194.901 338.94C195.68 339.101 196.251 339.735 196.302 340.494C196.353 341.252 195.871 341.949 195.118 342.206C187.08 344.947 179.531 349.475 173.421 354.986C172.358 361.059 171.652 368.667 171.487 376.732C171.155 392.838 173.069 406.322 176.243 410.29C179.228 414.016 182.168 416.666 185.274 418.288C189.522 413.798 194.427 409.697 199.487 405.606C202.801 402.926 207.179 400.075 211.642 401.816C213.47 402.529 214.902 403.979 215.67 405.9C216.61 408.242 216.485 410.977 215.342 413.213C213.31 417.189 209.071 419.351 206.056 420.631C198.442 423.866 192.027 424.516 186.231 422.434C183.788 425.216 181.639 428.155 179.911 431.327C179.176 432.675 178.562 434.066 178.06 435.486C185.79 448.965 194.168 462.166 203.14 474.998C204.358 473.723 205.741 472.565 207.144 471.467C223.548 458.626 243.307 450.175 264.287 447.034C265.115 446.909 265.925 447.352 266.231 448.096C266.534 448.842 266.254 449.688 265.556 450.13C251.01 459.36 235.787 467.958 220.306 475.688C215.942 477.867 211.627 479.863 206.981 480.408C210.52 485.339 214.15 490.216 217.86 495.029C226.448 506.157 235.55 517.038 245.1 527.601L245.102 527.604ZM203.166 481.129C203.034 481.45 202.926 481.776 202.837 482.112C202.771 482.365 202.662 482.661 202.514 483.072C194.394 505.389 217.088 519.046 237.555 526.571C238.354 526.867 239.203 527.096 240.097 527.269C231.319 517.441 222.931 507.352 214.98 497.049C210.944 491.814 207.003 486.506 203.166 481.129ZM205.983 477.092C210.234 476.728 214.247 474.875 218.646 472.677C231.301 466.355 243.785 459.451 255.863 452.095C238.876 455.977 222.967 463.491 209.42 474.097C208.212 475.04 207.025 476.031 205.986 477.09L205.983 477.092ZM176.816 440.381C175.639 447.642 177.28 455.335 181.668 462.178C185.685 468.443 192.5 474.652 199.942 476.56C191.727 464.787 184 452.702 176.816 440.381ZM188.802 419.667C193.391 420.895 198.461 420.132 204.604 417.521C208.582 415.833 210.974 413.991 212.131 411.723C212.838 410.336 212.916 408.571 212.334 407.113C212.04 406.383 211.45 405.417 210.292 404.965C207.615 403.92 204.351 406.144 201.806 408.199C197.195 411.926 192.721 415.656 188.805 419.665L188.802 419.667ZM169.168 359.243C165.989 362.78 163.405 366.595 161.611 370.515C153.931 387.305 160.734 403.063 167.712 416.515C170.33 421.563 173.039 426.577 175.839 431.557C176.12 430.95 176.425 430.35 176.748 429.759C178.471 426.594 180.564 423.67 182.924 420.91C179.615 419.041 176.485 416.201 173.408 412.357C167.781 405.33 167.782 383.263 167.918 376.669C168.03 371.24 168.424 365.039 169.17 359.246L169.168 359.243ZM138.462 301.045C155.323 321.359 165.825 339.888 168.584 354.507C168.601 354.596 168.61 354.686 168.612 354.771C169.093 354.291 169.587 353.811 170.087 353.343C171.095 347.948 172.481 343.376 174.318 340.821C175.592 339.047 177.226 337.689 178.896 336.637C167.082 329.736 159.39 317.388 153.336 296.83C144.96 268.376 143.324 236.852 148.341 200.459C152.06 173.47 161.248 148.365 175.078 127.199C170.485 125.989 166.013 124.996 161.287 124.869C150.884 124.593 140.937 128.974 131.72 137.895C125.147 144.258 120.311 151.62 117.03 157.631C118.322 158.065 119.61 158.473 120.881 158.847C121.229 158.951 121.578 159.05 121.929 159.152C124.636 159.932 127.433 160.738 129.688 162.518C132.443 164.691 134.106 168.837 131.761 172.238C130.407 174.206 128.078 175.289 126.379 176.082C123.661 177.348 115.392 181.199 110.543 176.906C107.581 174.28 107.399 169.914 110.006 163.923C110.645 162.451 111.334 160.971 112.063 159.497C103.574 156.289 92.9773 150.988 90.6215 143.928C88.0494 136.232 95.1246 125.861 100.289 118.292C101.299 116.812 102.253 115.415 103.003 114.22C109.283 104.255 113.158 91.3236 105.203 84.9042C101.176 81.6531 94.8837 80.8705 88.7964 80.1127C80.936 79.1344 72.8077 78.1227 68.8642 71.7743C65.6089 66.5339 67.0521 60.3732 68.4488 54.415C68.7541 53.1068 69.0434 51.8743 69.2878 50.6429C72.9138 32.2056 62.5751 13.1896 44.7045 5.43204C39.1555 3.02169 31.214 3.19687 26.6245 5.82268C24.3437 7.12792 23.1193 8.90211 22.9804 11.0978C22.842 13.3011 24.0505 15.4716 25.2178 17.5743C35.0817 35.31 39.8099 51.7803 39.6697 67.9234C39.6195 73.7664 38.9301 79.6857 37.5946 85.7243C44.131 93.6391 48.816 103.343 53.3689 112.781C54.6255 115.385 55.8153 117.845 57.0319 120.246C61.8083 129.672 66.749 139.416 68.1067 150.292C69.4966 161.426 65.6855 175.294 54.125 181.65C53.868 181.792 53.6073 181.927 53.3436 182.064C46.8584 185.343 38.5486 185.953 29.9421 183.785C20.5882 181.426 13.2932 176.551 9.39339 170.056C5.17623 163.025 4.70188 153.558 8.05597 143.398C10.4631 136.109 14.4386 129.228 18.2857 122.572C19.0399 121.268 19.791 119.967 20.5305 118.66C26.9001 107.439 31.2767 96.8263 33.7292 86.5954C32.8383 85.5753 31.9148 84.5969 30.9507 83.6604C29.4337 82.1864 27.927 80.75 26.4667 79.3629C20.9592 74.1262 15.7568 69.1818 10.839 62.7519L10.6766 62.5384C5.12693 55.2842 -6.41772 40.191 -18.0285 39.2107C-21.9584 38.8787 -25.505 40.2075 -28.8683 43.2758C-30.5029 44.7683 -31.732 46.8754 -32.4226 49.3666C-35.2286 59.5048 -28.8774 69.7431 -13.0138 80.6606C-1.51786 88.5693 12.7884 98.4165 12.2338 113.372C12.065 117.916 10.1503 121.678 6.97683 123.69C3.39826 125.961 -0.931747 125.711 -5.05643 125.262L-40.0029 121.452C-52.724 120.064 -60.6367 121.941 -64.1962 127.186C-67.4831 132.028 -65.3234 138.213 -61.4915 141.824C-57.5317 145.556 -51.8132 147.681 -46.2818 149.735L-45.0071 150.21C-35.9932 153.581 -27.0297 157.755 -22.5289 165.425C-20.0397 169.667 -19.2392 174.468 -18.4646 179.111C-17.9734 182.053 -17.4661 185.097 -16.5285 187.876C-12.0088 201.264 10.4918 204.42 28.5703 206.955C34.9644 207.851 41.0029 208.699 45.6483 209.911C67.9039 215.714 88.2739 226.961 104.554 242.435C120.846 257.921 132.279 276.91 137.619 297.353C137.926 298.525 138.22 299.767 138.459 301.047L138.462 301.045ZM181.783 338.934C179.774 340.039 178.329 341.266 177.267 342.742C176.29 344.101 175.385 346.435 174.592 349.494C178.937 346.11 183.794 343.191 188.924 340.945C186.678 340.265 184.555 339.466 182.542 338.536C182.279 338.669 182.028 338.799 181.783 338.934ZM21.9535 266.483C18.3116 268.485 15.3642 272.206 14.6582 275.877C14.329 277.595 14.3682 280.024 16.4323 281.841C18.8407 283.962 22.944 284.477 26.9083 284.975C32.2808 285.65 37.8326 286.349 40.339 290.967C42.3869 294.74 40.9734 298.777 39.6076 302.681C38.6152 305.52 37.6771 308.202 38.0568 310.62C38.9111 316.02 46.5259 318.569 53.3927 317.915C56.7004 317.602 60.0919 316.787 63.3682 316C67.4021 315.032 71.5733 314.033 75.8247 313.873C83.4995 313.585 90.4777 316.024 97.2267 318.384C100.141 319.404 103.158 320.458 106.15 321.258C115.465 323.745 127.866 322.942 133.087 315.302C135.722 311.442 135.785 306.764 135.08 302.461C130.085 296.49 124.532 290.354 118.452 284.112C94.9025 259.923 65.9543 236.603 38.5214 219.665C41.6745 236.765 49.9208 252.854 62.5165 266.399C62.5304 266.415 62.5473 266.429 62.5611 266.445L86.0365 271.978C92.3331 273.462 107.579 277.932 113.115 287.377C115.229 290.987 115.617 294.856 114.266 298.874C113.97 299.748 112.999 300.243 112.075 299.992C92.2466 294.605 74.4847 284.07 60.637 269.496L47.7593 266.46C38.9047 264.373 30.9702 262.877 23.5751 265.725C23.023 265.938 22.483 266.192 21.9535 266.483ZM67.0947 271.022C79.4443 282.743 94.5784 291.388 111.289 296.225C111.775 293.708 111.344 291.342 109.993 289.038C106.627 283.296 97.3497 278.155 85.1794 275.284L67.0947 271.022ZM115.419 160.707C114.565 162.411 113.863 163.945 113.3 165.23C111.324 169.769 111.214 172.857 112.972 174.414C114.996 176.207 118.973 175.739 124.799 173.027C126.203 172.373 127.947 171.559 128.765 170.374C129.925 168.691 128.981 166.391 127.398 165.142C125.697 163.8 123.36 163.127 120.885 162.416C120.526 162.314 120.169 162.208 119.813 162.105C118.58 161.74 117.084 161.274 115.419 160.707ZM180.688 125.18C182.24 125.601 183.82 126.021 185.382 126.397C195.045 128.728 202.368 128.609 208.434 126.021C212.593 124.245 216.182 120.589 217.581 116.705C218.215 114.938 218.682 112.31 217.292 109.826C214.458 104.763 206.066 104.018 200.008 106.496C193.208 109.276 188.181 115.083 184.163 120.395C182.975 121.964 181.817 123.561 180.688 125.18ZM36.5279 90.0541C33.9101 99.7467 29.6466 109.762 23.6764 120.28C22.9325 121.593 22.1738 122.903 21.4152 124.213C17.6536 130.724 13.7647 137.455 11.4639 144.422C8.4094 153.666 8.77508 162.171 12.4943 168.367C15.9114 174.065 22.4321 178.371 30.8548 180.495C35.333 181.623 43.9883 182.938 51.663 179.06C62.3387 173.662 65.8255 160.928 64.5519 150.701C63.2633 140.388 58.456 130.906 53.8076 121.732C52.5763 119.299 51.3793 116.828 50.1187 114.21C46.0785 105.843 41.9349 97.2569 36.5266 90.0587L36.5279 90.0541Z" fill="#F5F3F1"/>
</svg>
