<svg width="672" height="1269" viewBox="0 0 672 1269" fill="none" xmlns="http://www.w3.org/2000/svg">
<g style="mix-blend-mode:multiply" opacity="0.1">
<path d="M667.814 1268.16C667.559 1268.34 667.278 1268.49 666.981 1268.61C665.918 1269.01 664.763 1268.89 663.832 1268.29C622.351 1241.31 582.247 1211.2 544.639 1178.78C532.063 1167.94 519.724 1156.81 507.643 1145.42C504.374 1142.78 501.484 1140.03 498.979 1137.15C490.344 1128.83 481.836 1120.37 473.483 1111.78C468.171 1112.16 463.24 1111.69 458.796 1110.38C417.356 1098.14 391.092 1079.9 380.738 1056.17C372.338 1036.92 377.043 1020.15 378.817 1013.83C378.988 1013.21 379.173 1012.57 379.216 1012.33C379.4 1011.37 379.637 1010.43 379.916 1009.51C362.109 1006.91 345.429 993.201 335.509 978.7C323.176 960.664 319.047 939.02 323.615 918.624C316.216 906.489 309.058 894.22 302.158 881.831C294.464 868.026 286.026 851.502 281.726 833.647C276.972 813.89 277.88 795.387 284.509 777.082C288.115 767.124 293.615 757.268 300.534 748.033C298.728 748.328 297.01 747.203 296.592 745.356C290.21 717.409 270.231 683.392 239.026 646.675C239.248 653.977 238.035 661.49 234.112 668.585C228.701 678.361 219.187 685.457 206.608 689.089C196.094 692.13 184.006 692.604 172.567 690.425C166.168 689.206 159.838 687.453 153.713 685.759C139.913 681.938 126.881 678.335 112.859 680.216C105.051 681.269 97.4597 683.968 89.4262 686.829C82.65 689.244 75.6345 691.74 68.472 693.149C51.5873 696.476 31.8762 691.154 28.6133 674.736C27.2398 667.84 29.159 660.694 31.015 653.778C33.04 646.222 34.957 639.087 31.9577 633.936C28.3074 627.658 19.3599 627.293 9.88801 626.909C0.714285 626.536 -8.77149 626.145 -15.6127 620.574C-20.9752 616.208 -23.3691 609.414 -22.3553 601.443C-20.8496 589.634 -12.2059 577.455 -1.32907 571.822C15.2222 563.246 33.315 565.168 51.9483 568.103L68.3203 570.683C42.3672 542.051 25.12 507.271 18.2602 469.514C18.0074 468.114 18.5703 466.65 19.7117 465.766C20.857 464.888 22.3647 464.733 23.5847 465.389C83.2209 497.303 147.554 544.465 200.085 594.781C209.274 603.582 217.931 612.325 226.038 620.971C212.954 581.678 189.443 546.298 157.731 518.296C124.175 488.66 83.0245 468.689 38.7387 460.549C29.6631 458.881 17.6068 458.204 4.84048 457.481C-33.8908 455.299 -82.0877 452.579 -94.221 420.171C-96.6047 413.802 -98.0079 407.024 -99.368 400.462C-101.383 390.747 -103.287 381.571 -108.08 373.938C-116.77 360.096 -133.945 353.356 -151.215 348.147L-153.823 347.367C-165.89 343.752 -178.372 340.016 -187.874 331.701C-198.161 322.705 -204.366 305.946 -196.323 291.326C-188.189 276.545 -170.235 269.686 -141.418 270.35L-70.524 271.993C-63.1973 272.161 -56.192 271.982 -51.1771 267.952C-45.0771 263.06 -44.539 254.314 -44.592 250.78C-45.0052 222.214 -73.1231 204.701 -95.7074 190.631C-111.081 181.051 -122.321 171.511 -130.077 161.471C-140.531 147.919 -144.316 133.589 -141.322 118.879C-139.919 112 -137.04 105.94 -132.985 101.37C-125.126 92.496 -116.056 87.9876 -106.022 87.957C-79.2188 87.8726 -52.9336 120.115 -40.2986 135.602L-39.9483 136.034C-29.699 148.601 -18.8853 158.151 -7.43279 168.265C-4.3319 171.007 -1.11624 173.844 2.13005 176.784C2.93671 177.511 3.73306 178.263 4.51938 179.014C5.88108 168.196 6.34426 157.642 5.91571 147.293C4.53566 113.537 -6.42282 79.8594 -27.5756 44.3421C-30.5236 39.3938 -33.8629 33.7868 -33.7952 26.9059C-33.734 19.6329 -30.2846 13.2947 -23.8245 8.56323C-12.8907 0.562502 5.6428 -1.70529 19.2948 3.27793C59.2073 17.8171 83.9747 60.3079 78.1815 104.298C77.8097 107.135 77.3266 110.059 76.8589 112.884C74.8241 125.172 72.9049 136.78 78.452 145.141C85.1423 155.227 99.2062 155.785 114.092 156.371C127.49 156.896 141.342 157.453 151.503 164.986C171.819 180.056 165.167 212.705 152.167 238.227C150.716 241.075 148.909 244.342 146.999 247.805C138.614 262.975 125.937 285.898 130.746 298.863C134.807 309.815 152.722 318.678 171.759 324.475C189.793 282.716 221.672 242.445 264.338 239.666C275.385 238.947 285.998 240.643 296.3 242.609C298.82 238.082 301.426 233.634 304.112 229.254C312.19 216.107 322.474 201.564 337.479 193.382C352.255 185.326 373.505 185.48 382.071 199.772C385.554 205.587 386.265 212.73 384.13 220.442C381.151 231.192 373.058 241.396 363.005 247.073C349.516 254.689 333.26 256.612 311.849 253.114C307.839 252.46 303.804 251.672 299.895 250.902C274.149 298.884 258.235 354.683 253.626 413.612C247.46 492.418 253.99 559.478 273.599 618.602C283.725 649.137 294.804 669.671 308.471 683.231C314.845 689.555 331.626 694.882 339.568 698.416C340.466 697.906 331.452 696.933 332.265 696.51C344.01 690.389 365.015 698.105 375.572 703.63C418.724 726.201 446.587 769.965 471.417 812.853C513.306 885.195 551.252 958.051 584.99 1030.85C589.597 1029.96 594.226 1029.23 598.868 1028.69C600.444 1028.51 601.911 1029.39 602.487 1030.88C603.063 1032.37 602.614 1034.11 601.378 1035.17C597.954 1038.13 594.482 1041.03 590.985 1043.89C618.51 1104.16 643.133 1164.37 664.71 1224.18C669.627 1237.82 674.028 1252.3 669.256 1266.23C668.989 1267.01 668.471 1267.69 667.816 1268.15L667.814 1268.16ZM536.619 1161.81C540.853 1165.58 545.125 1169.31 549.417 1173.02C585.518 1204.15 623.932 1233.13 663.664 1259.23C665.355 1249.01 661.943 1238.15 657.924 1227.02C652.274 1211.35 646.415 1195.67 640.345 1179.95C610.315 1180.02 577.086 1175.2 550.999 1166.98C545.922 1165.37 541.124 1163.65 536.617 1161.82L536.619 1161.81ZM512.856 1140.06C524.577 1149.27 539.974 1155.66 553.38 1159.88C577.916 1167.62 608.962 1172.26 637.468 1172.52C621.405 1131.34 603.914 1090.01 585.061 1048.66C558.726 1069.49 530.444 1087.63 500.749 1102.74C498.435 1103.91 496.072 1105.09 493.654 1106.19C493.94 1109.4 494.59 1112.78 495.595 1116.33C497.187 1121.96 500.103 1127.01 503.926 1131.53C506.889 1134.39 509.871 1137.23 512.866 1140.06L512.856 1140.06ZM482.478 1110.29C484.273 1112.12 486.079 1113.94 487.892 1115.76C487.341 1113.45 486.922 1111.21 486.648 1109.01C485.276 1109.48 483.887 1109.92 482.485 1110.29L482.478 1110.29ZM493.729 1098.13C495.087 1097.47 496.434 1096.79 497.758 1096.13C527.453 1081.02 555.707 1062.84 581.982 1041.92C581.575 1041.04 581.165 1040.14 580.753 1039.26C559.104 1044.17 538.125 1053.12 519.213 1065.61C512.402 1070.11 503.889 1076.36 498.491 1084.77C495.894 1088.83 494.305 1093.26 493.729 1098.13ZM476.397 1104.05C479.713 1103.59 483.01 1102.63 486.252 1101.4C486.461 1093.86 488.539 1087.07 492.507 1080.88C498.695 1071.23 508.04 1064.35 515.482 1059.43C534.594 1046.8 555.754 1037.64 577.601 1032.46C544.161 960.459 506.593 888.403 465.163 816.839C440.84 774.829 413.613 731.991 372.08 710.271C362.157 705.084 349.055 701.018 340.466 701.766C344.993 703.027 349.842 703.98 355.07 704.659C356.659 704.861 357.876 706.127 358.06 707.761C358.243 709.395 357.346 710.998 355.855 711.696C339.934 719.158 325.189 730.401 313.45 743.502C311.952 756.866 311.337 773.488 311.862 790.999C312.907 825.97 318.203 854.832 325.026 862.832C331.444 870.341 337.656 875.528 344.093 878.456C352.184 867.92 361.641 858.103 371.411 848.278C377.811 841.843 386.339 834.834 395.525 837.764C399.288 838.964 402.331 841.835 404.085 845.853C406.231 850.75 406.268 856.701 404.202 861.765C400.525 870.767 392.204 876.255 386.26 879.6C371.246 888.053 358.375 890.675 346.463 887.26C341.832 893.752 337.81 900.529 334.663 907.73C333.323 910.791 332.233 913.923 331.372 917.095C348.396 944.846 366.7 971.871 386.162 997.983C388.482 994.989 391.149 992.218 393.863 989.573C425.584 958.636 464.54 936.58 506.523 925.801C508.18 925.373 509.861 926.181 510.558 927.735C511.249 929.293 510.774 931.179 509.413 932.271C481.054 955.028 451.264 976.545 420.86 996.229C412.289 1001.78 403.797 1006.92 394.486 1008.98C402.148 1019 409.988 1028.88 417.984 1038.61C436.49 1061.1 456.007 1082.96 476.393 1104.05L476.397 1104.05ZM386.866 1011.27C386.634 1011.99 386.452 1012.71 386.307 1013.46C386.201 1014.02 386.012 1014.68 385.759 1015.6C371.754 1065.51 418.982 1090.81 461.066 1103.24C462.708 1103.74 464.445 1104.07 466.266 1104.28C447.515 1084.64 429.524 1064.36 412.391 1043.53C403.691 1032.95 395.179 1022.19 386.866 1011.27ZM392.119 1001.98C400.655 1000.39 408.553 995.614 417.191 990.017C442.045 973.92 466.492 956.594 490.07 938.363C456.22 949.994 424.929 969.29 398.732 994.842C396.396 997.115 394.107 999.487 392.125 1001.98L392.119 1001.98ZM329.383 927.941C327.782 943.9 331.91 960.262 341.489 974.263C350.257 987.081 364.664 999.247 379.877 1001.97C362.055 978.013 345.184 953.283 329.383 927.941ZM351.356 880.777C360.742 882.569 370.888 879.956 383.001 873.134C390.844 868.724 395.474 864.277 397.566 859.143C398.844 856.002 398.814 852.162 397.485 849.114C396.814 847.586 395.522 845.605 393.138 844.843C387.627 843.086 381.279 848.523 376.366 853.46C367.461 862.411 358.834 871.342 351.362 880.772L351.356 880.777ZM305.324 753.534C299.289 761.801 294.483 770.56 291.281 779.395C277.576 817.238 292.974 850.103 308.48 877.938C314.298 888.383 320.296 898.737 326.474 908.999C326.975 907.632 327.526 906.273 328.116 904.932C331.255 897.746 335.164 891.012 339.632 884.582C332.759 881.158 326.144 875.595 319.527 867.847C307.43 853.682 305.085 805.855 304.657 791.538C304.305 779.752 304.441 766.236 305.328 753.54L305.324 753.534ZM237.199 633.213C273.368 674.047 296.522 712.218 303.644 743.381C303.687 743.57 303.715 743.763 303.728 743.947C304.647 742.815 305.591 741.681 306.552 740.572C308.01 728.69 310.32 718.518 313.753 712.632C316.134 708.546 319.284 705.293 322.542 702.696C297.979 689.977 281.15 664.671 266.752 621.261C246.83 561.176 240.177 493.163 246.425 413.338C251.054 354.139 266.916 297.988 292.561 249.496C283.166 247.744 274.042 246.437 264.496 247.058C243.482 248.429 223.885 259.806 206.243 280.886C193.662 295.921 184.69 312.791 178.713 326.441C181.364 327.137 184.005 327.778 186.61 328.349C187.322 328.508 188.037 328.656 188.756 328.811C194.299 329.99 200.025 331.206 204.764 334.636C210.552 338.826 214.347 347.497 209.98 355.311C207.457 359.832 202.875 362.622 199.532 364.662C194.185 367.921 177.916 377.832 167.678 369.445C161.424 364.315 160.592 354.886 165.214 341.408C166.347 338.096 167.578 334.759 168.892 331.426C151.427 326.08 129.49 316.597 123.987 301.741C117.98 285.548 131.148 261.733 140.759 244.349C142.64 240.951 144.415 237.742 145.8 235.011C157.408 212.225 163.848 183.464 147.12 171.057C138.652 164.773 125.876 164.268 113.517 163.778C97.5582 163.145 81.0553 162.491 72.4258 149.479C65.3023 138.737 67.5579 125.112 69.7412 111.934C70.2179 109.041 70.6702 106.315 71.0323 103.599C76.3846 62.9531 53.5081 23.6961 16.6371 10.2658C5.18797 6.09216 -10.8117 7.9752 -19.7896 14.535C-24.2513 17.7957 -26.5322 21.8727 -26.5788 26.6579C-26.6236 31.4594 -23.9552 35.9349 -21.377 40.2711C0.40574 76.8431 11.6949 111.645 13.1295 146.659C13.6498 159.332 12.8889 172.292 10.8375 185.632C24.8638 201.549 35.346 221.693 45.5335 241.287C48.345 246.693 51.0066 251.799 53.7161 256.774C64.353 276.298 75.3551 296.481 79.2507 319.797C83.2388 343.664 77.0269 374.442 54.385 390.408C53.8815 390.763 53.3703 391.106 52.8529 391.453C40.1207 399.787 23.4243 402.682 5.83391 399.611C-13.2842 396.269 -28.5173 387.085 -37.0742 373.748C-46.3284 359.306 -48.2923 338.878 -42.6078 316.222C-38.5279 299.97 -31.2411 284.304 -24.1895 269.149C-22.8069 266.181 -21.4304 263.218 -20.0778 260.245C-8.42361 234.72 -0.724853 210.89 3.1336 188.252C1.22814 186.21 -0.738711 184.264 -2.78302 182.417C-5.99972 179.51 -9.19151 176.682 -12.2846 173.952C-23.9506 163.645 -34.97 153.913 -45.5735 140.908L-45.9238 140.476C-57.8895 125.805 -82.7812 95.2779 -106.305 95.3512C-114.267 95.3755 -121.279 98.9269 -127.737 106.214C-130.875 109.758 -133.13 114.557 -134.258 120.087C-138.839 142.591 -124.94 163.579 -91.7807 184.238C-67.7514 199.203 -37.8474 217.837 -37.3751 250.355C-37.2323 260.236 -40.694 268.751 -46.881 273.714C-53.8576 279.312 -62.618 279.59 -70.9854 279.398L-141.879 277.756C-167.686 277.155 -183.447 282.723 -190.069 294.763C-196.183 305.881 -191.169 318.877 -183.056 325.976C-174.672 333.316 -162.911 336.838 -151.535 340.243L-148.914 341.031C-130.374 346.632 -111.85 353.981 -101.956 369.752C-96.4835 378.476 -94.358 388.73 -92.3019 398.645C-90.998 404.929 -89.651 411.429 -87.4642 417.276C-76.9234 445.437 -31.2029 448.016 5.53189 450.09C18.5243 450.821 30.7946 451.515 40.2935 453.263C85.8014 461.626 128.085 482.147 162.569 512.601C197.079 543.082 222.159 582.073 235.106 625.369C235.848 627.852 236.574 630.488 237.193 633.217L237.199 633.213ZM328.61 707.128C324.674 709.904 321.89 712.837 319.905 716.238C318.08 719.368 316.501 724.598 315.228 731.377C323.631 723.221 333.119 715.975 343.226 710.136C338.624 709.087 334.257 707.758 330.097 706.124C329.582 706.461 329.089 706.791 328.61 707.128ZM-1.4819 580.359C-8.61474 585.388 -14.164 594.01 -15.1975 602.1C-15.6786 605.887 -15.3413 611.142 -10.9844 614.691C-5.90104 618.831 2.43032 619.172 10.4796 619.5C21.3879 619.947 32.6604 620.409 38.2073 629.944C42.7394 637.734 40.3177 646.751 37.9782 655.472C36.2784 661.811 34.6715 667.802 35.6947 672.97C37.9924 684.513 53.6229 688.595 67.404 685.878C74.0426 684.574 80.7966 682.166 87.3213 679.84C95.3549 676.979 103.662 674.022 112.22 672.872C127.67 670.795 142.005 674.759 155.869 678.596C161.856 680.255 168.054 681.969 174.174 683.138C193.228 686.763 218.155 682.676 227.872 665.129C232.778 656.265 232.407 646.114 230.527 636.921C219.817 624.925 207.964 612.678 195.036 600.299C144.962 552.332 84.0912 507.269 26.9559 475.752C35.1349 512.218 53.4797 545.527 80.3268 572.497C80.3564 572.53 80.392 572.557 80.4216 572.589L128.361 580.137C141.219 582.162 172.447 588.965 184.617 608.386C189.266 615.811 190.46 624.122 188.163 633.086C187.659 635.037 185.752 636.293 183.861 635.925C143.294 628.002 106.347 608.532 76.8651 579.567L50.5672 575.425C32.4852 572.578 16.3217 570.838 1.70828 578.409C0.617347 578.975 -0.444726 579.627 -1.4819 580.359ZM90.0529 581.651C116.21 604.717 147.656 620.588 181.877 627.908C182.589 622.363 181.468 617.316 178.497 612.578C171.098 600.77 151.838 591.383 126.984 587.465L90.0529 581.651ZM175.789 333.413C174.248 337.268 172.997 340.725 171.998 343.616C168.494 353.828 168.601 360.542 172.312 363.585C176.586 367.088 184.558 365.319 196.02 358.339C198.782 356.656 202.215 354.562 203.738 351.839C205.898 347.97 203.749 343.164 200.423 340.757C196.849 338.172 192.065 337.155 186.997 336.082C186.262 335.93 185.53 335.767 184.801 335.611C182.277 335.055 179.208 334.327 175.789 333.413ZM303.661 244.058C306.836 244.676 310.068 245.289 313.258 245.808C332.997 249.03 347.756 247.387 359.715 240.629C367.916 235.993 374.766 227.389 377.175 218.707C378.265 214.756 378.928 208.972 375.86 203.852C369.605 193.415 352.599 193.389 340.643 199.906C327.222 207.218 317.701 220.756 310.161 233.03C307.932 236.655 305.765 240.335 303.661 244.058ZM9.1466 195.218C4.89755 216.721 -2.63677 239.236 -13.56 263.161C-14.9208 266.149 -16.3116 269.131 -17.7024 272.113C-24.5972 286.938 -31.7252 302.262 -35.6249 317.796C-40.8025 338.411 -39.1602 356.774 -30.9992 369.499C-23.5006 381.202 -9.88999 389.3 7.32488 392.309C16.4776 393.905 34.0758 395.118 49.1435 385.26C70.1025 371.54 75.7809 343.28 72.1241 321.357C68.4279 299.249 57.7225 279.606 47.3707 260.605C44.6281 255.565 41.9508 250.434 39.1296 245C30.0903 227.63 20.8191 209.806 9.14445 195.229L9.1466 195.218Z" fill="#1A4122"/>
</g>
</svg>
