<svg width="25" height="26" viewBox="0 0 25 26" fill="none" xmlns="http://www.w3.org/2000/svg">
<path fill-rule="evenodd" clip-rule="evenodd" d="M16.6667 3.71289H8.33333C5.45685 3.71289 3.125 6.04474 3.125 8.92122V17.2546C3.125 20.131 5.45685 22.4629 8.33333 22.4629H16.6667C19.5431 22.4629 21.875 20.131 21.875 17.2546V8.92122C21.875 6.04474 19.5431 3.71289 16.6667 3.71289ZM20.0521 17.2546C20.0464 19.1218 18.534 20.6342 16.6667 20.64H8.33333C6.46599 20.6342 4.95364 19.1218 4.94792 17.2546V8.92122C4.95364 7.05388 6.46599 5.54153 8.33333 5.53581H16.6667C18.534 5.54153 20.0464 7.05388 20.0521 8.92122V17.2546ZM17.4479 9.18164C18.0232 9.18164 18.4896 8.71527 18.4896 8.13997C18.4896 7.56468 18.0232 7.09831 17.4479 7.09831C16.8726 7.09831 16.4062 7.56468 16.4062 8.13997C16.4062 8.71527 16.8726 9.18164 17.4479 9.18164ZM12.5 8.40039C9.91117 8.40039 7.8125 10.4991 7.8125 13.0879C7.8125 15.6767 9.91117 17.7754 12.5 17.7754C15.0889 17.7754 17.1875 15.6767 17.1875 13.0879C17.1903 11.8438 16.6973 10.6499 15.8176 9.77027C14.9379 8.89059 13.7441 8.39762 12.5 8.40039ZM9.63542 13.0879C9.63542 14.67 10.9179 15.9525 12.5 15.9525C14.0821 15.9525 15.3646 14.67 15.3646 13.0879C15.3646 11.5058 14.0821 10.2233 12.5 10.2233C10.9179 10.2233 9.63542 11.5058 9.63542 13.0879Z" fill="#C15627"/>
</svg>
