<svg width="34" height="34" viewBox="0 0 34 34" fill="none" xmlns="http://www.w3.org/2000/svg">
<path d="M22.4115 13.7121V8.41724L19.5685 8.92551V11.1046H14.4342V8.92551L11.5914 8.41724V13.7121H8.21248L4.35547 22.1538V23.8229V25.0223V28.5758V29.0471V29.7338C4.35547 30.4551 4.88778 31.0399 5.54401 31.0399H28.4585C29.1151 31.0399 29.6474 30.4551 29.6474 29.7338V29.0471V28.5758V25.0223V23.8229V22.1538L25.7413 13.7121H22.4115ZM17.0015 27.2593C14.3491 27.2593 12.199 25.1091 12.199 22.4567C12.199 19.8043 14.3491 17.6541 17.0015 17.6541C19.6538 17.6541 21.804 19.8043 21.804 22.4567C21.804 25.1091 19.6539 27.2593 17.0015 27.2593Z" fill="#1A4122"/>
<path d="M28.8216 4.68007C26.2645 3.59559 20.6365 2.96014 17 2.96014C13.4791 2.96014 7.73553 3.59552 5.17836 4.68007C2.59091 5.77736 0 8.2334 0 11.1268C0 12.7132 0.790633 13.6552 0.979758 13.8742C0.979758 13.8742 2.06245 13.8742 2.35118 13.8742H3.96538C4.85303 13.8742 5.91295 13.8742 6.4847 13.8742C6.81235 13.8742 7.52954 12.4519 7.52954 11.871C7.52954 10.8493 6.98846 9.42858 6.98846 9.42858C7.01961 8.72547 7.29898 8.21175 8.44395 7.71955C10.5199 6.82718 15.0858 6.78714 17 6.78714C18.9141 6.78714 23.4801 6.82725 25.556 7.71955C26.701 8.21175 26.9804 8.72547 27.0115 9.42858C27.0115 9.42858 26.4705 10.8493 26.4705 11.871C26.4705 12.4519 27.1877 13.8742 27.5153 13.8742C28.0868 13.8742 29.1466 13.8742 30.0346 13.8742H31.6488C31.9376 13.8742 33.0202 13.8742 33.0202 13.8742C33.2094 13.6552 34 12.7132 34 11.1268C34 8.2334 31.4091 5.77736 28.8216 4.68007Z" fill="#1A4122"/>
</svg>
