<svg width="25" height="24" viewBox="0 0 25 24" fill="none" xmlns="http://www.w3.org/2000/svg">
<path d="M21.3731 6.7174C20.9087 7.33692 20.3473 7.87733 19.7106 8.31776C19.7106 8.47959 19.7106 8.64142 19.7106 8.81225C19.7157 11.7511 18.5418 14.5691 16.4521 16.6345C14.3623 18.6999 11.5315 19.8399 8.59432 19.7989C6.89626 19.8046 5.21994 19.4169 3.69669 18.6661C3.61455 18.6302 3.56158 18.549 3.56189 18.4593V18.3604C3.56189 18.2313 3.6665 18.1267 3.79554 18.1267C5.46469 18.0716 7.07429 17.4929 8.39661 16.4724C6.8858 16.4419 5.52646 15.5469 4.90087 14.1707C4.86928 14.0956 4.87911 14.0093 4.92684 13.9432C4.97456 13.8771 5.05327 13.8407 5.13452 13.8471C5.59369 13.8932 6.05745 13.8505 6.50047 13.7212C4.83266 13.375 3.57948 11.9904 3.40013 10.2957C3.39376 10.2144 3.43019 10.1357 3.49627 10.0879C3.56234 10.0402 3.64851 10.0303 3.72365 10.062C4.17121 10.2595 4.65436 10.3635 5.14351 10.3676C3.68211 9.40846 3.05088 7.58405 3.60682 5.92622C3.66421 5.76513 3.80208 5.64612 3.96977 5.61294C4.13745 5.57975 4.31023 5.63728 4.42459 5.76439C6.39666 7.86325 9.10631 9.11396 11.9822 9.25279C11.9086 8.95885 11.8724 8.65676 11.8744 8.35372C11.9013 6.76472 12.8845 5.34921 14.3637 4.76987C15.8428 4.19054 17.5252 4.56203 18.6233 5.71044C19.3717 5.56785 20.0953 5.31645 20.771 4.96421C20.8205 4.93331 20.8833 4.93331 20.9328 4.96421C20.9637 5.01373 20.9637 5.07652 20.9328 5.12604C20.6055 5.87552 20.0526 6.50412 19.3512 6.92419C19.9654 6.85296 20.5688 6.70807 21.1485 6.49264C21.1973 6.45942 21.2614 6.45942 21.3102 6.49264C21.3511 6.51134 21.3817 6.54711 21.3938 6.59042C21.4059 6.63373 21.3983 6.68018 21.3731 6.7174Z" fill="#1A4122"/>
</svg>
